<svg width="81" height="91" viewBox="0 0 81 91" fill="none" xmlns="http://www.w3.org/2000/svg">
<path d="M44.6463 2.01087C44.1163 1.08087 43.2863 0.280865 42.2063 0.0608653C41.1263 -0.159135 40.0363 0.240865 39.1763 0.880865C37.4463 2.18087 36.5463 4.41087 36.4863 6.54087C36.4463 7.76087 36.7063 8.95087 37.2063 10.0609C37.4863 10.6809 37.8463 11.2609 38.1563 11.8709C38.2863 12.1409 38.3963 12.4109 38.5263 12.6809C38.5763 12.7909 38.8763 13.6109 38.9663 13.5409C38.6263 13.7709 38.7263 14.3809 39.1863 14.3509C40.0963 14.3109 40.1163 13.1709 40.0563 12.4809C39.9563 11.4409 39.3463 10.5209 38.9063 9.60087C38.0663 7.85087 37.9763 5.81087 38.8363 4.04087C39.5963 2.48087 41.7263 0.610865 43.0463 2.71087C44.1063 4.39087 44.0463 6.68086 43.0163 8.36086C42.3963 9.39086 41.5563 10.2209 41.2463 11.4209C40.9463 12.5709 40.8763 13.9209 41.4063 15.0009C41.6663 15.5409 42.4563 15.3509 42.6163 14.8409C42.9863 13.6909 42.6163 12.4609 43.1263 11.3409C43.6163 10.2809 44.4963 9.47087 44.9663 8.38087C45.8263 6.36087 45.7563 3.93087 44.6563 2.01087H44.6463Z" fill="#9E6328"/>
<path d="M72.9813 57.9936C77.1999 39.951 65.9933 21.9048 47.9508 17.6863C29.9082 13.4677 11.862 24.6743 7.64349 42.7168C3.42494 60.7594 14.6315 78.8056 32.674 83.0241C50.7166 87.2427 68.7628 76.0361 72.9813 57.9936Z" fill="#FF2631"/>
<path d="M45.9963 76.5409C27.4663 76.5409 12.4463 61.5209 12.4463 42.9909C12.4463 36.9409 14.0563 31.2709 16.8563 26.3709C10.6263 32.4609 6.75635 40.9509 6.75635 50.3509C6.75635 68.8809 21.7763 83.9009 40.3063 83.9009C52.7863 83.9009 63.6763 77.0809 69.4563 66.9609C63.4063 72.8809 55.1264 76.5409 45.9963 76.5409Z" fill="#D50D29"/>
<path d="M45.7963 13.7409C45.7463 13.0409 45.6463 12.3109 45.1463 11.7809C44.5663 11.1609 43.6463 11.1309 42.8663 11.0409C41.1663 10.8509 39.4463 10.8909 37.7463 11.0709C36.8363 11.1709 35.8263 11.1609 35.2863 12.0309C34.4663 13.3509 34.2363 16.4209 35.1763 17.7609C35.6863 18.4909 36.6163 18.5309 37.3363 18.0909C37.7763 17.8209 38.0363 17.3309 38.3863 16.9809C38.9163 17.5409 39.2663 18.3309 40.1263 18.3209C40.5963 18.3209 41.0463 18.0509 41.3663 17.7309C41.4863 17.6009 41.6063 17.4109 41.7363 17.2509C42.6163 18.2509 44.0863 19.5409 45.1563 18.4509C45.6863 17.9109 45.7063 17.0409 45.7663 16.3409C45.8363 15.4809 45.8463 14.6109 45.7863 13.7509L45.7963 13.7409Z" fill="#D3A040"/>
<path d="M45.1763 13.8609C45.1663 13.7809 45.1463 13.7009 45.1263 13.6209C45.0663 13.3909 45.0063 13.1609 44.8963 12.9509C44.8263 12.8109 44.7363 12.6709 44.6463 12.5409C44.5163 12.3509 44.4063 12.2009 44.1863 12.1109C44.1063 12.0809 44.0263 12.0509 43.9463 12.0209C43.7063 11.9409 43.3463 12.0709 43.2263 12.3109C43.1763 12.4209 43.1063 12.5309 43.0763 12.6409C43.0363 12.7909 43.0563 12.9209 43.0563 13.0709C43.0563 13.1609 43.0563 13.2409 43.0563 13.3309C43.0563 13.4309 43.0663 13.5309 43.0763 13.6209C43.0863 13.7409 43.1063 13.8509 43.1063 13.9709C43.1063 14.0709 43.1163 14.1709 43.1263 14.2709C43.1563 14.4609 43.2363 14.6209 43.3163 14.7909C43.3663 14.8609 43.4163 14.9209 43.4663 14.9909C43.5363 15.0409 43.5963 15.0909 43.6663 15.1409C43.8563 15.2509 44.0763 15.2909 44.2963 15.2609C44.6763 15.2109 45.0163 14.9309 45.1163 14.5509C45.1263 14.5109 45.1363 14.4809 45.1463 14.4409C45.1963 14.2309 45.1963 14.0509 45.1463 13.8509L45.1763 13.8609Z" fill="#DFC17D"/>
<path d="M44.9363 16.3509C44.9363 16.3509 44.9063 16.2809 44.8963 16.2409C44.8763 16.1809 44.8463 16.1209 44.8263 16.0709C44.7763 15.9909 44.7163 15.9209 44.6363 15.8709C44.5863 15.8209 44.5363 15.7909 44.4763 15.7809C44.3863 15.7309 44.2963 15.7109 44.1963 15.7209C44.1363 15.7209 44.0663 15.7409 44.0063 15.7509C43.9463 15.7709 43.8863 15.8009 43.8363 15.8209C43.7563 15.8709 43.6863 15.9309 43.6363 16.0109C43.5763 16.0809 43.5263 16.1609 43.5063 16.2609C43.4963 16.3009 43.4763 16.3309 43.4663 16.3709C43.4663 16.3709 43.4663 16.3909 43.4663 16.4009C43.4663 16.4709 43.4463 16.5409 43.4363 16.6109C43.4363 16.6109 43.4363 16.6609 43.4363 16.6809V16.8509V16.8709C43.4363 16.9109 43.4363 16.9509 43.4463 16.9909C43.4463 17.0309 43.4463 17.0709 43.4663 17.1109C43.4963 17.1709 43.5163 17.2309 43.5463 17.3009C43.5963 17.3909 43.6663 17.4609 43.7463 17.5209C43.7963 17.5709 43.8563 17.6009 43.9163 17.6209C44.0063 17.6709 44.1063 17.6909 44.2163 17.6909L44.4263 17.6609C44.4863 17.6309 44.5463 17.6109 44.6163 17.5809C44.7063 17.5309 44.7763 17.4609 44.8363 17.3809C44.9063 17.3109 44.9463 17.2209 44.9763 17.1209C45.0063 16.9709 45.0063 16.8409 45.0063 16.6909C45.0063 16.5909 45.0063 16.4809 44.9663 16.3909L44.9363 16.3509Z" fill="#DFC17D"/>
<path d="M37.1563 12.7309V12.7109C37.1563 12.6909 37.1363 12.6609 37.1263 12.6409C37.1063 12.5509 37.0563 12.4809 36.9963 12.4109C36.9363 12.3509 36.8563 12.3009 36.7663 12.2809C36.6763 12.2609 36.5863 12.2609 36.4963 12.2809C36.4063 12.3009 36.3363 12.3509 36.2663 12.4109C36.2463 12.4309 36.2263 12.4409 36.2063 12.4609C36.1763 12.4809 36.1663 12.5009 36.1363 12.5409C36.0763 12.6109 36.0963 12.5909 36.0563 12.6809C36.0263 12.7309 36.0163 12.7709 36.0163 12.8309C36.0163 12.8609 36.0163 12.8909 36.0063 12.9209C36.0063 12.9709 36.0063 13.0309 35.9963 13.0809C35.9963 13.1309 36.0063 13.1809 36.0163 13.2309C36.0363 13.3009 36.0663 13.3709 36.1163 13.4209C36.1363 13.4609 36.1763 13.4909 36.2163 13.5209C36.2663 13.5709 36.3363 13.6009 36.4063 13.6209C36.4563 13.6209 36.5063 13.6309 36.5563 13.6409C36.6063 13.6409 36.6563 13.6309 36.7063 13.6209C36.7763 13.6009 36.8463 13.5709 36.8963 13.5209C36.9563 13.4809 37.0063 13.4309 37.0363 13.3609C37.0563 13.3109 37.0763 13.2609 37.1063 13.2109C37.1263 13.1609 37.1463 13.1209 37.1663 13.0709C37.1663 13.0209 37.1763 12.9709 37.1863 12.9109C37.1863 12.8609 37.1763 12.8109 37.1663 12.7509L37.1563 12.7309Z" fill="#DFC17D"/>
<path d="M45.1564 48.8109C43.4964 48.5609 42.5264 47.4309 42.0364 46.0409C41.9864 44.7309 41.8364 43.4209 41.5964 42.1109C41.5064 41.6309 40.9564 41.3309 40.5064 41.4009C39.9864 41.4809 39.6864 41.8709 39.6464 42.3809C39.6264 42.6009 39.6164 42.8109 39.6064 43.0309C39.3164 43.5709 39.5064 44.1209 39.4664 44.7609C39.4064 45.5509 39.1464 46.3109 38.7164 46.9709C37.9064 48.2009 36.5064 48.9209 35.0464 48.9809C34.0164 49.0709 33.9864 50.6609 35.0464 50.6109C36.4264 50.4909 38.0064 50.7809 38.9864 51.8509C39.4964 52.4109 39.6464 53.1209 39.7064 53.8609C39.7764 54.7509 39.8364 55.5909 40.1764 56.4109C40.2064 56.4809 40.2264 56.5409 40.2564 56.6109C40.6864 57.5309 41.9564 56.8409 41.7964 55.9609C41.3764 53.6809 43.0064 51.2209 45.1764 50.5709C45.9664 50.3309 46.1164 48.9609 45.1764 48.8209L45.1564 48.8109Z" fill="#F8C223"/>
<path d="M56.8763 29.7209C55.5863 29.5209 54.8363 28.6409 54.4463 27.5609C54.4063 26.5409 54.2963 25.5209 54.0963 24.5009C54.0263 24.1309 53.5963 23.8909 53.2463 23.9409C52.8463 24.0009 52.6063 24.3109 52.5763 24.7009C52.5663 24.8709 52.5563 25.0409 52.5463 25.2109C52.3163 25.6309 52.4663 26.0609 52.4363 26.5509C52.3963 27.1609 52.1863 27.7609 51.8463 28.2709C51.2163 29.2309 50.1263 29.7909 48.9963 29.8309C48.1963 29.9009 48.1763 31.1409 48.9963 31.1009C50.0663 31.0109 51.2963 31.2309 52.0563 32.0709C52.4563 32.5109 52.5663 33.0609 52.6163 33.6309C52.6763 34.3209 52.7163 34.9809 52.9863 35.6209C53.0063 35.6709 53.0263 35.7209 53.0563 35.7809C53.3863 36.4909 54.3763 35.9609 54.2563 35.2809C53.9263 33.5009 55.1963 31.5909 56.8863 31.0909C57.4963 30.9109 57.6163 29.8409 56.8863 29.7309L56.8763 29.7209Z" fill="#F8C223"/>
<path d="M57.9863 67.1708C56.6963 66.9708 55.9463 66.0909 55.5563 65.0109C55.5163 63.9909 55.4063 62.9709 55.2063 61.9509C55.1363 61.5809 54.7063 61.3408 54.3563 61.3908C53.9563 61.4508 53.7163 61.7609 53.6863 62.1509C53.6763 62.3209 53.6663 62.4908 53.6563 62.6608C53.4263 63.0808 53.5763 63.5108 53.5463 64.0008C53.5063 64.6108 53.2963 65.2109 52.9563 65.7209C52.3263 66.6809 51.2363 67.2408 50.1063 67.2808C49.3063 67.3508 49.2863 68.5909 50.1063 68.5509C51.1763 68.4609 52.4063 68.6808 53.1663 69.5208C53.5663 69.9608 53.6763 70.5109 53.7263 71.0809C53.7863 71.7709 53.8263 72.4308 54.0963 73.0708C54.1163 73.1208 54.1363 73.1709 54.1663 73.2309C54.4963 73.9409 55.4863 73.4109 55.3663 72.7309C55.0363 70.9509 56.3063 69.0409 57.9963 68.5409C58.6063 68.3609 58.7263 67.2909 57.9963 67.1809L57.9863 67.1708Z" fill="#F8C223"/>
<path d="M18.8663 50.4009C17.5763 50.2009 16.8263 49.3209 16.4363 48.2409C16.3963 47.2209 16.2863 46.2009 16.0863 45.1809C16.0163 44.8109 15.5863 44.5709 15.2363 44.6209C14.8363 44.6809 14.5963 44.9909 14.5663 45.3809C14.5563 45.5509 14.5463 45.7209 14.5363 45.8909C14.3063 46.3109 14.4563 46.7409 14.4263 47.2309C14.3863 47.8409 14.1763 48.4409 13.8363 48.9509C13.2063 49.9109 12.1163 50.4709 10.9863 50.5109C10.1863 50.5809 10.1663 51.8209 10.9863 51.7809C12.0563 51.6909 13.2863 51.9109 14.0463 52.7509C14.4463 53.1909 14.5563 53.7409 14.6063 54.3109C14.6663 55.0009 14.7063 55.6609 14.9763 56.3009C14.9963 56.3509 15.0163 56.4009 15.0463 56.4609C15.3763 57.1709 16.3663 56.6409 16.2463 55.9609C15.9163 54.1809 17.1863 52.2709 18.8763 51.7709C19.4863 51.5909 19.6063 50.5209 18.8763 50.4109L18.8663 50.4009Z" fill="#F8C223"/>
<path d="M31.8164 30.1209C30.5264 29.9209 29.7764 29.0409 29.3864 27.9609C29.3464 26.9409 29.2364 25.9209 29.0364 24.9009C28.9664 24.5309 28.5364 24.2909 28.1864 24.3409C27.7864 24.4009 27.5464 24.7109 27.5164 25.1009C27.5064 25.2709 27.4964 25.4409 27.4864 25.6109C27.2564 26.0309 27.4064 26.4609 27.3764 26.9509C27.3364 27.5609 27.1264 28.1609 26.7864 28.6709C26.1564 29.6309 25.0664 30.1909 23.9364 30.2309C23.1364 30.3009 23.1164 31.5409 23.9364 31.5009C25.0064 31.4109 26.2364 31.6309 26.9964 32.4709C27.3964 32.9109 27.5064 33.4609 27.5564 34.0309C27.6164 34.7209 27.6564 35.3809 27.9264 36.0209C27.9464 36.0709 27.9664 36.1209 27.9964 36.1809C28.3264 36.8909 29.3164 36.3609 29.1964 35.6809C28.8664 33.9009 30.1364 31.9909 31.8264 31.4909C32.4364 31.3109 32.5564 30.2409 31.8264 30.1309L31.8164 30.1209Z" fill="#F8C223"/>
<path d="M30.1463 68.1209C28.8563 67.9209 28.1063 67.0409 27.7163 65.9609C27.6763 64.9409 27.5663 63.9209 27.3663 62.9009C27.2963 62.5309 26.8663 62.2909 26.5163 62.3409C26.1163 62.4009 25.8763 62.7109 25.8463 63.1009C25.8363 63.2709 25.8263 63.4409 25.8163 63.6109C25.5863 64.0309 25.7363 64.4609 25.7063 64.9509C25.6663 65.5609 25.4563 66.1609 25.1163 66.6709C24.4863 67.6309 23.3963 68.1909 22.2663 68.2309C21.4663 68.3009 21.4463 69.5409 22.2663 69.5009C23.3363 69.4109 24.5663 69.6309 25.3263 70.4709C25.7263 70.9109 25.8363 71.4609 25.8863 72.0309C25.9463 72.7209 25.9863 73.3809 26.2563 74.0209C26.2763 74.0709 26.2963 74.1209 26.3263 74.1809C26.6563 74.8909 27.6463 74.3609 27.5263 73.6809C27.1963 71.9009 28.4663 69.9909 30.1563 69.4909C30.7663 69.3109 30.8863 68.2409 30.1563 68.1309L30.1463 68.1209Z" fill="#F8C223"/>
<path d="M69.3563 48.1309C68.0663 47.9309 67.3163 47.0509 66.9263 45.9709C66.8863 44.9509 66.7763 43.9309 66.5763 42.9109C66.5063 42.5409 66.0763 42.3009 65.7263 42.3509C65.3263 42.4109 65.0863 42.7209 65.0563 43.1109C65.0463 43.2809 65.0363 43.4509 65.0263 43.6209C64.7963 44.0409 64.9463 44.4709 64.9163 44.9609C64.8763 45.5709 64.6663 46.1709 64.3263 46.6809C63.6963 47.6409 62.6063 48.2009 61.4763 48.2409C60.6763 48.3109 60.6563 49.5509 61.4763 49.5109C62.5463 49.4209 63.7763 49.6409 64.5363 50.4809C64.9363 50.9209 65.0463 51.4709 65.0963 52.0409C65.1563 52.7309 65.1963 53.3909 65.4663 54.0309C65.4863 54.0809 65.5063 54.1309 65.5363 54.1909C65.8663 54.9009 66.8563 54.3709 66.7363 53.6909C66.4063 51.9109 67.6763 50.0009 69.3663 49.5009C69.9763 49.3209 70.0963 48.2509 69.3663 48.1409L69.3563 48.1309Z" fill="#F8C223"/>
<path d="M68.1363 61.1009C68.0163 60.5509 67.4363 60.1409 66.9263 60.0209C65.1663 59.5909 64.1163 61.3009 63.3863 62.6009C63.2163 62.9009 63.0663 63.2109 62.9163 63.5309C62.3463 64.4609 61.9163 65.4609 61.8063 66.5609C61.7363 67.1909 61.8463 67.7709 62.3463 68.2209C62.7863 68.6209 63.4863 68.7909 64.0563 68.5709C65.5263 68.0009 66.7163 66.9609 67.4863 65.5909C67.8263 64.9809 68.0863 64.2909 68.2063 63.6109C68.3663 62.7409 68.3163 61.9509 68.1363 61.1009Z" fill="#FF6C82"/>
<path d="M71.9764 56.4909C71.9764 56.4909 71.9764 56.4809 71.9764 56.4709C71.9664 56.3609 71.9464 56.2009 71.9264 56.0909C71.9264 56.0609 71.9164 56.0309 71.9064 56.0109C71.8764 55.9409 71.7964 55.7309 71.7664 55.6709C71.7664 55.6709 71.7664 55.6609 71.7664 55.6509C71.7664 55.6409 71.7564 55.6309 71.7464 55.6109C71.6764 55.5009 71.5964 55.3909 71.5064 55.3009C71.2964 55.1009 71.1364 55.0209 70.8664 54.9309C70.8564 54.9309 70.8464 54.9309 70.8364 54.9309C70.7964 54.9209 70.4964 54.8809 70.4564 54.8809C70.3364 54.9009 70.2064 54.9109 70.0864 54.9309C69.9664 54.9609 69.8564 55.0109 69.7464 55.0709C69.5564 55.1809 69.4064 55.3409 69.2864 55.5209C69.1564 55.6109 69.0564 55.7209 68.9764 55.8609C68.9264 55.9809 68.8664 56.0909 68.8264 56.2209C68.7864 56.3509 68.7764 56.5309 68.7664 56.6309C68.7664 56.6509 68.7664 56.6809 68.7664 56.7009C68.7664 56.7709 68.7864 56.8509 68.7964 56.9109C68.7964 56.9709 68.8064 57.0509 68.8264 57.1209C68.8464 57.1909 68.8764 57.2609 68.9064 57.3109C68.9264 57.3609 68.9564 57.4209 68.9764 57.4709C69.0464 57.5609 69.1164 57.6609 69.1964 57.7509C69.1964 57.7509 69.1964 57.7509 69.2064 57.7609C69.3064 57.8609 69.4164 57.9509 69.5364 58.0209C69.5964 58.0509 69.6864 58.0909 69.7264 58.1009C69.7764 58.1209 69.8564 58.1609 69.9164 58.1809C69.9264 58.1809 69.9364 58.1809 69.9564 58.1809C70.0364 58.1909 70.2564 58.2309 70.3364 58.2309C70.3364 58.2309 70.3464 58.2309 70.3564 58.2309C70.5064 58.2309 70.6464 58.2109 70.7864 58.1709C70.7864 58.1709 70.7964 58.1709 70.8064 58.1709C70.8564 58.1509 71.0964 58.0509 71.1464 58.0309C71.1564 58.0309 71.1664 58.0209 71.1864 58.0109C71.1864 58.0109 71.1864 58.0109 71.1964 58.0009C71.2364 57.9709 71.4464 57.8109 71.4864 57.7809C71.4864 57.7809 71.5064 57.7609 71.5164 57.7609C71.5664 57.7109 71.6064 57.6409 71.6464 57.6009C71.6764 57.5609 71.7364 57.4909 71.7764 57.4309C71.7764 57.4309 71.7864 57.4109 71.7864 57.4009C71.8164 57.3309 71.9064 57.1309 71.9264 57.0609C71.9264 57.0609 71.9264 57.0509 71.9264 57.0409C71.9264 57.0209 71.9364 56.9909 71.9464 56.9709C71.9664 56.8309 71.9964 56.6809 72.0064 56.5309C72.0064 56.5209 72.0064 56.5109 72.0064 56.5009L71.9764 56.4909Z" fill="#FF6C82"/>
<path d="M17.6263 34.5009C17.5863 34.3709 17.5263 34.2609 17.4263 34.1609C17.3263 34.0609 17.2163 34.0009 17.0863 33.9609C17.0163 33.9609 16.9463 33.9409 16.8763 33.9309C16.7363 33.9309 16.6063 33.9709 16.4863 34.0409C16.3963 34.0909 16.3263 34.1509 16.2663 34.2409C16.1963 34.3109 16.1563 34.4009 16.1263 34.5009C16.0863 34.6409 16.0863 34.7709 16.1263 34.9109C16.1263 34.9309 16.1363 34.9409 16.1463 34.9509C16.1463 34.9509 16.1463 34.9609 16.1463 34.9709C16.1763 35.1009 16.2463 35.2109 16.3363 35.3009C16.4263 35.3909 16.5363 35.4609 16.6663 35.4909C16.7363 35.4909 16.7963 35.5109 16.8663 35.5209C16.9363 35.5209 16.9963 35.5009 17.0663 35.4909C17.1663 35.4709 17.2463 35.4209 17.3263 35.3609C17.4363 35.2709 17.4063 35.3009 17.5163 35.1509C17.5163 35.1509 17.5163 35.1509 17.5163 35.1409C17.5463 35.0809 17.5763 35.0109 17.5963 34.9509C17.5963 34.9509 17.5963 34.9509 17.5963 34.9409C17.6263 34.7609 17.6363 34.6909 17.5963 34.5109L17.6263 34.5009Z" fill="white"/>
<path d="M27.4164 49.6409C27.4164 49.5709 27.3964 49.5009 27.3864 49.4409C27.3864 49.4309 27.3864 49.4109 27.3764 49.4009C27.3564 49.3109 27.3164 49.2309 27.2464 49.1609C27.1964 49.0809 27.1264 49.0209 27.0464 48.9809C26.9664 48.9309 26.8764 48.9009 26.7764 48.9009C26.6864 48.8809 26.5864 48.8809 26.4964 48.9109C26.4364 48.9309 26.3864 48.9609 26.3264 48.9809C26.2164 49.0409 26.1364 49.1309 26.0664 49.2409C26.0464 49.3009 26.0164 49.3509 25.9964 49.4109C25.9764 49.5009 25.9664 49.5909 25.9864 49.6909C25.9864 49.7009 25.9864 49.7109 25.9864 49.7209C25.9864 49.7209 25.9864 49.7109 25.9864 49.7009C25.9864 49.7209 25.9864 49.7509 25.9864 49.7709C25.9864 49.7909 25.9864 49.8109 25.9864 49.8209C25.9864 49.8509 25.9864 49.8909 25.9964 49.9209C26.0264 50.0409 26.0864 50.1509 26.1764 50.2309C26.2664 50.3209 26.3664 50.3809 26.4864 50.4109C26.6164 50.4409 26.7364 50.4409 26.8664 50.4109C26.9864 50.3809 27.0964 50.3209 27.1764 50.2309L27.2864 50.0909L27.3564 49.9209C27.3564 49.8609 27.3764 49.7909 27.3864 49.7309C27.3864 49.7209 27.3864 49.7009 27.3864 49.6909C27.3864 49.6909 27.3864 49.6809 27.3864 49.6709L27.4164 49.6409Z" fill="white"/>
<path d="M17.6163 65.3009C17.5763 65.1709 17.5163 65.0609 17.4263 64.9709C17.3763 64.9309 17.3263 64.8909 17.2763 64.8509C17.1563 64.7809 17.0363 64.7509 16.8963 64.7509C16.7963 64.7509 16.6963 64.7709 16.6063 64.8109C16.5163 64.8409 16.4363 64.8909 16.3663 64.9609C16.2963 65.0309 16.2463 65.1109 16.2163 65.2009C16.1663 65.2909 16.1463 65.3809 16.1563 65.4909C16.1563 65.5609 16.1763 65.6209 16.1863 65.6909C16.2263 65.8209 16.2863 65.9309 16.3763 66.0209C16.4263 66.0609 16.4763 66.1009 16.5263 66.1409C16.6463 66.2109 16.7663 66.2409 16.9063 66.2409C17.0063 66.2409 17.1063 66.2209 17.1963 66.1809C17.2863 66.1509 17.3663 66.1009 17.4363 66.0309C17.5063 65.9609 17.5563 65.8809 17.5863 65.7909C17.6363 65.7009 17.6563 65.6109 17.6463 65.5009L17.6163 65.3009Z" fill="white"/>
<path d="M41.1063 71.5809C41.0763 71.4709 41.0163 71.3709 40.9363 71.2909C40.8963 71.2609 40.8463 71.2209 40.8063 71.1909C40.7063 71.1309 40.5963 71.1009 40.4763 71.1009C40.3863 71.1009 40.3063 71.1209 40.2263 71.1609C40.1463 71.1909 40.0763 71.2309 40.0163 71.3009C39.9563 71.3609 39.9063 71.4309 39.8763 71.5109C39.8363 71.5909 39.8163 71.6709 39.8163 71.7609C39.8163 71.8209 39.8363 71.8809 39.8363 71.9309C39.8663 72.0409 39.9263 72.1409 40.0063 72.2209C40.0463 72.2509 40.0963 72.2909 40.1363 72.3209C40.2363 72.3809 40.3463 72.4109 40.4663 72.4109C40.5563 72.4109 40.6363 72.3909 40.7163 72.3509C40.7963 72.3209 40.8663 72.2809 40.9263 72.2109C40.9863 72.1509 41.0363 72.0809 41.0663 72.0009C41.1063 71.9209 41.1263 71.8409 41.1263 71.7509C41.1263 71.6909 41.1063 71.6309 41.1063 71.5809Z" fill="white"/>
<path d="M55.5063 49.5809C55.4763 49.4609 55.4163 49.3609 55.3263 49.2709C55.2763 49.2309 55.2363 49.2009 55.1863 49.1609C55.0763 49.1009 54.9563 49.0609 54.8363 49.0609C54.7363 49.0609 54.6463 49.0808 54.5663 49.1208C54.4763 49.1508 54.4063 49.2009 54.3363 49.2709C54.2463 49.3609 54.1863 49.4609 54.1563 49.5809C54.1263 49.7009 54.1263 49.8309 54.1563 49.9509C54.1563 50.0009 54.1663 50.0409 54.1763 50.0909C54.1963 50.1409 54.2263 50.2009 54.2463 50.2509C54.2863 50.3309 54.3463 50.3908 54.4163 50.4408C54.4563 50.4808 54.5063 50.5108 54.5663 50.5308C54.6463 50.5708 54.7363 50.5909 54.8263 50.5909L55.0063 50.5709C55.0563 50.5509 55.1163 50.5209 55.1663 50.5009C55.2463 50.4609 55.3063 50.4009 55.3563 50.3309C55.4163 50.2609 55.4563 50.1908 55.4763 50.1008C55.4763 50.0508 55.4863 50.0108 55.4963 49.9608C55.5263 49.8408 55.5263 49.7109 55.4963 49.5909L55.5063 49.5809Z" fill="white"/>
<path d="M63.4063 33.0909C63.3763 32.9709 63.3163 32.8709 63.2263 32.7909L63.0863 32.6809C62.9763 32.6209 62.8663 32.5909 62.7363 32.5909C62.6463 32.5909 62.5563 32.6109 62.4763 32.6509C62.3863 32.6809 62.3163 32.7209 62.2563 32.7909C62.1863 32.8509 62.1463 32.9309 62.1163 33.0109C62.0763 33.0909 62.0563 33.1809 62.0563 33.2709C62.0563 33.3309 62.0763 33.3909 62.0763 33.4509C62.1063 33.5709 62.1663 33.6709 62.2563 33.7509C62.3063 33.7909 62.3463 33.8209 62.3963 33.8609C62.5063 33.9209 62.6163 33.9509 62.7463 33.9509C62.8363 33.9509 62.9263 33.9309 63.0063 33.8909C63.0963 33.8609 63.1663 33.8209 63.2263 33.7509C63.2963 33.6909 63.3363 33.6109 63.3663 33.5309C63.4063 33.4509 63.4263 33.3609 63.4263 33.2709C63.4263 33.2109 63.4063 33.1509 63.4063 33.0909Z" fill="white"/>
<path d="M40.7364 28.9609C40.7064 28.8609 40.6664 28.7709 40.6264 28.6809C40.5564 28.5609 40.4564 28.4609 40.3364 28.3909C40.2764 28.3609 40.2064 28.3409 40.1464 28.3109C40.0064 28.2709 39.8564 28.2709 39.7164 28.3109C39.6064 28.3409 39.5164 28.3809 39.4364 28.4509C39.3464 28.5109 39.2764 28.5809 39.2264 28.6809C39.1664 28.7709 39.1364 28.8709 39.1264 28.9809C39.1064 29.0909 39.1064 29.2009 39.1364 29.3009C39.1564 29.3809 39.1964 29.4609 39.2464 29.5209C39.2664 29.5509 39.2764 29.5709 39.2964 29.6009C39.2964 29.6209 39.3064 29.6309 39.3164 29.6509C39.3664 29.7409 39.4364 29.8209 39.5164 29.8709C39.5464 29.9009 39.5764 29.9109 39.6164 29.9309C39.6364 29.9509 39.6464 29.9709 39.6764 29.9909C39.7464 30.0409 39.8264 30.0609 39.9164 30.0709C40.0064 30.0909 40.0864 30.0909 40.1764 30.0609C40.2564 30.0409 40.3264 30.0009 40.3964 29.9509C40.4164 29.9409 40.4364 29.9209 40.4564 29.9109C40.4564 29.9109 40.4764 29.8909 40.4764 29.8809C40.5264 29.8409 40.5764 29.8109 40.6064 29.7609C40.6564 29.7109 40.6864 29.6509 40.7064 29.5909C40.7564 29.5009 40.7764 29.4009 40.7764 29.2909C40.7764 29.1909 40.7564 29.0909 40.7364 28.9909V28.9609Z" fill="white"/>
<path d="M64.3263 63.7509C63.3763 63.7509 63.3763 65.2309 64.3263 65.2309C65.2763 65.2309 65.2763 63.7509 64.3263 63.7509Z" fill="white"/>
</svg>
