<svg width="40" height="40" viewBox="0 0 81 91" fill="none" xmlns="http://www.w3.org/2000/svg">
    <path d="M44.7664 2.01087C44.2364 1.08087 43.4064 0.280875 42.3264 0.070875C41.2464 -0.149125 40.1564 0.250875 39.2964 0.890875C37.5664 2.19088 36.6764 4.42088 36.6064 6.55088C36.5664 7.77087 36.8264 8.96088 37.3264 10.0709C37.6064 10.6909 37.9664 11.2709 38.2764 11.8809C38.4064 12.1509 38.5164 12.4209 38.6464 12.6909C38.6964 12.8009 38.9964 13.6209 39.0864 13.5509C38.7464 13.7809 38.8464 14.3909 39.3064 14.3609C40.2164 14.3109 40.2364 13.1809 40.1764 12.4809C40.0764 11.4409 39.4664 10.5209 39.0264 9.60088C38.1864 7.85088 38.0964 5.81087 38.9564 4.04087C39.7164 2.48088 41.8464 0.610875 43.1664 2.71088C44.2264 4.39087 44.1664 6.68088 43.1464 8.36088C42.5264 9.39087 41.6864 10.2209 41.3764 11.4209C41.0764 12.5709 41.0064 13.9209 41.5364 15.0009C41.7964 15.5409 42.5864 15.3509 42.7464 14.8409C43.1164 13.6909 42.7464 12.4609 43.2564 11.3409C43.7464 10.2809 44.6264 9.47088 45.0964 8.38088C45.9564 6.36088 45.8864 3.93087 44.7864 2.01087H44.7664Z"
          fill="#9E6328"/>
    <path d="M73.1987 57.5965C77.1997 39.5045 65.7766 21.5946 47.6846 17.5936C29.5925 13.5926 11.6826 25.0157 7.68165 43.1077C3.68068 61.1998 15.1037 79.1097 33.1958 83.1107C51.2878 87.1116 69.1977 75.6886 73.1987 57.5965Z"
          fill="#6AA69E"/>
    <path d="M48.2663 72.7209C29.7363 72.7209 14.7064 57.7109 14.7064 39.1709C14.7064 34.4709 15.6764 30.0109 17.4164 25.9509C10.9364 32.0709 6.88635 40.7409 6.88635 50.3509C6.88635 68.8809 21.9164 83.9009 40.4464 83.9009C54.2864 83.9009 66.1564 75.5209 71.2864 63.5609C65.2764 69.2309 57.1863 72.7209 48.2663 72.7209Z"
          fill="#478884"/>
    <path d="M45.9164 13.7409C45.8664 13.0409 45.7664 12.3109 45.2664 11.7809C44.6864 11.1609 43.7664 11.1309 42.9864 11.0409C41.2864 10.8509 39.5664 10.8909 37.8664 11.0709C36.9564 11.1709 35.9464 11.1609 35.4064 12.0309C34.5864 13.3509 34.3564 16.4209 35.2964 17.7609C35.8064 18.4909 36.7464 18.5209 37.4564 18.0909C37.8964 17.8209 38.1564 17.3309 38.5064 16.9809C39.0364 17.5409 39.3864 18.3309 40.2564 18.3209C40.7264 18.3209 41.1764 18.0509 41.4964 17.7309C41.6164 17.6009 41.7364 17.4109 41.8664 17.2509C42.7464 18.2509 44.2164 19.5409 45.2864 18.4509C45.8164 17.9109 45.8364 17.0409 45.8964 16.3409C45.9664 15.4809 45.9764 14.6109 45.9164 13.7509V13.7409Z"
          fill="#D3A040"/>
    <path d="M45.2864 13.8609C45.2764 13.7809 45.2564 13.7009 45.2364 13.6209C45.1764 13.3909 45.1164 13.1609 45.0064 12.9509C44.9364 12.8109 44.8464 12.6709 44.7564 12.5409C44.6264 12.3509 44.5164 12.2009 44.2964 12.1109C44.2164 12.0809 44.1364 12.0509 44.0564 12.0209C43.8164 11.9409 43.4564 12.0709 43.3364 12.3109C43.2864 12.4209 43.2164 12.5309 43.1864 12.6409C43.1464 12.7909 43.1664 12.9209 43.1664 13.0709C43.1664 13.1609 43.1664 13.2409 43.1664 13.3309C43.1664 13.4309 43.1764 13.5309 43.1864 13.6209C43.1964 13.7409 43.2164 13.8509 43.2164 13.9709C43.2164 14.0709 43.2264 14.1709 43.2364 14.2709C43.2664 14.4609 43.3464 14.6209 43.4264 14.7909C43.4764 14.8609 43.5264 14.9209 43.5764 14.9909C43.6464 15.0409 43.7064 15.0909 43.7764 15.1409C43.9664 15.2509 44.1864 15.2909 44.4064 15.2609C44.7864 15.2109 45.1264 14.9309 45.2264 14.5509C45.2364 14.5109 45.2464 14.4809 45.2564 14.4409C45.3064 14.2309 45.3064 14.0509 45.2564 13.8509L45.2864 13.8609Z"
          fill="#DFC17D"/>
    <path d="M45.0564 16.3509C45.0564 16.3509 45.0264 16.2809 45.0164 16.2409C44.9964 16.1809 44.9664 16.1209 44.9464 16.0709C44.8964 15.9909 44.8364 15.9209 44.7564 15.8709C44.7064 15.8209 44.6564 15.7909 44.5964 15.7809C44.5064 15.7309 44.4164 15.7109 44.3164 15.7209C44.2564 15.7209 44.1864 15.7409 44.1264 15.7509C44.0664 15.7709 44.0064 15.8009 43.9564 15.8209C43.8764 15.8709 43.8064 15.9309 43.7564 16.0109C43.6964 16.0809 43.6464 16.1609 43.6264 16.2609C43.6164 16.3009 43.5964 16.3309 43.5864 16.3709C43.5864 16.3709 43.5864 16.3909 43.5864 16.4009C43.5864 16.4709 43.5664 16.5409 43.5564 16.6109C43.5564 16.6109 43.5564 16.6609 43.5564 16.6809V16.8509V16.8709C43.5564 16.9109 43.5564 16.9509 43.5664 16.9909C43.5664 17.0309 43.5664 17.0709 43.5864 17.1109C43.6164 17.1709 43.6364 17.2309 43.6664 17.3009C43.7164 17.3909 43.7864 17.4609 43.8664 17.5209C43.9164 17.5709 43.9764 17.6009 44.0364 17.6209C44.1264 17.6709 44.2264 17.6909 44.3364 17.6909L44.5464 17.6609C44.6064 17.6309 44.6664 17.6109 44.7364 17.5809C44.8264 17.5309 44.8964 17.4609 44.9564 17.3809C45.0264 17.3109 45.0664 17.2209 45.0964 17.1209C45.1264 16.9709 45.1264 16.8409 45.1264 16.6909C45.1264 16.5909 45.1264 16.4809 45.0864 16.3909L45.0564 16.3509Z"
          fill="#DFC17D"/>
    <path d="M37.2763 12.7309V12.7109C37.2763 12.6909 37.2563 12.6609 37.2463 12.6409C37.2263 12.5509 37.1763 12.4809 37.1163 12.4109C37.0563 12.3509 36.9763 12.3009 36.8863 12.2809C36.7963 12.2609 36.7063 12.2609 36.6163 12.2809C36.5263 12.3009 36.4563 12.3509 36.3863 12.4109C36.3663 12.4309 36.3463 12.4409 36.3263 12.4609C36.2963 12.4809 36.2863 12.5009 36.2563 12.5409C36.1963 12.6109 36.2163 12.5909 36.1763 12.6809C36.1463 12.7309 36.1363 12.7709 36.1363 12.8309C36.1363 12.8609 36.1363 12.8909 36.1263 12.9209C36.1263 12.9709 36.1263 13.0309 36.1163 13.0809C36.1163 13.1309 36.1263 13.1809 36.1363 13.2309C36.1563 13.3009 36.1863 13.3709 36.2363 13.4209C36.2563 13.4609 36.2963 13.4909 36.3363 13.5209C36.3863 13.5709 36.4563 13.6009 36.5263 13.6209C36.5763 13.6209 36.6263 13.6309 36.6763 13.6409C36.7263 13.6409 36.7763 13.6309 36.8263 13.6209C36.8963 13.6009 36.9663 13.5709 37.0163 13.5209C37.0763 13.4809 37.1263 13.4309 37.1563 13.3609C37.1763 13.3109 37.1963 13.2609 37.2263 13.2109C37.2463 13.1509 37.2663 13.1109 37.2863 13.0609C37.2863 13.0109 37.2963 12.9609 37.3063 12.9009C37.3063 12.8509 37.2963 12.8009 37.2863 12.7409L37.2763 12.7309Z"
          fill="#DFC17D"/>
    <path d="M44.7063 65.6709C44.4963 65.4009 44.2863 65.1209 44.0663 64.8609C43.7963 64.5409 43.5063 64.2309 43.1863 63.9509C42.9063 63.7009 42.5863 63.4309 42.2563 63.1609C42.2563 63.1009 42.2763 63.0609 42.2763 63.0009V61.1209C42.2863 61.0509 42.2763 60.9909 42.2763 60.9209C42.2463 53.0509 42.2763 45.1809 42.0363 37.3209C42.0363 37.2009 42.0363 37.0909 42.0163 36.9809C42.0863 36.9309 42.1663 36.8809 42.2363 36.8309C42.7063 36.5009 43.1563 36.1209 43.5663 35.7209C43.8963 35.4009 44.2063 35.0709 44.5063 34.7309C44.8763 34.2909 45.2963 33.8409 45.5663 33.3309C46.0363 32.4409 45.8563 31.3609 45.0463 30.7409C44.3163 30.1809 43.0463 30.1209 42.4063 30.9009C42.0863 31.2909 41.8263 31.7209 41.5263 32.1209C41.5263 32.1309 41.4663 32.2009 41.4263 32.2509C41.4063 32.2809 41.3863 32.3009 41.3763 32.3109C41.2563 32.4609 41.1363 32.6009 41.0163 32.7409C40.6363 33.1709 40.2163 33.5709 39.7963 33.9709C39.6463 33.8409 39.4863 33.7009 39.3363 33.5709C38.6163 32.9509 37.9163 32.3209 37.1163 31.8109C36.3163 31.2909 35.3663 32.3109 35.8263 33.1009C36.3863 34.0409 37.1063 34.8709 37.7963 35.7209C37.8763 35.8109 37.9463 35.9109 38.0263 36.0009C38.0463 36.0209 38.0863 36.0809 38.1163 36.1109C38.1163 36.1109 38.1163 36.1209 38.1163 36.1409C38.1363 36.2609 38.1963 36.3809 38.2463 36.5009C38.3163 36.6609 38.4063 36.8009 38.5163 36.9309C38.4963 37.0509 38.4863 37.1909 38.4863 37.3309C38.2463 45.1909 38.2863 53.0609 38.2563 60.9309C38.2563 61.0009 38.2363 61.0609 38.2363 61.1309V62.7509C38.1663 62.8209 38.0863 62.8909 38.0063 62.9809C37.6163 63.4209 37.2863 63.9409 36.9463 64.4209C36.6363 64.8509 36.3463 65.2809 36.0763 65.7309C35.9463 65.9409 35.8163 66.1609 35.6963 66.3709C35.5863 66.5609 35.4463 66.7509 35.3963 66.9709C35.3863 67.0709 35.3663 67.1709 35.3563 67.2709C35.3563 67.2909 35.3363 67.3209 35.3263 67.3909C35.0363 68.4209 36.1863 69.2409 37.0863 68.7409C37.1163 68.7209 37.1363 68.7109 37.1463 68.7109C37.1463 68.7109 37.1763 68.7109 37.3063 68.6509C37.5263 68.5609 37.6963 68.4109 37.8663 68.2509C38.0363 68.1009 38.1963 67.9409 38.3563 67.7809C38.7063 67.4509 39.0363 67.1209 39.3563 66.7609C39.5263 66.5609 39.6963 66.3709 39.8763 66.1709C39.9463 66.2309 40.0263 66.2909 40.0963 66.3609C40.3963 66.6309 40.6663 66.9109 40.9463 67.2009C41.0863 67.3509 41.2263 67.5109 41.3663 67.6709C41.4063 67.7209 41.4463 67.7609 41.4763 67.8109C41.4763 67.8109 41.4763 67.8109 41.4763 67.8209C41.9163 68.4509 42.4063 69.0709 43.1963 69.2409C44.1963 69.4609 45.3563 68.9409 45.5963 67.8809C45.7863 67.0609 45.4463 66.1009 44.7063 65.6709Z"
          fill="white"/>
    <path d="M24.6864 53.9709C24.9564 53.7609 25.2364 53.5509 25.4964 53.3309C25.8164 53.0609 26.1264 52.7709 26.3964 52.4509C26.6464 52.1709 26.9164 51.8509 27.1864 51.5209C27.2464 51.5209 27.2864 51.5409 27.3464 51.5409C27.9764 51.5409 28.5964 51.5409 29.2264 51.5509C29.2964 51.5509 29.3564 51.5409 29.4264 51.5309C37.2964 51.5009 45.1664 51.5309 53.0264 51.2909C53.1464 51.2909 53.2564 51.2909 53.3664 51.2709C53.4164 51.3409 53.4664 51.4209 53.5164 51.4909C53.8464 51.9609 54.2264 52.4109 54.6264 52.8209C54.9464 53.1509 55.2764 53.4609 55.6164 53.7609C56.0564 54.1309 56.5064 54.5509 57.0164 54.8209C57.9064 55.2909 58.9864 55.1109 59.6064 54.3009C60.1664 53.5709 60.2264 52.3009 59.4464 51.6609C59.0564 51.3409 58.6264 51.0809 58.2264 50.7809C58.2164 50.7809 58.1464 50.7209 58.0964 50.6809C58.0664 50.6609 58.0464 50.6409 58.0364 50.6309C57.8864 50.5109 57.7464 50.3909 57.6064 50.2709C57.1764 49.8909 56.7764 49.4709 56.3764 49.0509C56.5064 48.9009 56.6464 48.7409 56.7764 48.5909C57.3964 47.8709 58.0264 47.1709 58.5364 46.3709C59.0564 45.5709 58.0364 44.6209 57.2464 45.0809C56.3064 45.6409 55.4764 46.3609 54.6264 47.0509C54.5364 47.1309 54.4364 47.2009 54.3464 47.2809C54.3264 47.3009 54.2664 47.3409 54.2364 47.3709C54.2364 47.3709 54.2264 47.3709 54.2064 47.3709C54.0864 47.3909 53.9664 47.4509 53.8464 47.5009C53.6864 47.5709 53.5464 47.6609 53.4164 47.7709C53.2964 47.7509 53.1564 47.7409 53.0164 47.7409C45.1564 47.5009 37.2864 47.5409 29.4164 47.5109C29.3464 47.5109 29.2864 47.4909 29.2164 47.4909H27.5964C27.5264 47.4209 27.4564 47.3409 27.3664 47.2609C26.9264 46.8709 26.4064 46.5409 25.9264 46.2009C25.4964 45.8909 25.0664 45.6009 24.6164 45.3309C24.4064 45.2009 24.1864 45.0709 23.9764 44.9509C23.7864 44.8409 23.5964 44.7009 23.3764 44.6509C23.2764 44.6409 23.1764 44.6209 23.0764 44.6109C23.0564 44.6109 23.0264 44.5909 22.9564 44.5809C21.9264 44.2909 21.1064 45.4409 21.6064 46.3409C21.6264 46.3709 21.6364 46.3909 21.6364 46.4009C21.6364 46.4009 21.6364 46.4309 21.6964 46.5609C21.7864 46.7809 21.9364 46.9509 22.0964 47.1209C22.2464 47.2909 22.4064 47.4509 22.5664 47.6109C22.8964 47.9609 23.2264 48.2909 23.5864 48.6109C23.7864 48.7809 23.9764 48.9509 24.1764 49.1309C24.1164 49.2009 24.0564 49.2809 23.9864 49.3509C23.7164 49.6509 23.4364 49.9209 23.1464 50.2009C22.9964 50.3409 22.8364 50.4809 22.6764 50.6209C22.6264 50.6609 22.5864 50.7009 22.5364 50.7309C22.5364 50.7309 22.5364 50.7309 22.5264 50.7309C21.8964 51.1709 21.2764 51.6609 21.1064 52.4509C20.8864 53.4509 21.4064 54.6109 22.4664 54.8509C23.2864 55.0409 24.2464 54.7009 24.6764 53.9609L24.6864 53.9709Z"
          fill="white"/>
    <path d="M34.1163 60.8009C34.1563 60.5409 34.1863 60.2709 34.2063 60.0109C34.2363 59.6809 34.2463 59.3609 34.2263 59.0309C34.2063 58.7409 34.1863 58.4109 34.1463 58.0909C34.1763 58.0609 34.2163 58.0409 34.2463 58.0109L35.2863 56.9809C35.2863 56.9809 35.3463 56.9009 35.3863 56.8609C39.6863 52.5209 44.0363 48.2209 48.2163 43.7709C48.2863 43.7009 48.3363 43.6409 48.3963 43.5709C48.4663 43.5809 48.5363 43.6009 48.5963 43.6109C49.0363 43.6909 49.4863 43.7209 49.9363 43.7309C50.2863 43.7309 50.6463 43.7309 50.9963 43.7009C51.4463 43.6609 51.9163 43.6509 52.3463 43.5209C53.0963 43.2909 53.5863 42.6009 53.4863 41.8109C53.3963 41.1009 52.7263 40.3709 51.9463 40.4509C51.5563 40.4909 51.1763 40.5809 50.7863 40.6409C50.7763 40.6409 50.7063 40.6509 50.6563 40.6609C50.6263 40.6609 50.6063 40.6609 50.5963 40.6609C50.4563 40.6709 50.3063 40.6909 50.1663 40.6909C49.7163 40.7209 49.2663 40.7009 48.8263 40.6909C48.8163 40.5309 48.8063 40.3709 48.7863 40.2109C48.7363 39.4709 48.6963 38.7509 48.5363 38.0209C48.3763 37.3009 47.2963 37.3309 47.1263 38.0209C46.9163 38.8509 46.8563 39.7009 46.7663 40.5409C46.7563 40.6309 46.7463 40.7309 46.7363 40.8209C46.7363 40.8409 46.7363 40.9009 46.7263 40.9409C46.7263 40.9409 46.7263 40.9409 46.7163 40.9609C46.6563 41.0409 46.6263 41.1409 46.5963 41.2309C46.5463 41.3609 46.5163 41.4909 46.5063 41.6109C46.4263 41.6709 46.3463 41.7309 46.2663 41.8209C41.8163 46.0109 37.5163 50.3509 33.1763 54.6609C33.1363 54.6909 33.0963 54.7209 33.0563 54.7609L32.1663 55.6609C32.0863 55.6609 32.0063 55.6509 31.9063 55.6609C31.4463 55.6909 30.9863 55.7909 30.5263 55.8709C30.1163 55.9409 29.7263 56.0109 29.3263 56.1109C29.1363 56.1609 28.9463 56.2009 28.7663 56.2509C28.6063 56.2909 28.4163 56.3209 28.2763 56.4109C28.2163 56.4609 28.1563 56.5009 28.0863 56.5509C28.0763 56.5509 28.0463 56.5709 28.0063 56.6009C27.2863 57.0009 27.4663 58.0909 28.2263 58.3109C28.2463 58.3109 28.2663 58.3209 28.2763 58.3209C28.2763 58.3209 28.2963 58.3409 28.3963 58.3809C28.5663 58.4509 28.7363 58.4609 28.9263 58.4709C29.1063 58.4709 29.2763 58.4709 29.4563 58.4809C29.8263 58.4809 30.1963 58.4809 30.5663 58.4709C30.7663 58.4609 30.9663 58.4409 31.1763 58.4309C31.1763 58.5009 31.1863 58.5809 31.1963 58.6509C31.2163 58.9609 31.2063 59.2709 31.1963 59.5809C31.1963 59.7409 31.1763 59.9109 31.1663 60.0709C31.1663 60.1209 31.1663 60.1609 31.1563 60.2109C31.1563 60.2109 31.1563 60.2109 31.1563 60.2209C31.0463 60.8009 30.9863 61.4209 31.3263 61.9509C31.7563 62.6209 32.6763 62.9709 33.3963 62.5209C33.9563 62.1709 34.2863 61.4609 34.1163 60.8209V60.8009Z"
          fill="white"/>
    <path d="M29.5463 43.3809C29.8063 43.4209 30.0763 43.4509 30.3363 43.4709C30.6663 43.5009 30.9863 43.5109 31.3163 43.4909C31.6063 43.4709 31.9363 43.4509 32.2563 43.4109C32.2863 43.4409 32.3063 43.4809 32.3363 43.5109L33.3663 44.5509C33.3663 44.5509 33.4463 44.6109 33.4863 44.6509C37.8263 48.9509 42.1263 53.3009 46.5763 57.4809C46.6463 57.5509 46.7063 57.6009 46.7763 57.6609C46.7663 57.7309 46.7463 57.8009 46.7363 57.8609C46.6563 58.3009 46.6263 58.7509 46.6163 59.2009C46.6163 59.5509 46.6163 59.9109 46.6463 60.2609C46.6863 60.7009 46.6963 61.1809 46.8263 61.6109C47.0563 62.3609 47.7463 62.8509 48.5363 62.7509C49.2463 62.6609 49.9763 61.9909 49.8963 61.2109C49.8563 60.8209 49.7663 60.4409 49.7063 60.0509C49.7063 60.0409 49.6963 59.9709 49.6863 59.9209C49.6863 59.8909 49.6863 59.8709 49.6863 59.8609C49.6763 59.7209 49.6563 59.5709 49.6563 59.4309C49.6263 58.9809 49.6463 58.5309 49.6563 58.0909C49.8163 58.0809 49.9763 58.0709 50.1363 58.0509C50.8763 58.0009 51.5963 57.9609 52.3263 57.8009C53.0463 57.6409 53.0163 56.5609 52.3263 56.3909C51.4963 56.1809 50.6463 56.1209 49.8063 56.0309C49.7163 56.0209 49.6163 56.0109 49.5263 56.0009C49.5063 56.0009 49.4463 56.0009 49.4063 55.9909C49.4063 55.9909 49.4063 55.9909 49.3863 55.9809C49.3063 55.9209 49.2063 55.8909 49.1163 55.8609C48.9863 55.8109 48.8563 55.7809 48.7363 55.7709C48.6763 55.6909 48.6163 55.6109 48.5263 55.5309C44.3363 51.0809 39.9963 46.7809 35.6863 42.4409C35.6563 42.4009 35.6263 42.3609 35.5863 42.3209L34.6863 41.4309C34.6863 41.3509 34.6963 41.2709 34.6863 41.1709C34.6563 40.7109 34.5563 40.2509 34.4763 39.7909C34.4063 39.3809 34.3363 38.9909 34.2363 38.5909C34.1863 38.4009 34.1463 38.2109 34.0963 38.0309C34.0563 37.8709 34.0263 37.6809 33.9363 37.5409C33.8863 37.4809 33.8463 37.4209 33.7963 37.3509C33.7963 37.3409 33.7763 37.3109 33.7463 37.2709C33.3463 36.5509 32.2563 36.7309 32.0363 37.4909C32.0363 37.5109 32.0263 37.5309 32.0263 37.5409C32.0263 37.5409 32.0063 37.5609 31.9663 37.6609C31.8963 37.8309 31.8863 38.0009 31.8763 38.1909C31.8763 38.3709 31.8763 38.5409 31.8663 38.7209C31.8663 39.0909 31.8663 39.4609 31.8763 39.8309C31.8863 40.0309 31.9063 40.2309 31.9163 40.4409C31.8463 40.4409 31.7663 40.4509 31.6963 40.4609C31.3863 40.4809 31.0763 40.4709 30.7663 40.4609C30.6063 40.4609 30.4363 40.4409 30.2763 40.4309C30.2263 40.4309 30.1863 40.4309 30.1363 40.4209C30.1363 40.4209 30.1363 40.4209 30.1263 40.4209C29.5463 40.3109 28.9263 40.2509 28.3963 40.5909C27.7263 41.0209 27.3763 41.9409 27.8263 42.6609C28.1763 43.2209 28.8863 43.5509 29.5263 43.3809H29.5463Z"
          fill="white"/>
    <path d="M39.9763 25.2909C37.3763 25.2909 37.3663 29.3409 39.9763 29.3409C42.5763 29.3409 42.5863 25.2909 39.9763 25.2909Z"
          fill="#FF2631"/>
    <path d="M31.2364 34.6109C31.1264 34.2209 30.9264 33.8809 30.6364 33.5909L30.1664 33.2309C29.8064 33.0209 29.4164 32.9209 28.9964 32.9109C28.6764 32.9009 28.3764 32.9609 28.1064 33.1109C27.8164 33.2009 27.5664 33.3609 27.3564 33.5909C27.1264 33.8009 26.9664 34.0509 26.8764 34.3409C26.7264 34.6209 26.6664 34.9109 26.6764 35.2309L26.7564 35.8509C26.8664 36.2409 27.0664 36.5809 27.3564 36.8709L27.8264 37.2309C28.1864 37.4409 28.5764 37.5409 28.9964 37.5509C29.3164 37.5609 29.6164 37.5009 29.8864 37.3509C30.1764 37.2609 30.4264 37.1009 30.6364 36.8709C30.8664 36.6609 31.0264 36.4109 31.1164 36.1209C31.2664 35.8409 31.3264 35.5509 31.3164 35.2309L31.2364 34.6109Z"
          fill="#FF2631"/>
    <path d="M19.8163 48.6909C19.7663 48.6009 19.7163 48.5309 19.6363 48.4609C19.4863 48.2209 19.2763 48.0309 19.0263 47.9009C18.8563 47.8309 18.6763 47.7509 18.5063 47.6809C18.5063 47.6809 18.5063 47.6809 18.4963 47.6809C18.1163 47.5809 17.7263 47.5809 17.3463 47.6809C16.9763 47.7809 16.6563 47.9709 16.3863 48.2409C16.2663 48.3909 16.2063 48.3709 16.0363 48.6909C15.9663 48.8609 15.8863 49.0409 15.8163 49.2109C15.7663 49.4109 15.7363 49.6009 15.7363 49.8009C15.7363 50.1909 15.8363 50.5609 16.0363 50.9009C16.2263 51.2309 16.4963 51.4909 16.8163 51.6809C16.8363 51.6809 16.8463 51.7009 16.8663 51.7109C17.0363 51.7809 17.2063 51.8509 17.3763 51.9209C17.6563 52.0109 17.9363 52.0209 18.2263 51.9609C18.4163 51.9609 18.5963 51.9109 18.7663 51.8109C19.0263 51.7209 19.2563 51.5809 19.4463 51.3709C19.5163 51.3009 19.5763 51.2009 19.6363 51.1309C19.6963 51.0609 19.7663 50.9709 19.8263 50.8909C20.0263 50.5509 20.1263 50.1809 20.1263 49.7909C20.1263 49.4009 20.0263 49.0309 19.8263 48.6909H19.8163Z"
          fill="#FF2631"/>
    <path d="M29.0463 63.0509C28.9663 62.7309 28.8263 62.4509 28.6063 62.2209C28.4363 61.9509 28.2063 61.7409 27.9163 61.5909C27.5363 61.3709 27.1163 61.2609 26.6763 61.2609C26.4563 61.2909 26.2463 61.3209 26.0263 61.3509C25.6063 61.4709 25.2463 61.6809 24.9463 61.9809C24.8163 62.1509 24.6863 62.3109 24.5663 62.4809C24.3463 62.8609 24.2363 63.2709 24.2363 63.7209C24.2363 64.1609 24.3463 64.5809 24.5763 64.9609C24.8663 65.3709 25.0163 65.5809 25.4563 65.8409C25.6463 65.9409 25.8363 66.0209 26.0463 66.0909C26.3763 66.1909 26.6963 66.2109 27.0263 66.1309C27.3563 66.1209 27.6563 66.0209 27.9363 65.8409C28.3063 65.6209 28.5963 65.3309 28.8163 64.9609L29.0663 64.3709C29.1863 63.9409 29.1863 63.5009 29.0663 63.0709L29.0463 63.0509Z"
          fill="#FF2631"/>
    <path d="M42.5263 72.4109C42.5263 72.4109 42.5263 72.4009 42.5263 72.3909C42.4063 71.9709 42.1963 71.6109 41.8863 71.3009C41.5763 70.9909 41.2163 70.7809 40.7963 70.6609C40.7963 70.6609 40.7863 70.6609 40.7763 70.6609C40.6563 70.6409 40.8063 70.6609 40.4363 70.6109C40.2163 70.5509 39.9863 70.5509 39.7663 70.6109C39.4263 70.6309 39.1163 70.7209 38.8263 70.9109C38.6563 71.0409 38.4863 71.1809 38.3163 71.3109C38.0663 71.5409 37.8963 71.8109 37.7963 72.1209C37.7463 72.2209 37.6963 72.3209 37.6663 72.4209C37.6663 72.4209 37.6663 72.4409 37.6663 72.4509C37.5463 72.8909 37.5463 73.3409 37.6663 73.7809C37.7863 74.2009 37.9963 74.5709 38.3063 74.8809C38.6163 75.1909 38.9863 75.4009 39.4063 75.5209C39.8463 75.6409 40.2963 75.6409 40.7363 75.5209C40.7463 75.5209 40.7563 75.5209 40.7663 75.5209C41.1963 75.4409 41.3363 75.2909 41.6263 75.0709C41.8163 74.9609 41.9663 74.8109 42.0763 74.6209C42.1563 74.5409 42.2163 74.4509 42.2763 74.3609C42.3563 74.1609 42.4463 73.9609 42.5263 73.7609C42.5563 73.5409 42.5863 73.3109 42.6163 73.0909C42.6163 72.8609 42.5763 72.6409 42.5263 72.4209V72.4109Z"
          fill="#FF2631"/>
    <path d="M54.4263 62.8109C54.3163 62.6409 54.1863 62.4809 54.0563 62.3309C53.8963 62.2109 53.7363 62.0809 53.5763 61.9609C53.4363 61.8709 53.3363 61.8309 53.2563 61.8009C52.9563 61.6709 52.6263 61.6009 52.2863 61.6009C51.8463 61.6009 51.4363 61.7109 51.0663 61.9309C50.3263 62.3609 49.8663 63.1709 49.8663 64.0309C49.8663 64.8909 50.3263 65.6909 51.0663 66.1309C51.4463 66.3509 51.8563 66.4609 52.2863 66.4609C52.7263 66.4609 53.1363 66.3509 53.5063 66.1309C53.5163 66.1309 53.5263 66.1209 53.5363 66.1109C53.7163 65.9909 53.8963 65.8709 54.0463 65.7209C54.3163 65.4509 54.5763 65.0409 54.6663 64.6609L54.7463 64.0309C54.7463 63.6009 54.6363 63.2009 54.4263 62.8309V62.8109Z"
          fill="#FF2631"/>
    <path d="M65.5163 48.5509C65.5263 48.2009 65.4563 47.8809 65.2963 47.5809C65.1963 47.2709 65.0263 47.0009 64.7763 46.7709C64.5463 46.5309 64.2763 46.3509 63.9663 46.2509C63.6663 46.0909 63.3463 46.0209 62.9963 46.0309C62.7763 46.0609 62.5463 46.0909 62.3263 46.1209C61.8963 46.2409 61.5363 46.4509 61.2163 46.7709C61.0863 46.9409 60.9563 47.1109 60.8263 47.2809C60.7663 47.3909 60.7063 47.5109 60.6663 47.6209C60.5263 47.9409 60.4463 48.2809 60.4463 48.6409C60.4463 48.7809 60.4663 48.9209 60.4863 49.0509C60.4963 49.1509 60.5163 49.2509 60.5463 49.3409C60.5563 49.3809 60.5763 49.4209 60.5863 49.4609C60.6063 49.5209 60.6263 49.5809 60.6563 49.6409C60.6563 49.6409 60.6563 49.6509 60.6563 49.6609C60.7163 49.8609 60.8163 50.0409 60.9663 50.1909C61.1363 50.4509 61.3663 50.6609 61.6463 50.8109C61.6463 50.8109 62.2163 51.0509 62.2263 51.0609C62.4463 51.0909 62.6663 51.1209 62.8863 51.1509C62.8863 51.1509 62.9063 51.1509 62.9163 51.1509C62.9263 51.1509 62.9363 51.1509 62.9563 51.1509H62.9463C63.4063 51.1509 63.8263 51.0309 64.2163 50.8109C64.5963 50.5909 64.8963 50.2809 65.1263 49.9009C65.2163 49.6909 65.3163 49.4909 65.3863 49.2709C65.3863 49.2709 65.3863 49.2509 65.3863 49.2409C65.4263 49.0109 65.4663 48.7809 65.4763 48.5509C65.4763 48.5509 65.4763 48.5309 65.4763 48.5209L65.5163 48.5509Z"
          fill="#FF2631"/>
    <path d="M55.9664 36.5309C55.8864 36.2509 55.7464 36.0109 55.5464 35.8109C55.4364 35.7209 55.3264 35.6409 55.2164 35.5509C54.9564 35.4009 54.6864 35.3309 54.3864 35.3309C54.1564 35.3309 53.9464 35.3709 53.7564 35.4709C53.5564 35.5409 53.3764 35.6509 53.2264 35.8109C53.0664 35.9609 52.9564 36.1409 52.8864 36.3409C52.7864 36.5409 52.7364 36.7509 52.7464 36.9709C52.7664 37.1209 52.7864 37.2609 52.8064 37.4109C52.8864 37.6909 53.0264 37.9309 53.2264 38.1309C53.3364 38.2209 53.4464 38.3009 53.5564 38.3909C53.8164 38.5409 54.0864 38.6109 54.3864 38.6109C54.6164 38.6109 54.8264 38.5709 55.0164 38.4709C55.2164 38.4009 55.3964 38.2909 55.5464 38.1309C55.7064 37.9809 55.8164 37.8009 55.8864 37.6009C55.9864 37.4009 56.0364 37.1909 56.0264 36.9709C56.0064 36.8209 55.9864 36.6809 55.9664 36.5309Z"
          fill="#FF2631"/>
    <path d="M55.1564 23.1209C55.2764 23.1209 55.3664 23.1009 55.3864 23.0809C55.2864 23.1009 55.2064 23.1109 55.1564 23.1209Z"
          fill="#86B7B4"/>
    <path d="M65.1264 31.3409C64.7964 30.1409 63.7264 29.1509 62.8964 28.2509C62.2164 27.5309 61.5064 26.8409 60.7564 26.1909C59.9164 25.4509 59.0364 24.7609 58.1364 24.1009C57.7364 23.8109 57.3464 23.5709 56.8964 23.3609C56.4964 23.1809 56.1564 23.0409 55.6964 23.0609C55.5764 23.0609 55.4664 23.0809 55.3464 23.1009C55.0464 23.1409 54.9864 23.1509 55.1464 23.1209C54.9864 23.1309 54.7964 23.1309 54.7464 23.1409C54.5564 23.1809 54.3664 23.2809 54.1864 23.4009C53.8364 23.5609 53.4964 23.8209 53.4464 24.2209C53.4364 24.3309 53.4264 24.4209 53.4164 24.5109C53.2664 25.0509 53.4864 25.4509 53.6464 25.9709C53.7264 26.2309 53.4764 25.5609 53.5864 25.9009C53.7064 26.2709 53.9064 26.6009 54.1664 26.8909C54.3264 27.0709 54.5164 27.2609 54.6964 27.4209C54.8664 27.5709 55.0564 27.6909 55.2264 27.8309C55.9664 28.4109 56.6764 29.0209 57.3564 29.6709C58.0264 30.3009 58.6564 30.9509 59.2764 31.6309C59.9964 32.4209 60.6464 33.5009 61.5964 34.0309C62.4464 34.5009 63.4864 34.4309 64.2464 33.8409C64.9964 33.2609 65.3564 32.2609 65.0964 31.3309L65.1264 31.3409Z"
          fill="#86B7B4"/>
    <path d="M68.8164 37.2109V37.1709C68.7264 36.8809 68.5864 36.6009 68.4464 36.3209C68.3564 36.1309 68.2464 35.9809 68.1064 35.8109C67.8864 35.5209 67.7864 35.4609 67.4464 35.2109C67.4264 35.2009 67.4064 35.1809 67.3964 35.1709C67.3064 35.1309 67.2264 35.0909 67.1364 35.0609C67.1364 35.0609 67.1264 35.0609 67.1164 35.0609C66.9664 34.9909 66.8064 34.9309 66.6464 34.8909C66.6264 34.8909 66.5964 34.8709 66.5764 34.8609C66.3664 34.7809 66.1364 34.7709 65.9064 34.8009C65.7764 34.8009 65.6464 34.8009 65.5164 34.8309C65.4664 34.8409 65.4164 34.8609 65.3664 34.8909C65.3664 34.8909 65.3564 34.8909 65.3464 34.8909C65.2064 34.9409 65.0764 35.0109 64.9764 35.1109C64.8464 35.2409 64.7764 35.3909 64.7364 35.5509C64.7164 35.6109 64.6964 35.6609 64.6764 35.7209C64.6364 35.8409 64.6064 35.9609 64.5864 36.0909C64.5864 36.1209 64.5664 36.1409 64.5564 36.1709C64.5564 36.2009 64.5464 36.2409 64.5364 36.2809C64.4864 36.4409 64.4664 36.6109 64.4364 36.8009C64.4064 36.9909 64.3964 37.0809 64.4164 37.2409C64.4164 37.3009 64.4164 37.3609 64.4264 37.4209C64.4264 37.5409 64.4264 37.6509 64.4264 37.7709C64.4264 37.7809 64.4264 37.8009 64.4264 37.8109L64.5064 38.4109C64.5064 38.4109 64.5164 38.4609 64.5264 38.4909C64.5364 38.5609 64.5564 38.6209 64.5664 38.6909C64.6364 38.9809 64.7664 39.2309 64.9664 39.4409C65.1264 39.6809 65.3264 39.8709 65.5864 40.0109C65.7664 40.0809 65.9364 40.1609 66.1164 40.2309C66.4064 40.3209 66.7064 40.3409 66.9964 40.2709C67.1964 40.2709 67.3864 40.2209 67.5564 40.1209C67.8264 40.0309 68.0664 39.8809 68.2664 39.6609C68.3864 39.5109 68.4964 39.3609 68.6164 39.2109C68.8164 38.8609 68.9164 38.4909 68.9164 38.0909C68.9164 38.0309 68.9164 37.9609 68.9164 37.9009C68.9164 37.8709 68.9164 37.8309 68.9164 37.8009L68.8364 37.2009L68.8164 37.2109Z"
          fill="#86B7B4"/>
</svg>
