<svg width="96" height="98" viewBox="0 0 96 98" fill="none" xmlns="http://www.w3.org/2000/svg">
<path d="M52.2165 2.01087C51.6865 1.08087 50.8565 0.280865 49.7765 0.0608653C48.6965 -0.159135 47.6065 0.240865 46.7465 0.880865C45.0165 2.18087 44.1165 4.41087 44.0565 6.54087C44.0165 7.76087 44.2765 8.95087 44.7765 10.0609C45.0565 10.6809 45.4165 11.2609 45.7265 11.8709C45.8565 12.1409 45.9665 12.4109 46.0965 12.6809C46.1465 12.7909 46.4465 13.6109 46.5365 13.5409C46.1965 13.7709 46.2965 14.3809 46.7565 14.3509C47.6665 14.3109 47.6865 13.1709 47.6265 12.4809C47.5265 11.4409 46.9165 10.5209 46.4765 9.60087C45.6365 7.85087 45.5465 5.81087 46.4065 4.04087C47.1665 2.48087 49.2965 0.610865 50.6165 2.71087C51.6765 4.39087 51.6165 6.68086 50.5865 8.36086C49.9665 9.39086 49.1265 10.2209 48.8165 11.4209C48.5165 12.5709 48.4465 13.9209 48.9765 15.0009C49.2365 15.5409 50.0265 15.3509 50.1865 14.8409C50.5565 13.6909 50.1865 12.4609 50.6965 11.3409C51.1865 10.2809 52.0665 9.47087 52.5365 8.38087C53.3965 6.36087 53.3265 3.93087 52.2265 2.01087H52.2165Z" fill="#9E6328"/>
<path d="M71.5995 74.0803C84.7016 60.9783 84.7016 39.7356 71.5995 26.6335C58.4974 13.5314 37.2547 13.5314 24.1526 26.6335C11.0505 39.7356 11.0505 60.9782 24.1526 74.0803C37.2547 87.1824 58.4974 87.1824 71.5995 74.0803Z" fill="#F8C223"/>
<path d="M71.5995 74.0803C84.7016 60.9783 84.7016 39.7356 71.5995 26.6335C58.4974 13.5314 37.2547 13.5314 24.1526 26.6335C11.0505 39.7356 11.0505 60.9782 24.1526 74.0803C37.2547 87.1824 58.4974 87.1824 71.5995 74.0803Z" fill="#F8C223"/>
<path d="M55.1464 73.8409C36.6164 73.8409 21.5964 58.8209 21.5964 40.2909C21.5964 35.1909 22.7364 30.3709 24.7664 26.0409C18.3364 32.1509 14.3264 40.7809 14.3264 50.3509C14.3264 68.8809 29.3464 83.9009 47.8764 83.9009C61.3164 83.9009 72.8964 76.0009 78.2564 64.6009C72.2364 70.3209 64.1064 73.8409 55.1464 73.8409Z" fill="#F19F26"/>
<path d="M53.3665 13.7409C53.3165 13.0409 53.2165 12.3109 52.7165 11.7809C52.1365 11.1609 51.2165 11.1309 50.4365 11.0409C48.7365 10.8509 47.0165 10.8909 45.3165 11.0709C44.4065 11.1709 43.3965 11.1609 42.8565 12.0309C42.0365 13.3509 41.8065 16.4209 42.7465 17.7609C43.2565 18.4909 44.1865 18.5309 44.9065 18.0909C45.3465 17.8209 45.6065 17.3309 45.9565 16.9809C46.4865 17.5409 46.8365 18.3309 47.6965 18.3209C48.1665 18.3209 48.6165 18.0509 48.9365 17.7309C49.0565 17.6009 49.1765 17.4109 49.3065 17.2509C50.1865 18.2509 51.6565 19.5409 52.7265 18.4509C53.2565 17.9109 53.2765 17.0409 53.3365 16.3409C53.4065 15.4809 53.4165 14.6109 53.3565 13.7509L53.3665 13.7409Z" fill="#D3A040"/>
<path d="M52.7465 13.8609C52.7365 13.7809 52.7165 13.7009 52.6965 13.6209C52.6365 13.3909 52.5765 13.1609 52.4665 12.9509C52.3965 12.8109 52.3065 12.6709 52.2165 12.5409C52.0865 12.3509 51.9765 12.2009 51.7565 12.1109C51.6765 12.0809 51.5965 12.0509 51.5165 12.0209C51.2765 11.9409 50.9165 12.0709 50.7965 12.3109C50.7465 12.4209 50.6765 12.5309 50.6465 12.6409C50.6065 12.7909 50.6265 12.9209 50.6265 13.0709C50.6265 13.1609 50.6265 13.2409 50.6265 13.3309C50.6265 13.4309 50.6365 13.5309 50.6465 13.6209C50.6565 13.7409 50.6765 13.8509 50.6765 13.9709C50.6765 14.0709 50.6865 14.1709 50.6965 14.2709C50.7265 14.4609 50.8065 14.6209 50.8865 14.7909C50.9365 14.8609 50.9865 14.9209 51.0365 14.9909C51.1065 15.0409 51.1665 15.0909 51.2365 15.1409C51.4265 15.2509 51.6465 15.2909 51.8665 15.2609C52.2465 15.2109 52.5865 14.9309 52.6865 14.5509C52.6965 14.5109 52.7065 14.4809 52.7165 14.4409C52.7665 14.2309 52.7665 14.0509 52.7165 13.8509L52.7465 13.8609Z" fill="#DFC17D"/>
<path d="M52.5065 16.3509C52.5065 16.3509 52.4765 16.2809 52.4665 16.2409C52.4465 16.1809 52.4165 16.1209 52.3965 16.0709C52.3465 15.9909 52.2865 15.9209 52.2065 15.8709C52.1565 15.8209 52.1065 15.7909 52.0465 15.7809C51.9565 15.7309 51.8665 15.7109 51.7665 15.7209C51.7065 15.7209 51.6365 15.7409 51.5765 15.7509C51.5165 15.7709 51.4565 15.8009 51.4065 15.8209C51.3265 15.8709 51.2565 15.9309 51.2065 16.0109C51.1465 16.0809 51.0965 16.1609 51.0765 16.2609C51.0665 16.3009 51.0465 16.3309 51.0365 16.3709C51.0365 16.3709 51.0365 16.3909 51.0365 16.4009C51.0365 16.4709 51.0165 16.5409 51.0065 16.6109C51.0065 16.6109 51.0065 16.6609 51.0065 16.6809V16.8509V16.8709C51.0065 16.9109 51.0065 16.9509 51.0165 16.9909C51.0165 17.0309 51.0165 17.0709 51.0365 17.1109C51.0665 17.1709 51.0865 17.2309 51.1165 17.3009C51.1665 17.3909 51.2365 17.4609 51.3165 17.5209C51.3665 17.5709 51.4265 17.6009 51.4865 17.6209C51.5765 17.6709 51.6765 17.6909 51.7865 17.6909L51.9965 17.6609C52.0565 17.6309 52.1165 17.6109 52.1865 17.5809C52.2765 17.5309 52.3465 17.4609 52.4065 17.3809C52.4765 17.3109 52.5165 17.2209 52.5465 17.1209C52.5765 16.9709 52.5765 16.8409 52.5765 16.6909C52.5765 16.5909 52.5765 16.4809 52.5365 16.3909L52.5065 16.3509Z" fill="#DFC17D"/>
<path d="M44.7264 12.7309V12.7109C44.7264 12.6909 44.7064 12.6609 44.6964 12.6409C44.6764 12.5509 44.6264 12.4809 44.5664 12.4109C44.5064 12.3509 44.4264 12.3009 44.3364 12.2809C44.2464 12.2609 44.1564 12.2609 44.0664 12.2809C43.9764 12.3009 43.9064 12.3509 43.8364 12.4109C43.8164 12.4309 43.7964 12.4409 43.7764 12.4609C43.7464 12.4809 43.7364 12.5009 43.7064 12.5409C43.6464 12.6109 43.6664 12.5909 43.6264 12.6809C43.5964 12.7309 43.5864 12.7709 43.5864 12.8309C43.5864 12.8609 43.5864 12.8909 43.5764 12.9209C43.5764 12.9709 43.5764 13.0309 43.5664 13.0809C43.5664 13.1309 43.5764 13.1809 43.5864 13.2309C43.6064 13.3009 43.6364 13.3709 43.6864 13.4209C43.7064 13.4609 43.7464 13.4909 43.7864 13.5209C43.8364 13.5709 43.9064 13.6009 43.9764 13.6209C44.0264 13.6209 44.0764 13.6309 44.1264 13.6409C44.1764 13.6409 44.2264 13.6309 44.2764 13.6209C44.3464 13.6009 44.4164 13.5709 44.4664 13.5209C44.5264 13.4809 44.5764 13.4309 44.6064 13.3609C44.6264 13.3109 44.6464 13.2609 44.6764 13.2109C44.6964 13.1609 44.7164 13.1209 44.7364 13.0709C44.7364 13.0209 44.7464 12.9709 44.7564 12.9109C44.7564 12.8609 44.7464 12.8109 44.7364 12.7509L44.7264 12.7309Z" fill="#DFC17D"/>
<path d="M81.3465 47.9909C79.0865 50.9709 76.6965 53.8409 74.1765 56.6009C66.0365 65.5109 56.4365 73.5309 45.8065 79.3009C43.4965 80.5509 41.1065 81.6709 38.6565 82.6209C39.4365 82.8409 40.2265 83.0509 41.0265 83.2109C42.1065 82.7609 43.1565 82.2909 44.1965 81.8009C49.9465 79.0909 55.3365 75.6609 60.4065 71.8409C68.2465 65.9509 75.3065 59.0609 81.4065 51.3909C81.4165 51.0409 81.4365 50.7009 81.4365 50.3509C81.4365 49.5509 81.3965 48.7709 81.3465 47.9809V47.9909Z" fill="#FF2631"/>
<path d="M17.5864 35.9009C19.9464 35.8409 22.2964 35.6309 24.6164 35.2209C30.6864 34.1409 36.4264 31.7409 42.0164 29.2209C48.3264 26.3809 54.8064 23.3209 60.5064 19.2709C59.5464 18.8809 58.5664 18.5309 57.5564 18.2309C57.1964 18.4809 56.8464 18.7309 56.4864 18.9709C51.8464 22.0509 46.8264 24.5309 41.8064 26.9109C36.5864 29.3909 31.3064 31.8309 25.6664 33.1809C23.2864 33.7509 20.8664 34.0909 18.4264 34.2709C18.1364 34.8109 17.8564 35.3509 17.5864 35.9109V35.9009Z" fill="#FF2631"/>
<path d="M25.6965 50.8809C22.0265 52.0409 18.2865 53.0409 14.4965 53.6909C14.5465 54.1709 14.6065 54.6409 14.6765 55.1209C17.8265 54.6909 20.9365 54.0009 24.0065 53.1609C30.3165 51.4309 36.4765 49.1109 42.3665 46.2709C52.9465 41.1709 62.6664 34.3109 71.0464 26.0909C70.5064 25.5709 69.9465 25.0609 69.3665 24.5809C66.2165 27.6909 62.8765 30.6109 59.3665 33.2909C49.2565 41.0109 37.8365 47.0509 25.6965 50.8809Z" fill="#FF2631"/>
<path d="M31.5964 70.8109C37.7264 68.1209 43.6264 64.8409 49.2264 61.1809C59.9964 54.1409 69.7964 45.4809 77.9864 35.5409C77.6564 34.8709 77.3064 34.2209 76.9364 33.5909C73.3364 38.0209 69.4664 42.2209 65.3164 46.1409C55.8164 55.0809 44.9564 62.5509 33.1964 68.2109C29.8064 69.8409 26.3764 71.3609 22.8664 72.7009C22.8664 72.7009 22.8564 72.7009 22.8464 72.7009C23.2064 73.1009 23.5764 73.5009 23.9564 73.8809C26.5464 72.9609 29.0864 71.9209 31.5964 70.8209V70.8109Z" fill="#FF2631"/>
<path d="M79.6464 61.1409C76.5364 64.1109 73.3364 66.9809 70.1564 69.8709C66.5164 73.1809 62.9264 76.5609 59.2464 79.8309C58.0264 80.9109 56.7964 81.9709 55.5364 83.0109C56.4664 82.7909 57.3764 82.5409 58.2664 82.2509C58.3464 82.1809 58.4364 82.1209 58.5164 82.0509C62.4364 78.9009 66.1964 75.5609 69.9564 72.2109C72.6064 69.8509 75.3364 67.5209 78.0064 65.1109C78.6364 63.8309 79.1864 62.5009 79.6464 61.1309V61.1409Z" fill="white"/>
<path d="M37.9764 39.6909C48.2264 35.3909 57.7764 29.5009 66.2064 22.2409C65.7864 21.9609 65.3564 21.7009 64.9164 21.4409C61.4664 24.4109 57.8364 27.1609 54.0264 29.6509C44.7164 35.7409 34.4864 40.3909 23.7464 43.3109C20.7564 44.1209 17.7464 44.7709 14.7064 45.3009C14.6464 45.7009 14.5964 46.0909 14.5564 46.4909C22.6064 45.2009 30.5264 42.8109 37.9764 39.6909Z" fill="white"/>
<path d="M29.3664 60.5108C34.9964 58.5508 40.5064 56.2008 45.7564 53.3808C55.4364 48.1808 64.3064 41.3208 71.3164 32.8208C72.2564 31.6808 73.1564 30.5208 74.0264 29.3308C73.7164 28.9408 73.3864 28.5608 73.0564 28.1808C72.5164 28.9608 71.9664 29.7308 71.3864 30.4808C68.1564 34.6408 64.4664 38.4508 60.4664 41.8708C51.8064 49.2708 41.6364 54.7708 30.9964 58.7408C26.3664 60.4708 21.6264 61.8308 16.8964 63.2208C17.0064 63.4808 17.1164 63.7309 17.2364 63.9908C21.3564 63.1108 25.4164 61.8908 29.3864 60.5108H29.3664Z" fill="white"/>
<path d="M40.6663 76.9209C46.0663 74.0509 51.2863 70.8409 56.2463 67.2709C65.5663 60.5509 73.9763 52.4909 80.6363 43.1009C80.4863 42.4409 80.3263 41.7809 80.1363 41.1309C77.1563 45.4709 73.8163 49.5709 70.1963 53.3909C62.0063 62.0209 52.3763 69.1609 42.0263 74.9909C39.0663 76.6609 36.0463 78.2209 32.9863 79.6809C32.7363 79.8009 32.4863 79.9109 32.2363 80.0309C32.5863 80.2209 32.9363 80.4009 33.2963 80.5709C35.7863 79.4109 38.2463 78.2009 40.6763 76.9109L40.6663 76.9209Z" fill="white"/>
</svg>
