<svg width="81" height="91" viewBox="0 0 81 91" fill="none" xmlns="http://www.w3.org/2000/svg">
<path d="M44.6463 2.16089C44.1163 1.23089 43.2863 0.43089 42.2063 0.21089C41.1263 -0.00911029 40.0363 0.390889 39.1763 1.03089C37.4463 2.33089 36.5463 4.56089 36.4863 6.69089C36.4463 7.91089 36.7063 9.10089 37.2063 10.2109C37.4863 10.8309 37.8463 11.4109 38.1563 12.0209C38.2863 12.2909 38.3963 12.5609 38.5263 12.8309C38.5763 12.9409 38.8763 13.7609 38.9663 13.6909C38.6263 13.9209 38.7263 14.5309 39.1863 14.5009C40.0963 14.4609 40.1163 13.3209 40.0563 12.6309C39.9563 11.5909 39.3463 10.6709 38.9063 9.75089C38.0663 8.00089 37.9763 5.96089 38.8363 4.19089C39.5963 2.63089 41.7263 0.760891 43.0463 2.86089C44.1063 4.54089 44.0463 6.83089 43.0163 8.51089C42.3963 9.54089 41.5563 10.3709 41.2463 11.5709C40.9463 12.7209 40.8763 14.0709 41.4063 15.1509C41.6663 15.6909 42.4563 15.5009 42.6163 14.9909C42.9863 13.8409 42.6163 12.6109 43.1263 11.4909C43.6163 10.4309 44.4963 9.62089 44.9663 8.53089C45.8263 6.51089 45.7563 4.08089 44.6563 2.16089H44.6463Z" fill="#9E6328"/>
<path d="M72.9788 58.1388C77.1973 40.0963 65.9908 22.0501 47.9482 17.8315C29.9057 13.613 11.8595 24.8195 7.64093 42.8621C3.42238 60.9046 14.6289 78.9508 32.6715 83.1694C50.714 87.3879 68.7602 76.1814 72.9788 58.1388Z" fill="#6AA69E"/>
<path d="M47.8564 72.7409C29.3264 72.7409 14.3064 57.7209 14.3064 39.1909C14.3064 34.7509 15.1764 30.5109 16.7464 26.6309C10.5864 32.7109 6.76636 41.1609 6.76636 50.5009C6.76636 69.0309 21.7864 84.0509 40.3164 84.0509C54.4064 84.0509 66.4564 75.3609 71.4364 63.0509C65.3764 69.0309 57.0564 72.7309 47.8664 72.7309L47.8564 72.7409Z" fill="#478884"/>
<path d="M45.7963 13.8909C45.7463 13.1909 45.6463 12.4609 45.1463 11.9309C44.5663 11.3109 43.6463 11.2809 42.8663 11.1909C41.1663 11.0009 39.4463 11.0409 37.7463 11.2209C36.8363 11.3209 35.8263 11.3109 35.2863 12.1809C34.4663 13.5009 34.2363 16.5709 35.1763 17.9109C35.6863 18.6409 36.6163 18.6709 37.3363 18.2409C37.7763 17.9709 38.0363 17.4809 38.3863 17.1309C38.9163 17.6909 39.2663 18.4809 40.1263 18.4709C40.5963 18.4709 41.0463 18.2009 41.3663 17.8809C41.4863 17.7509 41.6063 17.5609 41.7363 17.4009C42.6163 18.4009 44.0863 19.6909 45.1563 18.6009C45.6863 18.0609 45.7063 17.1909 45.7663 16.4909C45.8363 15.6309 45.8463 14.7609 45.7863 13.9009L45.7963 13.8909Z" fill="#D3A040"/>
<path d="M45.1763 14.0109C45.1663 13.9309 45.1463 13.8509 45.1263 13.7709C45.0663 13.5409 45.0063 13.3109 44.8963 13.1009C44.8263 12.9609 44.7363 12.8209 44.6463 12.6909C44.5163 12.5009 44.4063 12.3509 44.1863 12.2609C44.1063 12.2309 44.0263 12.2009 43.9463 12.1709C43.7063 12.0909 43.3463 12.2209 43.2263 12.4609C43.1763 12.5709 43.1063 12.6809 43.0763 12.7909C43.0363 12.9409 43.0563 13.0709 43.0563 13.2209C43.0563 13.3109 43.0563 13.3909 43.0563 13.4809C43.0563 13.5809 43.0663 13.6809 43.0763 13.7709C43.0863 13.8909 43.1063 14.0009 43.1063 14.1209C43.1063 14.2209 43.1163 14.3209 43.1263 14.4209C43.1563 14.6109 43.2363 14.7709 43.3163 14.9409C43.3663 15.0109 43.4163 15.0709 43.4663 15.1409C43.5363 15.1909 43.5963 15.2409 43.6663 15.2909C43.8563 15.4009 44.0763 15.4409 44.2963 15.4109C44.6763 15.3609 45.0163 15.0809 45.1163 14.7009C45.1263 14.6609 45.1363 14.6309 45.1463 14.5909C45.1963 14.3809 45.1963 14.2109 45.1463 14.0009L45.1763 14.0109Z" fill="#DFC17D"/>
<path d="M44.9363 16.5009C44.9363 16.5009 44.9063 16.4309 44.8963 16.3909C44.8763 16.3309 44.8463 16.2709 44.8263 16.2209C44.7763 16.1409 44.7163 16.0709 44.6363 16.0209C44.5863 15.9709 44.5363 15.9409 44.4763 15.9309C44.3863 15.8809 44.2963 15.8609 44.1963 15.8709C44.1363 15.8709 44.0663 15.8909 44.0063 15.9009C43.9463 15.9209 43.8863 15.9509 43.8363 15.9709C43.7563 16.0209 43.6863 16.0809 43.6363 16.1609C43.5763 16.2309 43.5263 16.3109 43.5063 16.4109C43.4963 16.4509 43.4763 16.4809 43.4663 16.5209C43.4663 16.5209 43.4663 16.5409 43.4663 16.5509C43.4663 16.6209 43.4463 16.6909 43.4363 16.7609C43.4363 16.7609 43.4363 16.8109 43.4363 16.8309V17.0009V17.0209C43.4363 17.0609 43.4363 17.1009 43.4463 17.1409C43.4463 17.1809 43.4463 17.2209 43.4663 17.2609C43.4963 17.3209 43.5163 17.3809 43.5463 17.4509C43.5963 17.5409 43.6663 17.6109 43.7463 17.6709C43.7963 17.7209 43.8563 17.7509 43.9163 17.7709C44.0063 17.8209 44.1063 17.8409 44.2163 17.8409L44.4263 17.8109C44.4863 17.7809 44.5463 17.7609 44.6163 17.7309C44.7063 17.6809 44.7763 17.6109 44.8363 17.5309C44.9063 17.4609 44.9463 17.3709 44.9763 17.2709C45.0063 17.1209 45.0063 16.9909 45.0063 16.8409C45.0063 16.7409 45.0063 16.6309 44.9663 16.5409L44.9363 16.5009Z" fill="#DFC17D"/>
<path d="M37.1563 12.8909V12.8709C37.1563 12.8509 37.1363 12.8209 37.1263 12.8009C37.1063 12.7109 37.0563 12.6409 36.9963 12.5709C36.9363 12.5109 36.8563 12.4609 36.7663 12.4409C36.6763 12.4209 36.5863 12.4209 36.4963 12.4409C36.4063 12.4609 36.3363 12.5109 36.2663 12.5709C36.2463 12.5909 36.2263 12.6009 36.2063 12.6209C36.1763 12.6409 36.1663 12.6609 36.1363 12.7009C36.0763 12.7709 36.0963 12.7509 36.0563 12.8409C36.0263 12.8909 36.0163 12.9309 36.0163 12.9909C36.0163 13.0209 36.0163 13.0509 36.0063 13.0809C36.0063 13.1309 36.0063 13.1909 35.9963 13.2409C35.9963 13.2909 36.0063 13.3409 36.0163 13.3909C36.0363 13.4609 36.0663 13.5309 36.1163 13.5809C36.1363 13.6209 36.1763 13.6509 36.2163 13.6809C36.2663 13.7309 36.3363 13.7609 36.4063 13.7809C36.4563 13.7809 36.5063 13.7909 36.5563 13.8009C36.6063 13.8009 36.6563 13.7909 36.7063 13.7809C36.7763 13.7609 36.8463 13.7309 36.8963 13.6809C36.9563 13.6409 37.0063 13.5909 37.0363 13.5209C37.0563 13.4709 37.0763 13.4209 37.1063 13.3709C37.1263 13.3209 37.1463 13.2809 37.1663 13.2309C37.1663 13.1809 37.1763 13.1309 37.1863 13.0709C37.1863 13.0209 37.1763 12.9709 37.1663 12.9109L37.1563 12.8909Z" fill="#DFC17D"/>
<path d="M62.9463 48.5509C60.7863 47.5709 58.6063 46.6109 56.4263 45.6809C55.5463 45.3009 54.6563 44.9209 53.7663 44.5609C54.3063 43.4009 54.8363 42.2409 55.3463 41.0709C56.3163 38.8309 57.4363 36.4309 56.7563 33.9409C56.6163 33.4109 55.9663 32.9409 55.4063 33.1509C53.1863 33.9909 50.9663 34.8509 48.7663 35.7309C47.8763 36.0909 46.9763 36.4409 46.0963 36.8209C45.6663 35.6209 45.2163 34.4209 44.7463 33.2309C43.8563 30.9609 42.9363 28.4709 40.7063 27.1909C40.2263 26.9209 39.4363 27.0409 39.1863 27.5909C38.2063 29.7509 37.2463 31.9309 36.3163 34.1109C35.9363 34.9909 35.5563 35.8809 35.1963 36.7709C34.0363 36.2309 32.8763 35.7009 31.7063 35.1909C29.4663 34.2209 27.0663 33.1009 24.5763 33.7809C24.0463 33.9209 23.5763 34.5709 23.7863 35.1309C24.6263 37.3509 25.4863 39.5709 26.3663 41.7709C26.7263 42.6609 27.0763 43.5609 27.4563 44.4409C26.2563 44.8709 25.0563 45.3209 23.8663 45.7909C21.5963 46.6809 19.1063 47.6009 17.8263 49.8309C17.5563 50.3109 17.6763 51.1009 18.2263 51.3509C20.3863 52.3309 22.5663 53.2909 24.7463 54.2209C25.6263 54.6009 26.5163 54.9809 27.4063 55.3409C26.8663 56.5009 26.3363 57.6609 25.8263 58.8309C24.8563 61.0709 23.7363 63.4709 24.4163 65.9609C24.5563 66.4909 25.2063 66.9609 25.7663 66.7509C27.9863 65.9109 30.2063 65.0509 32.4063 64.1709C33.2963 63.8109 34.1963 63.4609 35.0763 63.0809C35.5063 64.2809 35.9563 65.4809 36.4263 66.6709C37.3163 68.9409 38.2363 71.4309 40.4663 72.7109C40.9463 72.9809 41.7363 72.8609 41.9863 72.3109C42.9663 70.1509 43.9263 67.9709 44.8563 65.7909C45.2363 64.9109 45.6163 64.0209 45.9763 63.1309C47.1363 63.6709 48.2963 64.2009 49.4663 64.7109C51.7063 65.6809 54.1063 66.8009 56.5963 66.1209C57.1263 65.9809 57.5963 65.3309 57.3863 64.7709C56.5463 62.5509 55.6863 60.3309 54.8063 58.1309C54.4463 57.2409 54.0963 56.3409 53.7163 55.4609C54.9163 55.0309 56.1163 54.5809 57.3063 54.1109C59.5763 53.2209 62.0663 52.3009 63.3463 50.0709C63.6163 49.5909 63.4963 48.8009 62.9463 48.5509Z" fill="#FF2631"/>
<path d="M52.3064 49.2109C51.1764 48.7009 50.0364 48.1909 48.8864 47.7009C48.4264 47.5009 47.9564 47.3009 47.4964 47.1109C47.7764 46.5009 48.0564 45.8909 48.3264 45.2809C48.8364 44.1109 49.4164 42.8509 49.0664 41.5409C48.9864 41.2609 48.6564 41.0109 48.3564 41.1309C47.1964 41.5709 46.0264 42.0209 44.8764 42.4809C44.4064 42.6709 43.9364 42.8509 43.4764 43.0509C43.2464 42.4209 43.0164 41.7909 42.7664 41.1709C42.2964 39.9809 41.8164 38.6709 40.6464 38.0009C40.3964 37.8609 39.9864 37.9209 39.8564 38.2109C39.3464 39.3409 38.8364 40.4809 38.3464 41.6309C38.1464 42.0909 37.9464 42.5609 37.7564 43.0209C37.1464 42.7409 36.5364 42.4609 35.9264 42.1909C34.7564 41.6809 33.4964 41.1009 32.1864 41.4509C31.9064 41.5309 31.6564 41.8609 31.7764 42.1609C32.2164 43.3209 32.6664 44.4909 33.1264 45.6409C33.3164 46.1109 33.4964 46.5809 33.6964 47.0409C33.0664 47.2709 32.4364 47.5009 31.8164 47.7509C30.6264 48.2209 29.3164 48.7009 28.6464 49.8709C28.5064 50.1209 28.5664 50.5309 28.8564 50.6609C29.9864 51.1709 31.1264 51.6809 32.2764 52.1709C32.7364 52.3709 33.2064 52.5709 33.6664 52.7609C33.3864 53.3709 33.1064 53.9809 32.8364 54.5909C32.3264 55.7609 31.7464 57.0209 32.0964 58.3309C32.1764 58.6109 32.5064 58.8609 32.8064 58.7409C33.9664 58.3009 35.1364 57.8509 36.2864 57.3909C36.7564 57.2009 37.2264 57.0209 37.6864 56.8209C37.9164 57.4509 38.1464 58.0809 38.3964 58.7009C38.8664 59.8909 39.3464 61.2009 40.5164 61.8709C40.7664 62.0109 41.1764 61.9509 41.3064 61.6609C41.8164 60.5309 42.3264 59.3909 42.8164 58.2409C43.0164 57.7809 43.2164 57.3109 43.4064 56.8509C44.0164 57.1309 44.6264 57.4109 45.2364 57.6809C46.4064 58.1909 47.6664 58.7709 48.9764 58.4209C49.2564 58.3409 49.5064 58.0109 49.3864 57.7109C48.9464 56.5509 48.4964 55.3809 48.0364 54.2309C47.8464 53.7609 47.6664 53.2909 47.4664 52.8309C48.0964 52.6009 48.7264 52.3709 49.3464 52.1209C50.5364 51.6509 51.8464 51.1709 52.5164 50.0009C52.6564 49.7509 52.5964 49.3409 52.3064 49.2109Z" fill="#F8C223"/>
<path d="M31.8964 28.6809C31.8964 28.6809 31.8964 28.7009 31.8864 28.7109C31.8864 28.7009 31.9064 28.6909 31.9164 28.6809C31.9164 28.6709 31.9164 28.6609 31.9264 28.6509C31.9264 28.6609 31.9064 28.6709 31.8964 28.6809Z" fill="white"/>
<path d="M31.8963 28.6809C31.9463 28.5809 31.9863 28.4909 32.0263 28.3909C31.9863 28.4809 31.9563 28.5609 31.9163 28.6509C32.0063 28.5009 32.0663 28.3509 32.1063 28.1809C32.1863 27.8309 32.1563 27.4909 32.0863 27.1409C32.0163 26.8009 31.9263 26.4709 31.7463 26.1709C31.4663 25.6709 31.0963 25.2109 30.7163 24.7809C30.3563 24.3809 29.8763 24.0609 29.3463 23.9809C28.9363 23.9309 28.5663 24.0009 28.2063 24.2009C27.6863 24.4909 27.4563 25.0509 27.4163 25.6109C27.3663 26.4509 28.0463 27.0009 28.5463 27.5909C29.0263 28.2609 29.5163 29.0609 30.3163 29.2909C30.5663 29.4009 30.8663 29.4509 31.1163 29.3709C31.3863 29.2809 31.6963 29.1109 31.8063 28.8409C31.8263 28.8009 31.8463 28.7609 31.8663 28.7109C31.8063 28.7909 31.7463 28.8709 31.6763 28.9509C31.7563 28.8709 31.8163 28.7709 31.8763 28.6809H31.8963Z" fill="white"/>
<path d="M20.9863 38.2509C20.9863 38.2509 20.9663 38.2209 20.9563 38.2009C20.9363 38.1609 20.9063 38.1209 20.8863 38.0809C20.8063 37.8709 20.6763 37.6709 20.5063 37.5209C20.3163 37.3609 20.1063 37.2009 19.9063 37.0609C19.6763 36.8909 19.4463 36.7309 19.1863 36.6109C18.9263 36.5009 18.6663 36.3809 18.3963 36.2709C18.1463 36.1609 17.9263 36.0609 17.6563 36.0209C17.5063 36.0009 17.4063 35.9809 17.2663 35.9909C16.9563 36.0009 16.5963 36.0609 16.3363 36.2309C16.1363 36.3609 15.9963 36.5009 15.8563 36.6709C15.6163 36.9809 15.5063 37.2809 15.4963 37.7009C15.4763 38.2209 15.7763 38.7309 16.1463 39.0609C16.5663 39.4409 17.1363 39.6009 17.6663 39.8009C17.9663 39.9209 18.2563 39.9809 18.5663 40.0409C18.8263 40.0809 19.1163 40.1209 19.3863 40.1409C19.6263 40.1609 19.8663 40.1109 20.0863 40.0209C20.1463 40.0109 20.1963 39.9909 20.2563 39.9709C20.2763 39.9709 20.2863 39.9709 20.3063 39.9609C21.0263 39.7609 21.3763 38.9009 20.9963 38.2509H20.9863Z" fill="white"/>
<path d="M15.8563 36.6709C15.8863 36.6309 15.9163 36.5909 15.9463 36.5509C15.9163 36.5909 15.8863 36.6309 15.8463 36.6709H15.8563Z" fill="white"/>
<path d="M15.8563 36.6709C15.8063 36.7309 15.7663 36.7909 15.7163 36.8609C15.7663 36.8009 15.8163 36.7409 15.8563 36.6709Z" fill="white"/>
<path d="M18.3163 59.6409C18.3163 59.2209 18.0563 58.8209 17.6563 58.6809C17.6163 58.6609 17.5963 58.6309 17.5563 58.6209C17.4563 58.5809 17.3963 58.5609 17.3063 58.5309C17.3263 58.5309 17.3563 58.5509 17.3763 58.5609C17.2063 58.5009 17.0363 58.4609 16.8363 58.4709C16.7663 58.4709 16.7063 58.4709 16.6363 58.4709C16.3663 58.4709 16.1163 58.4909 15.8463 58.5409C15.7163 58.5709 15.5763 58.5909 15.4463 58.6109C15.2963 58.6409 15.1563 58.7109 15.0163 58.7609C14.6263 58.8909 14.2363 59.1409 14.0363 59.5209L13.8663 59.9109C13.7963 60.1309 13.7863 60.3509 13.8363 60.5709C13.8863 60.9109 14.0263 61.2709 14.2863 61.5109C14.5863 61.7909 15.0263 62.0309 15.4463 61.9909C15.7363 61.9609 16.0363 61.9509 16.3163 61.8709C16.5063 61.8209 16.6863 61.7209 16.8663 61.6309C16.9363 61.6009 17.0063 61.5609 17.0763 61.5309C17.3063 61.4109 17.5063 61.2209 17.6963 61.0309C17.7463 60.9809 17.7963 60.9209 17.8463 60.8709C17.9363 60.7709 18.0263 60.6609 18.0963 60.5509C18.2463 60.3209 18.1963 60.3109 18.2563 60.1609C18.2163 60.2709 18.1663 60.3709 18.1263 60.4809C18.2463 60.2109 18.3563 59.9309 18.3263 59.6409H18.3163Z" fill="white"/>
<path d="M30.9263 70.9109C30.9263 70.9609 30.9363 71.0209 30.9463 71.0709C30.9463 71.0409 30.9463 71.0009 30.9463 70.9709C30.9463 70.8909 30.9463 70.8009 30.9163 70.7209C30.8863 70.6109 30.7863 70.3609 30.6663 70.3109C30.4963 70.2409 30.3463 70.1609 30.1463 70.1709H30.0563C30.1163 70.1909 30.1663 70.2009 30.2263 70.2109C29.8363 70.1309 29.5463 70.2409 29.2063 70.4109C28.8563 70.5909 28.4763 70.8709 28.1863 71.1309C27.9463 71.3509 27.7063 71.5809 27.4963 71.8209L27.1763 72.1909C27.0663 72.3209 26.9263 72.4609 26.8463 72.6009C26.7363 72.7909 26.6863 72.9909 26.6763 73.2009C26.6163 73.4109 26.5563 73.6109 26.5563 73.8309C26.5563 74.3409 27.0363 74.9309 27.5863 74.8609C27.7763 74.8409 27.9163 74.8209 28.0863 74.7509C28.1263 74.7309 28.1763 74.7109 28.2163 74.7009C28.7963 74.6509 29.1863 74.1409 29.5663 73.7309C29.8463 73.4309 30.1163 73.0809 30.3463 72.7409C30.5663 72.4209 30.7363 72.0409 30.8763 71.6809C30.9363 71.5209 30.9763 71.4109 30.9763 71.2309C30.9863 71.1209 30.9763 71.0209 30.9463 70.9109H30.9263Z" fill="white"/>
<path d="M52.2363 75.1909C52.1863 75.0309 52.1163 74.8709 52.0463 74.7109C51.8863 74.3209 51.7363 73.9509 51.4963 73.6109C51.2763 73.3009 51.0463 72.9709 50.7663 72.7109C50.6363 72.6009 50.5163 72.4909 50.3863 72.3809C50.2263 72.2509 50.0663 72.0909 49.8863 72.0009C49.6363 71.8709 49.3563 71.8809 49.1363 72.0509C48.9063 72.2309 48.8463 72.4909 48.8963 72.7609C48.9263 72.9509 49.0263 73.1409 49.0763 73.3309C49.1563 73.5909 49.2263 73.8409 49.3363 74.1009C49.3063 74.0209 49.2663 73.9409 49.2363 73.8609C49.3363 74.1109 49.4263 74.3509 49.5063 74.6109C49.5963 74.8909 49.7263 75.1609 49.8463 75.4409C49.8963 75.5509 49.9363 75.6709 49.9863 75.7809C50.0663 76.0109 50.1663 76.2209 50.3363 76.4009C50.3963 76.4609 50.4563 76.5109 50.5163 76.5609C50.7363 76.7409 50.9563 76.8509 51.2363 76.8609C51.5563 76.8709 51.8563 76.7009 52.0363 76.4609C52.1263 76.3509 52.1763 76.2309 52.2163 76.1009C52.2163 76.1009 52.2163 76.1009 52.2163 76.1109C52.2863 75.8109 52.3363 75.4909 52.2363 75.1909Z" fill="white"/>
<path d="M64.8064 63.2109C64.7164 62.7209 64.3164 62.3609 63.9164 62.1109C63.7664 62.0109 63.6164 61.9009 63.4464 61.8209C63.0364 61.6309 62.6364 61.4209 62.2164 61.2609C61.9064 61.1409 61.5964 61.0309 61.2864 60.9309C61.0564 60.8509 60.8364 60.7709 60.5964 60.7709C60.5264 60.7709 60.4564 60.7709 60.3864 60.7709C60.3264 60.7709 60.2664 60.7809 60.2064 60.7909C60.1464 60.7909 60.0764 60.8109 60.0264 60.8409C59.9264 60.8909 59.9164 60.8909 59.9964 60.8409C59.6864 60.9009 59.5464 61.2509 59.6064 61.5309C59.5764 61.3909 59.6064 61.6809 59.6064 61.6809C59.6064 61.7109 59.6264 61.7409 59.6364 61.7709C59.6564 61.8309 59.6764 61.8909 59.7064 61.9609C59.8164 62.2509 60.0164 62.4709 60.2164 62.7009C60.4464 62.9609 60.6764 63.2309 60.9164 63.4809C61.1464 63.7209 61.4164 63.9409 61.6664 64.1709C61.8864 64.3609 62.1264 64.5209 62.3664 64.6909C62.5264 64.8009 62.7064 64.8809 62.8864 64.9509C63.1864 65.0509 63.4964 65.0309 63.7964 64.9709C64.1164 64.9009 64.4964 64.6009 64.6564 64.3109C64.8464 63.9509 64.8764 63.6009 64.7964 63.2109H64.8064Z" fill="white"/>
<path d="M53.0063 27.0509C53.2063 26.6109 53.3263 26.2109 53.3563 25.7209C53.3763 25.4209 53.2363 25.0909 53.0663 24.8409C52.7163 24.3509 52.1963 24.1009 51.5963 24.2609H51.6063C51.4863 24.2909 51.3863 24.3409 51.2963 24.4109C51.2363 24.4609 51.1263 24.5409 51.0863 24.5909C50.9663 24.7109 50.9163 24.8109 50.8363 24.9309C50.7863 25.0209 50.7563 25.0809 50.7063 25.1909C50.6663 25.2909 50.6363 25.3909 50.6263 25.4809C50.6263 25.4709 50.6263 25.4609 50.6263 25.4509C50.6063 25.5809 50.5763 25.7109 50.5363 25.8309C50.3663 26.1509 50.1063 26.4209 49.9563 26.7509C49.8363 27.0109 49.7063 27.2909 49.6263 27.5809C49.5263 27.9509 49.5563 28.3409 49.6463 28.7109C49.8563 29.6209 51.1763 29.7609 51.6263 28.9709C51.6263 28.9609 51.6963 28.8709 51.7063 28.8409C51.7463 28.7909 51.7863 28.7409 51.8163 28.6909C52.2263 28.1609 52.7263 27.6709 52.9963 27.0509H53.0063Z" fill="white"/>
<path d="M61.6664 36.7409C61.6664 36.7409 61.6664 36.7409 61.6664 36.7309C61.7064 36.8209 61.7264 36.8909 61.7464 36.9209C61.7364 36.8909 61.7264 36.8609 61.7064 36.8209C61.6964 36.7909 61.6864 36.7609 61.6664 36.7309V36.7409Z" fill="#86B7B4"/>
<path d="M67.7363 38.5409C67.6863 38.3209 67.6163 38.1009 67.5563 37.8809C67.4263 37.4209 67.2463 36.9709 67.0663 36.5309C66.6563 35.5109 66.2163 34.5009 65.6663 33.5409C65.1463 32.6509 64.5263 31.7909 63.8163 31.0309C63.4263 30.6109 62.9363 30.1009 62.4263 29.8309C62.1163 29.6609 61.7563 29.5309 61.4063 29.4309C60.8463 29.2709 60.3563 29.3409 59.8963 29.5509C59.1863 29.7709 58.7963 30.3209 58.6763 30.9709V30.8609C58.1563 32.3409 59.5063 33.4809 60.3763 34.4609C60.3963 34.4909 60.4163 34.5109 60.4363 34.5409C60.5663 34.7209 60.6863 34.9009 60.7963 35.0809C61.0163 35.4409 61.2163 35.8009 61.4063 36.1809C61.4963 36.3609 61.5763 36.5409 61.6563 36.7109C61.6363 36.6609 61.6163 36.6209 61.5963 36.5509C61.6263 36.6309 61.6663 36.7209 61.6963 36.8009C61.7463 36.9109 61.7863 37.0209 61.7363 36.9009C61.8763 37.2709 62.0163 37.6409 62.1463 38.0109C62.2863 38.4209 62.3963 38.8409 62.5463 39.2409C62.6263 39.4509 62.6963 39.6709 62.7763 39.8809C63.1163 40.7709 63.6963 41.4309 64.6463 41.7009C65.4263 41.9209 66.4963 41.7209 67.0363 41.0709C67.6663 40.3109 67.9563 39.5109 67.7363 38.5209V38.5409Z" fill="#86B7B4"/>
<path d="M70.6164 47.2409C70.5764 47.0309 70.5464 46.8109 70.4964 46.6009C70.4064 46.2109 70.2564 45.7509 70.0564 45.4309C70.0264 45.3909 70.0064 45.3409 69.9764 45.3009C69.8464 45.1409 69.7264 44.9709 69.5964 44.8109C69.5064 44.7309 69.4164 44.6609 69.3164 44.5909C69.2064 44.5109 69.1064 44.4209 68.9964 44.3509C68.7764 44.2109 68.5864 44.1409 68.3764 44.1009H68.3564C67.9764 44.0009 67.5964 44.0009 67.2164 44.1009C67.0064 44.1609 66.8164 44.2509 66.6364 44.3709C66.5064 44.4509 66.3864 44.5409 66.2864 44.6409C66.2864 44.6409 66.2764 44.6409 66.2664 44.6509L66.2464 44.6709C66.0964 44.8209 65.9564 44.9909 65.8364 45.1709C65.8164 45.2009 65.7864 45.2409 65.7764 45.2709C65.5264 45.7309 65.4964 45.9509 65.4364 46.4209C65.4064 46.6409 65.3864 46.7109 65.4064 46.8909C65.4064 46.9409 65.4064 47.0009 65.4164 47.0509C65.4364 47.3809 65.4864 47.7009 65.5364 48.0309C65.5064 47.8009 65.4764 47.5709 65.4464 47.3409C65.4764 47.5509 65.4964 47.7509 65.5164 47.9609C65.5464 48.2809 65.5764 48.5809 65.6664 48.8909C65.7364 49.1409 65.8264 49.3809 65.9664 49.6009C66.2064 49.9709 66.5164 50.3109 66.9064 50.5309C67.1064 50.6109 67.3064 50.7009 67.5064 50.7809C67.8364 50.8809 68.1764 50.9009 68.5064 50.8209C68.7364 50.8209 68.9464 50.7609 69.1364 50.6509C69.4464 50.5509 69.7164 50.3809 69.9464 50.1309C70.2764 49.8309 70.4864 49.4009 70.6264 48.9809C70.7064 48.7309 70.7264 48.4609 70.7364 48.1909C70.7364 47.8709 70.6864 47.5409 70.6264 47.2309L70.6164 47.2409Z" fill="#86B7B4"/>
<path d="M67.6963 40.6809C67.6263 40.3309 67.3863 40.0609 67.0963 39.9009C67.0963 39.9009 67.0763 39.8909 67.0763 39.8809C66.8863 39.7609 66.6363 39.6909 66.3863 39.6909C66.1263 39.6609 65.8263 39.7309 65.6363 39.8809C65.5763 39.9209 65.5363 39.9809 65.4963 40.0309C65.2263 40.2109 64.9563 40.3909 64.7063 40.5909C64.4563 40.7909 64.2063 40.9809 63.9563 41.1809C63.8363 41.2809 63.6963 41.3709 63.5863 41.4809C63.4763 41.5909 63.3663 41.7109 63.2563 41.8209C63.1063 41.9809 62.9263 42.1409 62.8063 42.3309C62.6963 42.5009 62.6363 42.7009 62.5663 42.8809C62.4663 43.1309 62.5663 43.4409 62.7263 43.6409C62.8863 43.8509 63.1363 43.9909 63.4063 43.9809C63.6163 43.9809 63.8263 43.9809 64.0263 43.9109C64.2363 43.8509 64.4563 43.7309 64.6663 43.6409C64.9563 43.5109 65.2263 43.3909 65.4963 43.2209C65.7563 43.0609 66.0263 42.9009 66.2863 42.7409C66.5563 42.5709 66.8063 42.3709 67.0663 42.1809C67.3063 42.0009 67.4963 41.8209 67.6163 41.5409C67.7363 41.2509 67.7463 40.9709 67.6863 40.6609L67.6963 40.6809Z" fill="white"/>
<path d="M43.9463 50.1309C43.9163 49.8209 43.8963 49.4609 43.7763 49.1609C43.6863 48.9309 43.5963 48.6709 43.4663 48.4609C43.3363 48.2409 43.1663 48.0409 42.9963 47.8509C42.7863 47.6209 42.5263 47.4109 42.2463 47.2709C42.0163 47.1609 41.7663 47.0309 41.5163 46.9709C41.3863 46.9409 41.2363 46.9309 41.1163 46.9109C40.9863 46.8909 40.8263 46.8609 40.6863 46.8609C40.3463 46.8609 39.9763 46.9009 39.6563 47.0309C39.4163 47.1309 39.1563 47.2109 38.9363 47.3509C38.7063 47.4909 38.4863 47.6709 38.2763 47.8509C38.2263 47.9009 38.1763 47.9509 38.1363 48.0009C37.9763 48.1909 37.7763 48.4209 37.6463 48.6509C37.6263 48.6809 37.6163 48.7209 37.5963 48.7509C37.4963 48.9609 37.4063 49.1709 37.3263 49.3909C37.2363 49.6509 37.2163 50.0109 37.1863 50.2309C37.1863 50.3009 37.1763 50.3709 37.1863 50.4309C37.2063 50.7009 37.2263 50.9909 37.3063 51.2609C37.3863 51.5109 37.4863 51.7509 37.6063 51.9809C37.7263 52.2109 37.9163 52.4109 38.0763 52.6109C38.1263 52.6709 38.1763 52.7209 38.2263 52.7709C38.4263 52.9509 38.6463 53.1209 38.8763 53.2609C39.0163 53.3509 39.1863 53.4109 39.3463 53.4709C39.5063 53.5409 39.6663 53.6209 39.8363 53.6609C39.8763 53.6609 39.9063 53.6809 39.9463 53.6809C40.1763 53.7209 40.4263 53.7509 40.6563 53.7709C40.8163 53.7809 41.2363 53.7209 41.4763 53.6409C41.5963 53.6009 41.7263 53.5409 41.8463 53.4909C41.9563 53.4409 42.0963 53.3909 42.2063 53.3309C42.2763 53.2909 42.3363 53.2409 42.3963 53.2009C42.3863 53.2009 42.3763 53.2209 42.3663 53.2209C42.5763 53.0909 42.7063 52.9909 42.8063 52.8809C42.8363 52.8509 42.8663 52.8109 42.8963 52.7809C42.8763 52.8009 42.8663 52.8209 42.8463 52.8509C43.0363 52.6609 43.2163 52.4409 43.3463 52.2009C43.3563 52.1809 43.3663 52.1509 43.3863 52.1309C43.3863 52.1309 43.3863 52.1209 43.3863 52.1109C43.3963 52.0909 43.4163 52.0709 43.4263 52.0509C43.4463 52.0209 43.4663 52.0009 43.4763 51.9709C43.5963 51.7509 43.6863 51.5009 43.7763 51.2609C43.7963 51.2009 43.8163 51.1509 43.8263 51.0909C43.8763 50.7909 43.9563 50.4409 43.9263 50.1209L43.9463 50.1309Z" fill="white"/>
</svg>
