<svg width="81" height="91" viewBox="0 0 81 91" fill="none" xmlns="http://www.w3.org/2000/svg">
<path d="M73.183 57.7414C77.1871 39.6501 65.7672 21.7382 47.6758 17.7341C29.5845 13.7299 11.6726 25.1499 7.66845 43.2412C3.66432 61.3326 15.0843 79.2445 33.1756 83.2486C51.2669 87.2527 69.1789 75.8328 73.183 57.7414Z" fill="#F8C223"/>
<path d="M64.5464 28.4809C61.1064 24.7809 56.5164 22.7409 51.7664 21.1609C48.5864 20.1009 46.6664 24.2609 48.6764 26.4709C49.9764 27.9009 51.2464 29.4009 52.2764 31.0409C53.5364 33.0409 54.8664 34.8309 56.3164 36.7109C58.2464 39.2009 62.5264 38.7309 64.5464 36.7109C66.8364 34.4209 66.6964 30.7909 64.5464 28.4809Z" fill="#FBD74E"/>
<path d="M69.8063 41.6309C69.2363 40.8209 68.5563 40.1809 67.5663 39.9109C66.6663 39.6609 65.4763 39.7709 64.6763 40.2909C63.0563 41.3309 62.1663 43.6809 63.3263 45.4209C63.4963 45.6709 63.6563 45.9309 63.8063 46.2009C63.8163 46.2309 63.8363 46.2609 63.8463 46.2909C63.7963 46.1509 63.8063 46.1009 63.9363 46.4509C63.9363 46.4709 63.9463 46.4809 63.9563 46.5009C63.9763 46.5409 63.9963 46.5809 64.0163 46.6109C63.9963 46.5909 63.9863 46.5609 63.9663 46.5409C64.0563 46.8009 64.1163 47.0709 64.1963 47.3309C64.5063 48.3809 65.1463 49.2309 66.0963 49.7809C67.8863 50.8209 69.9163 50.0909 71.0463 48.4809C72.4663 46.4709 71.0663 43.4209 69.8063 41.6309Z" fill="#FBD74E"/>
<path d="M63.8463 46.2909C63.8663 46.3609 63.9163 46.4609 63.9663 46.5409C63.9663 46.5309 63.9663 46.5209 63.9563 46.5009C63.9163 46.4309 63.8863 46.3609 63.8563 46.2909H63.8463Z" fill="#FBD74E"/>
<path d="M44.7763 2.16089C44.2463 1.23089 43.4163 0.43089 42.3363 0.21089C41.2563 -0.00911029 40.1663 0.390889 39.3063 1.03089C37.5763 2.33089 36.6763 4.56089 36.6163 6.69089C36.5763 7.91089 36.8363 9.10089 37.3363 10.2109C37.6163 10.8309 37.9763 11.4109 38.2863 12.0209C38.4163 12.2909 38.5263 12.5609 38.6563 12.8309C38.7063 12.9409 39.0063 13.7609 39.0963 13.6909C38.7563 13.9209 38.8563 14.5309 39.3163 14.5009C40.2263 14.4609 40.2463 13.3209 40.1863 12.6309C40.0863 11.5909 39.4763 10.6709 39.0363 9.75089C38.1963 8.00089 38.1063 5.96089 38.9663 4.19089C39.7263 2.63089 41.8563 0.760891 43.1763 2.86089C44.2363 4.54089 44.1763 6.83089 43.1463 8.51089C42.5263 9.54089 41.6863 10.3709 41.3763 11.5709C41.0763 12.7209 41.0063 14.0709 41.5363 15.1509C41.7963 15.6909 42.5863 15.5009 42.7463 14.9909C43.1163 13.8409 42.7463 12.6109 43.2563 11.4909C43.7463 10.4309 44.6263 9.62089 45.0963 8.53089C45.9563 6.51089 45.8863 4.08089 44.7863 2.16089H44.7763Z" fill="#9E6328"/>
<path d="M46.0264 74.2709C27.4964 74.2709 12.4764 59.2509 12.4764 40.7209C12.4764 36.6809 13.1864 32.8109 14.4964 29.2209C9.73635 35.0109 6.88635 42.4209 6.88635 50.5009C6.88635 69.0309 21.9063 84.0509 40.4363 84.0509C54.9263 84.0509 67.2764 74.8609 71.9664 62.0009C65.8164 69.4909 56.4764 74.2709 46.0264 74.2709Z" fill="#F19F26"/>
<path d="M45.9164 13.8909C45.8664 13.1909 45.7664 12.4609 45.2664 11.9309C44.6864 11.3109 43.7664 11.2809 42.9864 11.1909C41.2864 11.0009 39.5664 11.0409 37.8664 11.2209C36.9564 11.3209 35.9464 11.3109 35.4064 12.1809C34.5864 13.5009 34.3564 16.5709 35.2964 17.9109C35.8064 18.6409 36.7364 18.6709 37.4564 18.2409C37.8964 17.9709 38.1564 17.4809 38.5064 17.1309C39.0364 17.6909 39.3864 18.4809 40.2464 18.4709C40.7164 18.4709 41.1664 18.2009 41.4864 17.8809C41.6064 17.7509 41.7264 17.5609 41.8564 17.4009C42.7364 18.4009 44.2064 19.6909 45.2764 18.6009C45.8064 18.0609 45.8264 17.1909 45.8864 16.4909C45.9564 15.6309 45.9664 14.7609 45.9064 13.9009L45.9164 13.8909Z" fill="#D3A040"/>
<path d="M45.2964 14.0109C45.2864 13.9309 45.2664 13.8509 45.2464 13.7709C45.1864 13.5409 45.1264 13.3109 45.0164 13.1009C44.9464 12.9609 44.8564 12.8209 44.7664 12.6909C44.6364 12.5009 44.5264 12.3509 44.3064 12.2609C44.2264 12.2309 44.1464 12.2009 44.0664 12.1709C43.8264 12.0909 43.4664 12.2209 43.3464 12.4609C43.2964 12.5709 43.2264 12.6809 43.1964 12.7909C43.1564 12.9409 43.1764 13.0709 43.1764 13.2209C43.1764 13.3109 43.1764 13.3909 43.1764 13.4809C43.1764 13.5809 43.1864 13.6809 43.1964 13.7709C43.2064 13.8909 43.2264 14.0009 43.2264 14.1209C43.2264 14.2209 43.2364 14.3209 43.2464 14.4209C43.2764 14.6109 43.3564 14.7709 43.4364 14.9409C43.4864 15.0109 43.5364 15.0709 43.5864 15.1409C43.6564 15.1909 43.7164 15.2409 43.7864 15.2909C43.9764 15.4009 44.1964 15.4409 44.4164 15.4109C44.7964 15.3609 45.1364 15.0809 45.2364 14.7009C45.2464 14.6609 45.2564 14.6309 45.2664 14.5909C45.3164 14.3809 45.3164 14.2109 45.2664 14.0009L45.2964 14.0109Z" fill="#DFC17D"/>
<path d="M45.0564 16.5009C45.0564 16.5009 45.0264 16.4309 45.0164 16.3909C44.9964 16.3309 44.9664 16.2709 44.9464 16.2209C44.8964 16.1409 44.8364 16.0709 44.7564 16.0209C44.7064 15.9709 44.6564 15.9409 44.5964 15.9309C44.5064 15.8809 44.4164 15.8609 44.3164 15.8709C44.2564 15.8709 44.1864 15.8909 44.1264 15.9009C44.0664 15.9209 44.0064 15.9509 43.9564 15.9709C43.8764 16.0209 43.8064 16.0809 43.7564 16.1609C43.6964 16.2309 43.6464 16.3109 43.6264 16.4109C43.6164 16.4509 43.5964 16.4809 43.5864 16.5209C43.5864 16.5209 43.5864 16.5409 43.5864 16.5509C43.5864 16.6209 43.5664 16.6909 43.5564 16.7609C43.5564 16.7609 43.5564 16.8109 43.5564 16.8309V17.0009V17.0209C43.5564 17.0609 43.5564 17.1009 43.5664 17.1409C43.5664 17.1809 43.5664 17.2209 43.5864 17.2609C43.6164 17.3209 43.6364 17.3809 43.6664 17.4509C43.7164 17.5409 43.7864 17.6109 43.8664 17.6709C43.9164 17.7209 43.9764 17.7509 44.0364 17.7709C44.1264 17.8209 44.2264 17.8409 44.3364 17.8409L44.5464 17.8109C44.6064 17.7809 44.6664 17.7609 44.7364 17.7309C44.8264 17.6809 44.8964 17.6109 44.9564 17.5309C45.0264 17.4609 45.0664 17.3709 45.0964 17.2709C45.1264 17.1209 45.1264 16.9909 45.1264 16.8409C45.1264 16.7409 45.1264 16.6309 45.0864 16.5409L45.0564 16.5009Z" fill="#DFC17D"/>
<path d="M37.2863 12.8909V12.8709C37.2863 12.8509 37.2663 12.8209 37.2563 12.8009C37.2363 12.7109 37.1863 12.6409 37.1263 12.5709C37.0663 12.5109 36.9863 12.4609 36.8963 12.4409C36.8063 12.4209 36.7163 12.4209 36.6263 12.4409C36.5363 12.4609 36.4663 12.5109 36.3963 12.5709C36.3763 12.5909 36.3563 12.6009 36.3363 12.6209C36.3063 12.6409 36.2963 12.6609 36.2663 12.7009C36.2063 12.7709 36.2263 12.7509 36.1863 12.8409C36.1563 12.8909 36.1463 12.9309 36.1463 12.9909C36.1463 13.0209 36.1463 13.0509 36.1363 13.0809C36.1363 13.1309 36.1363 13.1909 36.1263 13.2409C36.1263 13.2909 36.1363 13.3409 36.1463 13.3909C36.1663 13.4609 36.1963 13.5309 36.2463 13.5809C36.2663 13.6209 36.3063 13.6509 36.3463 13.6809C36.3963 13.7309 36.4663 13.7609 36.5363 13.7809C36.5863 13.7809 36.6363 13.7909 36.6863 13.8009C36.7363 13.8009 36.7863 13.7909 36.8363 13.7809C36.9063 13.7609 36.9763 13.7309 37.0263 13.6809C37.0863 13.6409 37.1363 13.5909 37.1663 13.5209C37.1863 13.4709 37.2063 13.4209 37.2363 13.3709C37.2563 13.3109 37.2763 13.2709 37.2963 13.2209C37.2963 13.1709 37.3063 13.1209 37.3163 13.0609C37.3163 13.0109 37.3063 12.9609 37.2963 12.9009L37.2863 12.8909Z" fill="#DFC17D"/>
<path d="M66.9163 68.1609C65.1163 68.3809 63.4563 68.3309 61.7863 69.1409C60.6063 69.7109 59.5963 70.5609 58.5063 71.2609C57.5263 71.8909 56.6563 72.3409 55.5863 72.0709C54.2463 71.7309 53.0663 70.9309 51.7163 70.6609C50.0163 70.3109 48.4363 70.8309 47.3463 72.2009C46.5163 73.2309 45.9463 74.1209 44.7063 74.5009C43.6863 74.8109 42.5763 74.8009 41.6363 74.2809C40.3263 73.5609 39.4063 72.3209 37.9563 71.8309C36.4363 71.3209 34.9563 71.8009 33.6063 72.5209C33.0963 72.7909 32.5963 73.1209 32.0563 73.3209C31.8263 73.4009 31.6263 73.4709 31.3963 73.4809C31.4063 73.4809 31.2163 73.4809 31.1263 73.4809C31.0363 73.4609 30.8663 73.4309 30.8363 73.4209C30.7363 73.3909 30.6363 73.3609 30.5363 73.3209C30.5163 73.3109 30.4863 73.2909 30.4463 73.2709C30.2363 73.1609 30.0463 73.0409 29.8463 72.9009C29.8463 72.9009 29.6363 72.7409 29.4663 72.5909C29.2563 72.4109 29.0563 72.2109 28.8563 72.0209C27.2163 70.4209 25.6263 68.5509 23.1963 68.3009C21.6763 68.1409 20.2863 68.9509 18.7663 68.7809C17.3463 68.6209 16.0863 67.9209 14.9963 67.0209C12.6663 65.1009 11.1063 62.4409 8.88632 60.4109C8.67632 60.2209 8.45633 60.0409 8.23633 59.8609C8.80633 61.8209 9.54632 63.7109 10.4563 65.5109C10.5663 65.6609 10.6763 65.8109 10.7963 65.9609C12.6263 68.3709 15.0763 70.9209 18.1663 71.5709C18.9063 71.7309 19.6663 71.7409 20.4163 71.6509C21.2163 71.5509 21.9963 71.2609 22.8063 71.2709C22.8463 71.2709 22.9663 71.2909 23.0163 71.3009C23.0963 71.3209 23.1763 71.3409 23.2463 71.3609C23.3163 71.3809 23.3963 71.4109 23.4663 71.4409C23.5063 71.4609 23.6263 71.5209 23.6563 71.5409C24.1663 71.8409 24.2663 71.9009 24.6963 72.3009C26.3163 73.7809 27.7063 75.7909 29.9063 76.4509C31.3063 76.8709 32.6663 76.5609 33.9563 75.9509C34.8963 75.5109 36.0663 74.5109 37.0763 74.9609C37.5563 75.1809 37.9863 75.6109 38.3863 75.9409C38.9963 76.4509 39.6063 76.9609 40.3263 77.2909C41.6563 77.9209 43.1063 78.1109 44.5563 77.9009C45.9963 77.6909 47.3363 77.0809 48.4263 76.1009C48.9863 75.6009 49.3563 74.9609 49.8263 74.3809C50.2063 73.9109 50.3963 73.8109 50.8663 73.8709C51.9863 74.0109 53.3563 74.9209 54.5863 75.2509C56.1263 75.6709 57.6063 75.4409 59.0363 74.7909C60.2463 74.2309 61.2863 73.3909 62.4063 72.6909C62.9063 72.3809 63.3663 72.1109 63.8663 71.9409C64.6463 71.6909 65.4463 71.7009 66.2563 71.6609C66.3363 71.6609 66.4163 71.6409 66.4863 71.6409C67.5463 70.3309 68.5163 68.9409 69.3763 67.4809C68.5863 67.8109 67.7663 68.0609 66.9263 68.1609H66.9163Z" fill="#FF2631"/>
<path d="M25.3164 25.6109C26.1664 25.5209 27.3164 25.0709 28.0964 25.5509C28.6664 25.9009 29.0564 26.5309 29.4464 27.0609C30.4364 28.4309 31.6564 29.8209 33.5364 29.4609C34.3964 29.3009 35.1064 28.7609 35.7164 28.1609C36.1064 27.7909 36.6464 27.0209 37.1764 26.9109C37.8964 26.7709 38.6364 27.8009 39.0864 28.2209C39.8664 28.9609 40.7464 29.5409 41.7964 29.8009C43.8464 30.3109 46.1264 29.7309 47.5664 28.1609C48.0464 27.6409 48.6564 26.4009 49.4964 26.4809C49.9864 26.5309 50.4964 26.8209 50.9664 26.9809C51.4564 27.1409 51.9564 27.2309 52.4564 27.2909C55.5464 27.6509 58.7364 26.1609 60.6264 23.7009C59.9164 23.1609 59.1764 22.6609 58.4264 22.1809C57.7264 23.0909 56.7864 23.8109 55.7264 24.2609C55.0064 24.5709 54.2164 24.7409 53.4264 24.7509C52.4364 24.7609 51.6264 24.4409 50.6964 24.1309C49.5664 23.7509 48.3964 23.8009 47.4164 24.5209C46.5664 25.1409 46.0964 26.1309 45.2664 26.7609C43.7964 27.8709 41.9664 27.4409 40.7164 26.2709C39.9864 25.5809 39.2464 24.8409 38.2664 24.5309C37.3164 24.2309 36.2764 24.4309 35.4664 24.9909C34.7464 25.4909 34.2364 26.2109 33.5564 26.7509C33.1064 27.1009 32.8064 27.1209 32.4964 26.9009C31.9864 26.5309 31.5764 25.8609 31.1764 25.3409C30.6664 24.6609 30.1464 24.0109 29.4264 23.5409C28.5164 22.9309 27.4564 22.8809 26.3964 23.0609C25.6364 23.1909 24.5964 23.6609 23.8864 23.1709C23.4464 22.8709 23.2164 22.2909 23.0364 21.7809C22.4364 22.1409 21.8564 22.5309 21.2764 22.9309C21.9564 24.6809 23.3064 25.8009 25.2864 25.6009L25.3164 25.6109Z" fill="#FF2631"/>
<path d="M69.4163 33.6009C68.5463 32.1109 67.5663 30.6909 66.4863 29.3509C66.3963 29.4309 65.8863 29.8209 66.0363 29.7209C65.7863 29.9009 65.5263 30.0709 65.2563 30.2209C65.1963 30.2609 64.9163 30.3909 64.7963 30.4609C64.7263 30.4909 64.6563 30.5209 64.6263 30.5209C64.4963 30.5609 64.3563 30.6109 64.2263 30.6409C64.0963 30.6809 63.9463 30.6909 63.8163 30.7309C63.4663 30.7309 63.1263 30.7509 62.7763 30.7309C61.2263 30.6409 59.8063 30.6609 58.4063 31.4209C56.6063 32.3909 55.4763 34.2109 54.0563 35.6109C53.9863 35.6709 53.8763 35.7509 53.7763 35.8109C53.7463 35.8309 53.7063 35.8409 53.6763 35.8609C53.6163 35.8609 53.5563 35.8809 53.4963 35.9009C53.4463 35.9009 53.3763 35.9009 53.3163 35.8909C53.2063 35.8709 53.0663 35.8409 53.0363 35.8309C52.7563 35.7509 52.4863 35.6409 52.2263 35.5409C52.2163 35.5409 52.2063 35.5409 52.1963 35.5309C51.9363 35.4209 51.6763 35.3109 51.4063 35.2009C50.7663 34.9309 50.1463 34.7409 49.4563 34.6409C47.7663 34.4109 46.3263 34.9909 45.0363 36.0509C44.5963 36.4109 44.2063 36.8309 43.7963 37.2209C43.6963 37.3209 43.5863 37.4109 43.4763 37.5109C43.4763 37.5109 43.4763 37.5109 43.4663 37.5209C43.4663 37.5209 43.4663 37.5209 43.4463 37.5209C43.3463 37.5809 43.2563 37.6409 43.1563 37.7009C43.0863 37.7409 43.0463 37.7709 43.0263 37.7909C42.9963 37.7909 42.9663 37.8109 42.9163 37.8209C42.7963 37.8609 42.3263 37.9509 42.3363 37.9709C42.0763 37.9909 41.8263 37.9809 41.5663 37.9809C41.5263 37.9809 41.4163 37.9809 41.3563 37.9709C41.2863 37.9609 41.2263 37.9509 41.1563 37.9309C40.8063 37.8609 40.4663 37.7709 40.1363 37.6609C40.0163 37.6209 39.8963 37.5809 39.7763 37.5309C39.7163 37.5009 39.6063 37.4609 39.5863 37.4409C39.3063 37.2909 39.0163 37.1509 38.7463 36.9909C37.9663 36.5209 37.7763 36.3209 37.0863 35.8009C35.8963 34.9009 34.4963 34.3309 32.9863 34.4209C31.7263 34.4909 30.5663 34.8709 29.3763 35.2609C28.8463 35.4309 28.3263 35.5809 27.7863 35.7109C27.7663 35.7109 27.7463 35.7109 27.7363 35.7109C27.6763 35.7109 27.5963 35.7109 27.5863 35.7109C27.5263 35.7109 27.4663 35.7109 27.4063 35.7109C27.3363 35.7109 27.2763 35.7109 27.2063 35.7009C27.1963 35.6909 27.0563 35.6609 27.0563 35.6609C27.0263 35.7309 26.7463 35.5009 27.0463 35.6609C26.9763 35.6209 26.9063 35.5809 26.8363 35.5309C26.9763 35.6109 26.6063 35.3109 26.4963 35.2009C26.4863 35.1909 26.4763 35.1809 26.4663 35.1709C26.4063 35.0809 26.3363 34.9909 26.2763 34.9009C26.1163 34.6609 25.9763 34.4109 25.8263 34.1609C25.1063 32.9409 24.3363 31.7409 23.1063 30.9609C22.4163 30.5209 21.6063 30.3009 20.8063 30.1409C20.4463 30.0709 20.0863 30.0109 19.7363 29.9209C19.5963 29.8809 19.4563 29.8409 19.3163 29.7909C19.2763 29.7809 19.2563 29.7709 19.2563 29.7809C19.2363 29.7709 19.2163 29.7609 19.1863 29.7409C18.9163 29.6009 18.6563 29.4409 18.4063 29.2709C18.4063 29.2709 18.4063 29.2709 18.3963 29.2709C18.3963 29.2709 18.3863 29.2609 18.3763 29.2509C18.2463 29.1409 18.1163 29.0209 17.9963 28.9109C17.7563 28.6809 17.5363 28.4309 17.3363 28.1709C17.3363 28.1709 17.3363 28.1709 17.3363 28.1609C17.2363 28.0209 17.1263 27.8709 17.0363 27.7209C16.8663 27.4609 16.6963 27.1909 16.5463 26.9109C15.4863 27.9909 14.4863 29.1409 13.5763 30.3609C14.1063 31.1509 14.7263 31.8909 15.4463 32.4909C16.5863 33.4409 17.8463 34.0809 19.3063 34.3609C19.6263 34.4209 19.9463 34.4809 20.2563 34.5609C20.6363 34.6609 20.7363 34.7209 20.8963 34.8109C20.9763 34.8909 21.0663 34.9809 21.1463 35.0609C21.1663 35.0809 21.1963 35.1109 21.2263 35.1509C21.2963 35.2409 21.3563 35.3409 21.4263 35.4309C22.1063 36.4709 22.6363 37.5909 23.5063 38.4909C24.5363 39.5609 25.9563 40.1509 27.4363 40.1609C28.7263 40.1609 29.9763 39.7609 31.1963 39.3809C31.7263 39.2109 32.2663 39.0609 32.8063 38.9609C32.9363 38.9609 33.0663 38.9409 33.2063 38.9409C33.2663 38.9409 33.3363 38.9409 33.3963 38.9409C33.4363 38.9509 33.5863 38.9809 33.6863 39.0109C33.7263 39.0309 33.8663 39.1009 33.8863 39.1109C34.0263 39.2009 34.1663 39.2809 34.2963 39.3709C34.4963 39.5009 34.5163 39.5409 34.8063 39.7709C35.4563 40.2909 36.1163 40.8009 36.8363 41.2009C38.2363 41.9809 39.7463 42.4909 41.3463 42.6409C42.8863 42.7909 44.5663 42.4409 45.8663 41.6009C46.4563 41.2209 46.9963 40.7509 47.5063 40.2709C47.7363 40.0509 47.9763 39.8309 48.2163 39.6209C48.2163 39.6209 48.2363 39.6109 48.2363 39.6009C48.2363 39.6009 48.2263 39.6009 48.2163 39.6109C48.2163 39.6109 48.2263 39.6109 48.2363 39.6009C48.2763 39.5709 48.3163 39.5509 48.3463 39.5309C48.3663 39.5109 48.3963 39.5009 48.4163 39.4809C48.4763 39.4609 48.5763 39.4109 48.6263 39.3909C48.6663 39.3909 48.8163 39.4209 48.8863 39.4309C48.9863 39.4609 49.0963 39.4909 49.0963 39.4909C49.2463 39.5409 49.9463 39.8309 49.5163 39.6409C49.8863 39.8009 50.2463 39.9609 50.6163 40.1209C52.0363 40.7209 53.5863 41.0809 55.1063 40.5809C57.4163 39.8209 58.5863 37.8609 60.2563 36.2709C60.3363 36.1909 60.4263 36.1209 60.5163 36.0409C60.5163 36.0409 60.5163 36.0409 60.5363 36.0209C60.5363 36.0209 60.5363 36.0209 60.5463 36.0209C60.6463 35.9609 60.7363 35.9009 60.8263 35.8409C60.8763 35.8109 60.9263 35.7909 60.9763 35.7609C60.9763 35.7609 60.9863 35.7609 60.9963 35.7609C61.0163 35.7609 61.0463 35.7609 61.0663 35.7509C61.1263 35.7409 61.2063 35.7309 61.2463 35.7209C61.6663 35.7109 62.0963 35.7509 62.5163 35.7809C64.2663 35.9209 65.9063 35.5709 67.4863 34.8109C68.1763 34.4809 68.8263 34.0509 69.4363 33.5609L69.4163 33.6009Z" fill="white"/>
<path d="M73.5463 53.0909C73.3663 53.1509 73.1863 53.2109 72.9963 53.2509C72.8063 53.3009 72.6263 53.3309 72.4363 53.3809C72.3863 53.3909 72.3363 53.4109 72.2963 53.4309C72.0763 53.4509 71.8163 53.4309 71.6263 53.4209C71.4763 53.4209 71.3163 53.4009 71.1663 53.4009C71.1463 53.4009 71.1363 53.4009 71.1263 53.4009C70.4963 53.2509 69.8263 53.1509 69.1863 53.1009C67.0163 52.9009 65.3263 54.1109 63.7263 55.4109C63.1163 55.9009 62.5363 56.4309 61.9463 56.9509C61.6863 57.1809 61.4263 57.4209 61.1663 57.6509C61.0363 57.7609 60.9063 57.8809 60.7663 57.9909C60.6963 58.0509 60.5263 58.1909 60.4363 58.2609C59.8663 58.6909 59.2663 59.0509 58.6263 59.3809C58.6263 59.3809 58.6263 59.3809 58.6363 59.3809C58.6363 59.3809 58.6263 59.3809 58.6163 59.3809C58.5563 59.4109 58.4563 59.4409 58.4063 59.4509C58.3263 59.4809 58.2463 59.5109 58.1663 59.5309C58.0063 59.5809 57.8463 59.6209 57.6963 59.6609C57.5263 59.7009 56.8563 59.7309 57.5163 59.7209C57.2763 59.7209 56.7763 59.8509 56.5663 59.7209C56.6663 59.7409 56.7663 59.7509 56.8663 59.7709C56.7463 59.7509 56.6363 59.7309 56.5163 59.6909C56.4963 59.6909 56.4463 59.6709 56.3863 59.6609C56.2863 59.6109 55.9963 59.4809 55.9863 59.4809C55.8363 59.3909 55.6963 59.3009 55.5563 59.2109C55.2063 58.9809 54.8663 58.7309 54.4863 58.5409C53.0063 57.7709 51.2363 57.5809 49.6663 58.2009C48.4263 58.6909 47.4163 59.4109 46.3563 60.2109C45.9463 60.5209 45.5363 60.8309 45.0963 61.1009C44.8763 61.2409 44.6263 61.3409 44.4163 61.4809C44.2963 61.5109 44.1563 61.5409 44.0363 61.5909C43.9163 61.5909 43.7963 61.5909 43.6763 61.5909C43.5763 61.5709 43.4663 61.5309 43.4363 61.5209C43.3063 61.4809 43.1763 61.4409 43.0463 61.4009C43.0363 61.4009 42.8663 61.3309 42.7563 61.2909C42.7063 61.2709 42.6663 61.2509 42.6463 61.2409C42.4563 61.1509 42.2663 61.0509 42.0763 60.9609C41.4863 60.6809 40.8163 60.3809 40.1763 60.1809C40.1463 60.1809 40.0263 60.1509 39.9663 60.1209C39.6963 60.0209 39.4363 59.8909 39.1763 59.7909C38.8563 59.6709 38.5263 59.5509 38.1863 59.4709C36.4763 59.0809 34.8163 59.3309 33.1963 59.9709C32.4863 60.2509 31.7863 60.5609 31.0563 60.7809C30.7963 60.8609 30.5263 60.9109 30.2563 60.9609C30.2163 60.9609 30.1763 60.9709 30.1563 60.9709C29.9363 60.9809 29.7163 61.0009 29.4863 60.9909C29.3363 60.9909 29.1863 60.9909 29.0363 60.9809C29.0563 60.9809 28.7563 60.9509 28.6363 60.9409C28.5563 60.9209 28.4663 60.9109 28.4463 60.9009C28.2663 60.8609 28.0863 60.8209 27.9063 60.7709C27.6463 60.7009 27.3963 60.6109 27.1463 60.5109C27.0963 60.4909 27.0263 60.4609 27.0063 60.4409C26.8063 60.3309 26.6063 60.2409 26.4163 60.1209C26.3663 60.0909 25.8963 59.7709 25.8963 59.7909C25.6563 59.6009 25.4363 59.3909 25.2263 59.1709C24.7463 58.6709 24.3563 58.0809 23.8663 57.5809C22.4763 56.1309 20.6763 55.7009 18.7363 56.0709C18.0363 56.2009 17.3563 56.4209 16.6763 56.6009C16.1763 56.7309 15.6463 56.6909 15.0863 56.5209C14.6263 56.3809 14.0663 56.0809 13.5363 55.7309C12.9363 55.3409 12.4063 54.9209 11.8963 54.4309C10.8763 53.4509 9.98633 52.3409 9.01633 51.3109C8.36633 50.6309 7.65632 50.0109 6.88632 49.4909C6.87632 49.8309 6.85632 50.1709 6.85632 50.5109C6.85632 51.5409 6.90632 52.5709 7.00632 53.5809C7.84632 54.8209 8.62632 56.1209 9.56632 57.2709C11.7563 59.9709 14.8863 61.5009 18.3663 60.6809C18.9563 60.5409 19.7163 60.2909 20.0963 60.3309C20.1263 60.3309 20.1363 60.3309 20.1563 60.3309C20.1763 60.3509 20.2663 60.3909 20.3063 60.3909C20.4063 60.4709 20.5463 60.5909 20.5363 60.5809C20.6663 60.7109 20.7763 60.8509 20.8963 60.9909C20.9263 61.0209 20.9363 61.0409 20.9463 61.0509C20.9663 61.0809 20.9863 61.1009 21.0163 61.1409C21.1763 61.3509 21.3363 61.5609 21.5063 61.7709C21.6863 62.0009 21.8763 62.2309 22.0763 62.4509C22.6363 63.0509 23.3063 63.5709 23.9863 64.0209C26.5463 65.6909 29.8863 66.1409 32.7963 65.2209C33.5263 64.9909 34.2163 64.6909 34.9463 64.4509C35.2663 64.3509 35.5863 64.2609 35.9063 64.1909C36.4163 64.0809 36.0963 64.1709 35.9863 64.1709C36.1663 64.1609 36.3463 64.1709 36.5263 64.1709C36.3363 64.1709 36.4763 64.1509 36.5963 64.1709C36.6263 64.1709 36.6663 64.1709 36.6963 64.1709C36.6563 64.1709 36.6263 64.1709 36.5963 64.1709C36.6163 64.1709 36.6263 64.1709 36.6463 64.1809C36.8063 64.2309 36.9763 64.2609 37.1463 64.3209C37.2763 64.3609 37.4063 64.4109 37.5363 64.4609C37.5363 64.4609 37.5363 64.4609 37.5563 64.4609C37.5763 64.4709 37.5863 64.4809 37.6163 64.5009C38.1563 64.8409 38.6663 65.2409 39.2163 65.5809C40.5563 66.4109 42.0963 67.0109 43.6663 67.1409C45.1663 67.2609 46.6863 66.7509 47.9563 65.9809C48.9163 65.4009 49.7563 64.6609 50.6963 64.0509C50.9063 63.9109 51.1263 63.7809 51.3563 63.6609C51.3563 63.6409 51.4063 63.6209 51.4763 63.6009C51.5063 63.5909 51.5363 63.5709 51.5663 63.5609C51.5463 63.5609 51.5163 63.5509 51.5063 63.5409C51.5263 63.5409 51.5563 63.5409 51.5763 63.5409C51.5763 63.5409 51.5763 63.5409 51.5863 63.5409C51.5863 63.5409 51.5963 63.5409 51.6063 63.5409C51.6063 63.5409 51.6063 63.5409 51.6163 63.5409C51.6163 63.5409 51.6263 63.5409 51.6363 63.5409C51.6563 63.5409 51.6663 63.5409 51.6863 63.5509C51.6863 63.5509 51.6663 63.5509 51.6563 63.5509C51.7863 63.6209 51.9663 63.7209 51.9663 63.7209C52.1063 63.8109 52.2463 63.9109 52.3863 64.0109C52.6663 64.2009 52.9363 64.4009 53.2363 64.5609C54.2463 65.1109 55.2563 65.3709 56.3963 65.4809C58.1763 65.6509 59.9463 65.1209 61.5363 64.3709C63.0763 63.6409 64.3963 62.5109 65.6663 61.4009C66.2563 60.8809 66.8363 60.3509 67.4363 59.8509C67.5563 59.7509 67.6763 59.6509 67.7963 59.5609C67.8163 59.5409 67.8363 59.5309 67.8663 59.5109C68.1563 59.3009 68.4463 59.1109 68.7563 58.9309C68.7863 58.9309 68.8263 58.9309 68.8563 58.9309C68.9763 58.9509 69.0963 58.9809 69.2163 59.0009C69.3963 59.0309 69.5763 59.0709 69.7563 59.1009C70.6663 59.2509 71.5663 59.3409 72.4863 59.2609C72.5763 59.2609 72.6663 59.2409 72.7563 59.2309C73.3063 57.1909 73.6663 55.0709 73.8263 52.9009C73.7063 52.9509 73.5063 53.0409 73.4863 53.0409L73.5463 53.0909Z" fill="white"/>
<path d="M14.6363 41.8809C14.5663 41.6409 14.4463 41.4309 14.2663 41.2509C14.0663 41.0709 13.8963 40.9509 13.6363 40.8809C13.3863 40.8109 13.1263 40.8109 12.8763 40.8809C12.6363 40.9509 12.4263 41.0709 12.2463 41.2509L12.1963 41.3109C12.0163 41.4909 11.8963 41.7009 11.8263 41.9509C11.7563 42.2109 11.7563 42.4609 11.8263 42.7209C11.8763 42.8409 11.9263 42.9509 11.9763 43.0709C12.1063 43.2909 12.2763 43.4609 12.4963 43.5909C12.6663 43.7009 12.8463 43.7509 13.0363 43.7609C13.2263 43.8009 13.4263 43.7909 13.6163 43.7309C13.8663 43.6609 14.0763 43.5409 14.2563 43.3609C14.4363 43.1809 14.5563 42.9709 14.6263 42.7209C14.6263 42.6909 14.6363 42.6709 14.6463 42.6409C14.7163 42.3909 14.7163 42.1309 14.6463 41.8809H14.6363Z" fill="#FF2631"/>
<path d="M23.6464 47.0209C23.5564 46.7109 23.4064 46.4409 23.1764 46.2109C23.0564 46.1109 22.9264 46.0209 22.8064 45.9209C22.5164 45.7509 22.2164 45.6709 21.8764 45.6709C21.6264 45.6709 21.3864 45.7109 21.1664 45.8309C20.9364 45.9009 20.7464 46.0309 20.5764 46.2109C20.3964 46.3809 20.2664 46.5709 20.1964 46.8009C20.0864 47.0209 20.0264 47.2509 20.0364 47.5109L20.1064 48.0009C20.1964 48.3109 20.3464 48.5809 20.5764 48.8109C20.6964 48.9109 20.8264 49.0009 20.9464 49.1009C21.2364 49.2709 21.5364 49.3509 21.8764 49.3509C22.1264 49.3509 22.3664 49.3109 22.5864 49.1909C22.8164 49.1209 23.0064 48.9909 23.1764 48.8109C23.3564 48.6409 23.4864 48.4509 23.5564 48.2209C23.6664 48.0009 23.7264 47.7709 23.7164 47.5109C23.6964 47.3509 23.6764 47.1909 23.6464 47.0209Z" fill="#FF2631"/>
<path d="M35.5464 50.2009C35.4664 49.9209 35.3264 49.6809 35.1164 49.4709C35.0064 49.3809 34.8964 49.3009 34.7864 49.2109C34.7864 49.2109 34.7864 49.2109 34.7764 49.2109C34.7564 49.2109 34.7464 49.1909 34.7264 49.1809C34.5364 49.0609 34.3364 48.9909 34.1164 48.9809C33.8964 48.9309 33.6764 48.9409 33.4564 49.0109C33.3264 49.0709 33.1964 49.1209 33.0664 49.1809C32.8764 49.2809 32.7164 49.4209 32.6064 49.6009C32.5064 49.7009 32.4364 49.8209 32.3964 49.9609C32.2964 50.1609 32.2464 50.3709 32.2564 50.5909L32.3164 51.0309C32.3964 51.3109 32.5364 51.5509 32.7364 51.7609C32.7464 51.7709 32.7564 51.7909 32.7764 51.8009C32.8764 51.9109 32.9264 51.9609 33.1264 52.0709C33.3864 52.2209 33.6664 52.2909 33.9564 52.3009C34.1064 52.2909 34.2564 52.2709 34.3964 52.2409C34.5264 52.1809 34.6564 52.1309 34.7864 52.0709C34.9764 51.9709 35.1364 51.8209 35.2464 51.6509C35.3464 51.5509 35.4164 51.4309 35.4564 51.2909C35.5564 51.0909 35.6064 50.8809 35.5964 50.6609C35.5964 50.5109 35.5764 50.3609 35.5364 50.2209L35.5464 50.2009Z" fill="#FF2631"/>
<path d="M47.9264 50.2109C47.8364 49.8809 47.6664 49.5909 47.4264 49.3509C47.2964 49.2509 47.1664 49.1509 47.0264 49.0409C46.7264 48.8609 46.3964 48.7709 46.0364 48.7709C45.7664 48.7609 45.5164 48.8209 45.2864 48.9409C45.0464 49.0209 44.8364 49.1509 44.6564 49.3409C44.4664 49.5209 44.3364 49.7309 44.2564 49.9709C44.1364 50.2009 44.0764 50.4509 44.0864 50.7209C44.1064 50.8909 44.1364 51.0709 44.1564 51.2409C44.2464 51.5709 44.4164 51.8609 44.6564 52.1009L45.0564 52.4109C45.3564 52.5909 45.6864 52.6809 46.0464 52.6809C46.3164 52.6909 46.5664 52.6309 46.7964 52.5109C47.0364 52.4309 47.2464 52.3009 47.4264 52.1109C47.6164 51.9309 47.7464 51.7209 47.8264 51.4809C47.9464 51.2509 48.0064 51.0009 47.9964 50.7309C47.9764 50.5609 47.9464 50.3809 47.9264 50.2109Z" fill="#FF2631"/>
<path d="M60.6264 48.1309C60.5564 47.8209 60.4064 47.5409 60.1964 47.3109C60.0864 47.1309 59.9464 46.9809 59.7664 46.8809C59.5364 46.6709 59.2564 46.5209 58.9464 46.4509C58.8364 46.4309 58.7264 46.4109 58.6164 46.4109C58.2964 46.3409 57.9764 46.3509 57.6564 46.4509H57.6364C57.4064 46.5509 57.3464 46.4909 56.9864 46.7309C56.8264 46.8609 56.6564 46.9809 56.4964 47.1109C56.4164 47.1809 56.3564 47.2609 56.2964 47.3609C56.1864 47.5009 56.1564 47.5209 56.0964 47.6209C56.0964 47.6209 56.0864 47.6409 56.0764 47.6409C55.9664 47.8309 55.8764 48.0209 55.8164 48.2409C55.7064 48.6609 55.7064 49.0809 55.8164 49.5109C55.9264 49.9109 56.1364 50.2609 56.4264 50.5609C56.7264 50.8609 57.0764 51.0609 57.4764 51.1709C57.4964 51.1709 57.5164 51.1709 57.5264 51.1809C57.6364 51.2009 57.7864 51.2109 57.8564 51.2209C57.9664 51.2409 58.0764 51.2509 58.1864 51.2609C58.2964 51.2709 58.4064 51.2609 58.5164 51.2209C58.8964 51.1709 59.0464 51.1809 59.4264 50.9309L59.9164 50.5509C59.9164 50.5509 59.9164 50.5509 59.9264 50.5409C59.9264 50.5409 59.9364 50.5309 59.9464 50.5209C59.9464 50.5209 59.9664 50.5009 59.9664 50.4909C60.0364 50.4109 60.0964 50.3309 60.1564 50.2409C60.3064 50.0909 60.4064 49.9109 60.4664 49.7109C60.5764 49.5209 60.6264 49.3209 60.6364 49.1009C60.6564 48.9909 60.6764 48.8809 60.6764 48.7709C60.6464 48.5609 60.6164 48.3409 60.5864 48.1309H60.6264Z" fill="#FF2631"/>
<path d="M70.1663 45.3009C70.1663 45.2209 70.1063 44.8109 70.0863 44.7409C70.0863 44.7409 70.0863 44.7309 70.0863 44.7209C70.0863 44.7109 70.0863 44.7009 70.0863 44.6909C70.0863 44.6909 70.0863 44.6909 70.0863 44.6809C70.0463 44.5709 69.9263 44.2809 69.8763 44.1709C69.8763 44.1509 69.8563 44.1309 69.8463 44.1209C69.7363 43.9809 69.6363 43.8409 69.5263 43.7109C69.5263 43.7109 69.5263 43.7109 69.5263 43.7009C69.5263 43.7009 69.5163 43.6809 69.5063 43.6809C69.3663 43.5709 69.2363 43.4709 69.0963 43.3609C68.8663 43.2109 68.6063 43.1309 68.3363 43.1209C68.1563 43.0709 67.9763 43.0709 67.7963 43.1209C67.5263 43.1309 67.2763 43.2109 67.0363 43.3609C66.8963 43.4709 66.7663 43.5709 66.6263 43.6809C66.5163 43.8209 66.4163 43.9509 66.3063 44.0909C66.1763 44.2909 66.1163 44.5109 66.0863 44.7409C66.0863 44.7609 66.0663 44.7809 66.0663 44.8009C65.9763 45.0809 65.9663 45.3609 66.0263 45.6409C66.0263 45.7409 66.0363 45.8309 66.0663 45.9209C66.0863 46.0509 66.1263 46.1709 66.1963 46.2909C66.2663 46.5109 66.3963 46.7109 66.5663 46.8709C66.7863 47.0909 67.0563 47.2509 67.3563 47.3309C67.3763 47.3309 67.3963 47.3409 67.4163 47.3509C67.4163 47.3509 67.4163 47.3509 67.4263 47.3509C67.6363 47.4209 67.8563 47.4609 68.0863 47.4609C68.4663 47.4609 68.8163 47.3609 69.1463 47.1709C69.4663 46.9809 69.7163 46.7309 69.9063 46.4109C70.0963 46.0809 70.1963 45.7309 70.1963 45.3509C70.1963 45.3409 70.1963 45.3309 70.1963 45.3209L70.1663 45.3009Z" fill="#FF2631"/>
</svg>
