<svg width="96" height="98" viewBox="0 0 96 98" fill="none" xmlns="http://www.w3.org/2000/svg">
<path d="M52.2163 2.16089C51.6863 1.23089 50.8563 0.43089 49.7763 0.21089C48.6963 -0.00911029 47.6063 0.390889 46.7463 1.03089C45.0163 2.33089 44.1163 4.56089 44.0563 6.69089C44.0163 7.91089 44.2763 9.10089 44.7763 10.2109C45.0563 10.8309 45.4163 11.4109 45.7263 12.0209C45.8563 12.2909 45.9663 12.5609 46.0963 12.8309C46.1463 12.9409 46.4463 13.7609 46.5363 13.6909C46.1963 13.9209 46.2963 14.5309 46.7563 14.5009C47.6663 14.4609 47.6863 13.3209 47.6263 12.6309C47.5263 11.5909 46.9163 10.6709 46.4763 9.75089C45.6363 8.00089 45.5463 5.96089 46.4063 4.19089C47.1663 2.63089 49.2963 0.760891 50.6163 2.86089C51.6763 4.54089 51.6163 6.83089 50.5863 8.51089C49.9663 9.54089 49.1263 10.3709 48.8163 11.5709C48.5163 12.7209 48.4463 14.0709 48.9763 15.1509C49.2363 15.6909 50.0263 15.5009 50.1863 14.9909C50.5563 13.8409 50.1863 12.6109 50.6963 11.4909C51.1863 10.4309 52.0663 9.62089 52.5363 8.53089C53.3963 6.51089 53.3263 4.08089 52.2263 2.16089H52.2163Z" fill="#9E6328"/>
<path d="M71.6034 74.2245C84.7055 61.1224 84.7055 39.8797 71.6034 26.7776C58.5013 13.6755 37.2586 13.6755 24.1565 26.7776C11.0544 39.8797 11.0544 61.1224 24.1565 74.2245C37.2586 87.3266 58.5013 87.3266 71.6034 74.2245Z" fill="#FF2631"/>
<path d="M56.2663 73.8509C37.7363 73.8509 22.7163 58.8309 22.7163 40.3009C22.7163 34.5909 24.1463 29.2209 26.6563 24.5209C19.1363 30.6709 14.3263 40.0309 14.3263 50.5009C14.3263 69.0309 29.3463 84.0509 47.8763 84.0509C60.7063 84.0509 71.8463 76.8509 77.4863 66.2809C71.7063 71.0109 64.3163 73.8509 56.2563 73.8509H56.2663Z" fill="#D50D29"/>
<path d="M53.3662 13.8909C53.3162 13.1909 53.2162 12.4609 52.7162 11.9309C52.1362 11.3109 51.2162 11.2809 50.4362 11.1909C48.7362 11.0009 47.0162 11.0409 45.3162 11.2209C44.4062 11.3209 43.3962 11.3109 42.8562 12.1809C42.0362 13.5009 41.8062 16.5709 42.7462 17.9109C43.2562 18.6409 44.1862 18.6709 44.9062 18.2409C45.3462 17.9709 45.6062 17.4809 45.9562 17.1309C46.4862 17.6909 46.8362 18.4809 47.6962 18.4709C48.1662 18.4709 48.6162 18.2009 48.9362 17.8809C49.0562 17.7509 49.1762 17.5609 49.3062 17.4009C50.1862 18.4009 51.6562 19.6909 52.7262 18.6009C53.2562 18.0609 53.2762 17.1909 53.3362 16.4909C53.4062 15.6309 53.4162 14.7609 53.3562 13.9009L53.3662 13.8909Z" fill="#D3A040"/>
<path d="M52.7462 14.0109C52.7362 13.9309 52.7162 13.8509 52.6962 13.7709C52.6362 13.5409 52.5762 13.3109 52.4662 13.1009C52.3962 12.9609 52.3062 12.8209 52.2162 12.6909C52.0862 12.5009 51.9762 12.3509 51.7562 12.2609C51.6762 12.2309 51.5962 12.2009 51.5162 12.1709C51.2762 12.0909 50.9162 12.2209 50.7962 12.4609C50.7462 12.5709 50.6762 12.6809 50.6462 12.7909C50.6062 12.9409 50.6262 13.0709 50.6262 13.2209C50.6262 13.3109 50.6262 13.3909 50.6262 13.4809C50.6262 13.5809 50.6362 13.6809 50.6462 13.7709C50.6562 13.8909 50.6762 14.0009 50.6762 14.1209C50.6762 14.2209 50.6862 14.3209 50.6962 14.4209C50.7262 14.6109 50.8062 14.7709 50.8862 14.9409C50.9362 15.0109 50.9862 15.0709 51.0362 15.1409C51.1062 15.1909 51.1662 15.2409 51.2362 15.2909C51.4262 15.4009 51.6462 15.4409 51.8662 15.4109C52.2462 15.3609 52.5862 15.0809 52.6862 14.7009C52.6962 14.6609 52.7062 14.6309 52.7162 14.5909C52.7662 14.3809 52.7662 14.2109 52.7162 14.0009L52.7462 14.0109Z" fill="#DFC17D"/>
<path d="M52.5062 16.5009C52.5062 16.5009 52.4762 16.4309 52.4662 16.3909C52.4462 16.3309 52.4162 16.2709 52.3962 16.2209C52.3462 16.1409 52.2862 16.0709 52.2062 16.0209C52.1562 15.9709 52.1062 15.9409 52.0462 15.9309C51.9562 15.8809 51.8662 15.8609 51.7662 15.8709C51.7062 15.8709 51.6362 15.8909 51.5762 15.9009C51.5162 15.9209 51.4562 15.9509 51.4062 15.9709C51.3262 16.0209 51.2562 16.0809 51.2062 16.1609C51.1462 16.2309 51.0962 16.3109 51.0762 16.4109C51.0662 16.4509 51.0462 16.4809 51.0362 16.5209C51.0362 16.5209 51.0362 16.5409 51.0362 16.5509C51.0362 16.6209 51.0162 16.6909 51.0062 16.7609C51.0062 16.7609 51.0062 16.8109 51.0062 16.8309V17.0009V17.0209C51.0062 17.0609 51.0062 17.1009 51.0162 17.1409C51.0162 17.1809 51.0162 17.2209 51.0362 17.2609C51.0662 17.3209 51.0862 17.3809 51.1162 17.4509C51.1662 17.5409 51.2362 17.6109 51.3162 17.6709C51.3662 17.7209 51.4262 17.7509 51.4862 17.7709C51.5762 17.8209 51.6762 17.8409 51.7862 17.8409L51.9962 17.8109C52.0562 17.7809 52.1162 17.7609 52.1862 17.7309C52.2762 17.6809 52.3462 17.6109 52.4062 17.5309C52.4762 17.4609 52.5162 17.3709 52.5462 17.2709C52.5762 17.1209 52.5762 16.9909 52.5762 16.8409C52.5762 16.7409 52.5762 16.6309 52.5362 16.5409L52.5062 16.5009Z" fill="#DFC17D"/>
<path d="M44.7263 12.8909V12.8709C44.7263 12.8509 44.7063 12.8209 44.6963 12.8009C44.6763 12.7109 44.6263 12.6409 44.5663 12.5709C44.5063 12.5109 44.4263 12.4609 44.3363 12.4409C44.2463 12.4209 44.1563 12.4209 44.0663 12.4409C43.9763 12.4609 43.9063 12.5109 43.8363 12.5709C43.8163 12.5909 43.7963 12.6009 43.7763 12.6209C43.7463 12.6409 43.7363 12.6609 43.7063 12.7009C43.6463 12.7709 43.6663 12.7509 43.6263 12.8409C43.5963 12.8909 43.5863 12.9309 43.5863 12.9909C43.5863 13.0209 43.5863 13.0509 43.5763 13.0809C43.5763 13.1309 43.5763 13.1909 43.5663 13.2409C43.5663 13.2909 43.5763 13.3409 43.5863 13.3909C43.6063 13.4609 43.6363 13.5309 43.6863 13.5809C43.7063 13.6209 43.7463 13.6509 43.7863 13.6809C43.8363 13.7309 43.9063 13.7609 43.9763 13.7809C44.0263 13.7809 44.0763 13.7909 44.1263 13.8009C44.1763 13.8009 44.2263 13.7909 44.2763 13.7809C44.3463 13.7609 44.4163 13.7309 44.4663 13.6809C44.5263 13.6409 44.5763 13.5909 44.6063 13.5209C44.6263 13.4709 44.6463 13.4209 44.6763 13.3709C44.6963 13.3209 44.7163 13.2809 44.7363 13.2309C44.7363 13.1809 44.7463 13.1309 44.7563 13.0709C44.7563 13.0209 44.7463 12.9709 44.7363 12.9109L44.7263 12.8909Z" fill="#DFC17D"/>
<path d="M55.3463 61.0209C54.1563 58.6109 52.9663 56.2009 51.7863 53.7909C52.2763 53.7709 52.7663 53.7509 53.2563 53.7309C53.8463 53.7109 54.1563 53.1209 53.8963 52.6109C52.4763 49.8009 51.0463 46.9909 49.5463 44.2209C49.7563 44.2209 49.9663 44.2209 50.1863 44.2509C50.6763 44.3109 50.8463 43.7209 50.6963 43.3709C49.8663 41.4809 49.0263 39.6109 48.1763 37.7309C48.0763 37.5209 47.8663 37.4709 47.6763 37.5109C47.4763 37.4709 47.2663 37.5109 47.1763 37.7309C46.3263 39.6109 45.4863 41.4909 44.6563 43.3709C44.5063 43.7209 44.6663 44.3209 45.1663 44.2509C45.3863 44.2209 45.6063 44.2109 45.8063 44.2209C44.3063 46.9909 42.8863 49.8009 41.4563 52.6109C41.1963 53.1209 41.5163 53.7109 42.0963 53.7309C42.5863 53.7509 43.0763 53.7709 43.5663 53.7909C42.3763 56.2009 41.1963 58.6109 40.0063 61.0209C39.7563 61.5309 40.0563 62.1409 40.6563 62.1509C42.9963 62.1809 45.3263 62.1709 47.6663 62.1409C50.0063 62.1709 52.3363 62.1809 54.6763 62.1509C55.2763 62.1509 55.5763 61.5209 55.3263 61.0209H55.3463Z" fill="#6AA69E"/>
<path d="M30.1363 57.6809C29.3063 55.9909 28.4663 54.3009 27.6363 52.6109C27.9763 52.6009 28.3263 52.5809 28.6663 52.5709C29.0763 52.5509 29.2963 52.1409 29.1163 51.7809C28.1163 49.8109 27.1163 47.8409 26.0663 45.9009C26.2163 45.9009 26.3562 45.9009 26.5162 45.9209C26.8662 45.9609 26.9762 45.5509 26.8762 45.3009C26.2962 43.9809 25.7063 42.6609 25.1063 41.3509C25.0363 41.2009 24.8963 41.1709 24.7563 41.2009C24.6163 41.1709 24.4762 41.2009 24.4062 41.3509C23.8162 42.6709 23.2263 43.9809 22.6363 45.3009C22.5263 45.5509 22.6363 45.9609 22.9963 45.9209C23.1563 45.9009 23.3063 45.8909 23.4463 45.9009C22.3963 47.8409 21.3963 49.8109 20.3963 51.7809C20.2163 52.1409 20.4362 52.5509 20.8462 52.5709C21.1862 52.5809 21.5362 52.6009 21.8762 52.6109C21.0462 54.3009 20.2162 55.9909 19.3762 57.6809C19.2062 58.0309 19.4163 58.4709 19.8263 58.4709C21.4663 58.4909 23.1063 58.4809 24.7463 58.4709C26.3863 58.4909 28.0263 58.5009 29.6663 58.4709C30.0863 58.4709 30.2963 58.0309 30.1163 57.6809H30.1363Z" fill="#6AA69E"/>
<path d="M38.9062 35.4009C38.3062 34.1709 37.6963 32.9509 37.0963 31.7209C37.3463 31.7209 37.5963 31.7009 37.8463 31.6909C38.1463 31.6809 38.3063 31.3809 38.1763 31.1209C37.4563 29.6909 36.7263 28.2609 35.9663 26.8509C36.0763 26.8509 36.1762 26.8509 36.2962 26.8609C36.5462 26.8909 36.6363 26.5909 36.5563 26.4109C36.1363 25.4509 35.7063 24.5009 35.2763 23.5409C35.2263 23.4309 35.1163 23.4109 35.0163 23.4309C34.9163 23.4109 34.8063 23.4309 34.7563 23.5409C34.3263 24.4909 33.8963 25.4509 33.4763 26.4109C33.3963 26.5909 33.4763 26.8909 33.7363 26.8609C33.8463 26.8509 33.9563 26.8409 34.0663 26.8509C33.3063 28.2609 32.5763 29.6909 31.8563 31.1209C31.7263 31.3809 31.8862 31.6809 32.1862 31.6909C32.4362 31.6909 32.6862 31.7109 32.9362 31.7209C32.3362 32.9509 31.7263 34.1709 31.1263 35.4009C30.9963 35.6609 31.1563 35.9709 31.4563 35.9809C32.6463 35.9909 33.8363 35.9809 35.0263 35.9809C36.2163 36.0009 37.4063 36.0009 38.5963 35.9809C38.8963 35.9809 39.0563 35.6609 38.9263 35.4009H38.9062Z" fill="#6AA69E"/>
<path d="M64.4363 35.4009C63.8363 34.1709 63.2263 32.9509 62.6263 31.7209C62.8763 31.7209 63.1263 31.7009 63.3763 31.6909C63.6763 31.6809 63.8363 31.3809 63.7063 31.1209C62.9863 29.6909 62.2563 28.2609 61.4963 26.8509C61.6063 26.8509 61.7063 26.8509 61.8263 26.8609C62.0763 26.8909 62.1663 26.5909 62.0863 26.4109C61.6663 25.4509 61.2363 24.5009 60.8063 23.5409C60.7563 23.4309 60.6463 23.4109 60.5463 23.4309C60.4463 23.4109 60.3363 23.4309 60.2863 23.5409C59.8563 24.4909 59.4263 25.4509 59.0063 26.4109C58.9263 26.5909 59.0063 26.8909 59.2663 26.8609C59.3763 26.8509 59.4863 26.8409 59.5963 26.8509C58.8363 28.2609 58.1063 29.6909 57.3863 31.1209C57.2563 31.3809 57.4163 31.6809 57.7163 31.6909C57.9663 31.6909 58.2163 31.7109 58.4663 31.7209C57.8663 32.9509 57.2563 34.1709 56.6563 35.4009C56.5263 35.6609 56.6863 35.9709 56.9863 35.9809C58.1763 35.9909 59.3663 35.9809 60.5563 35.9809C61.7463 36.0009 62.9363 36.0009 64.1263 35.9809C64.4263 35.9809 64.5863 35.6609 64.4563 35.4009H64.4363Z" fill="#6AA69E"/>
<path d="M38.9062 76.2109C38.3062 74.9809 37.6963 73.7609 37.0963 72.5309C37.3463 72.5309 37.5963 72.5109 37.8463 72.5009C38.1463 72.4909 38.3063 72.1909 38.1763 71.9309C37.4563 70.5009 36.7263 69.0709 35.9663 67.6609C36.0763 67.6609 36.1762 67.6609 36.2962 67.6709C36.5462 67.7009 36.6363 67.4009 36.5563 67.2209C36.1363 66.2609 35.7063 65.3109 35.2763 64.3509C35.2263 64.2409 35.1163 64.2209 35.0163 64.2409C34.9163 64.2209 34.8063 64.2409 34.7563 64.3509C34.3263 65.3009 33.8963 66.2609 33.4763 67.2209C33.3963 67.4009 33.4763 67.7009 33.7363 67.6709C33.8463 67.6609 33.9563 67.6509 34.0663 67.6609C33.3063 69.0709 32.5763 70.5009 31.8563 71.9309C31.7263 72.1909 31.8862 72.4909 32.1862 72.5009C32.4362 72.5009 32.6862 72.5209 32.9362 72.5309C32.3362 73.7609 31.7263 74.9809 31.1263 76.2109C30.9963 76.4709 31.1563 76.7809 31.4563 76.7909C32.6463 76.8009 33.8363 76.7909 35.0263 76.7909C36.2163 76.8109 37.4063 76.8109 38.5963 76.7909C38.8963 76.7909 39.0563 76.4709 38.9263 76.2109H38.9062Z" fill="#6AA69E"/>
<path d="M64.4363 76.2109C63.8363 74.9809 63.2263 73.7609 62.6263 72.5309C62.8763 72.5309 63.1263 72.5109 63.3763 72.5009C63.6763 72.4909 63.8363 72.1909 63.7063 71.9309C62.9863 70.5009 62.2563 69.0709 61.4963 67.6609C61.6063 67.6609 61.7063 67.6609 61.8263 67.6709C62.0763 67.7009 62.1663 67.4009 62.0863 67.2209C61.6663 66.2609 61.2363 65.3109 60.8063 64.3509C60.7563 64.2409 60.6463 64.2209 60.5463 64.2409C60.4463 64.2209 60.3363 64.2409 60.2863 64.3509C59.8563 65.3009 59.4263 66.2609 59.0063 67.2209C58.9263 67.4009 59.0063 67.7009 59.2663 67.6709C59.3763 67.6609 59.4863 67.6509 59.5963 67.6609C58.8363 69.0709 58.1063 70.5009 57.3863 71.9309C57.2563 72.1909 57.4163 72.4909 57.7163 72.5009C57.9663 72.5009 58.2163 72.5209 58.4663 72.5309C57.8663 73.7609 57.2563 74.9809 56.6563 76.2109C56.5263 76.4709 56.6863 76.7809 56.9863 76.7909C58.1763 76.8009 59.3663 76.7909 60.5563 76.7909C61.7463 76.8109 62.9363 76.8109 64.1263 76.7909C64.4263 76.7909 64.5863 76.4709 64.4563 76.2109H64.4363Z" fill="#6AA69E"/>
<path d="M77.8363 57.6809C77.0063 55.9909 76.1663 54.3009 75.3363 52.6109C75.6763 52.6009 76.0263 52.5809 76.3663 52.5709C76.7763 52.5509 76.9963 52.1409 76.8163 51.7809C75.8163 49.8109 74.8163 47.8409 73.7663 45.9009C73.9163 45.9009 74.0563 45.9009 74.2163 45.9209C74.5663 45.9609 74.6763 45.5509 74.5763 45.3009C73.9963 43.9809 73.4063 42.6609 72.8063 41.3509C72.7363 41.2009 72.5963 41.1709 72.4563 41.2009C72.3163 41.1709 72.1763 41.2009 72.1063 41.3509C71.5163 42.6709 70.9263 43.9809 70.3363 45.3009C70.2263 45.5509 70.3363 45.9609 70.6963 45.9209C70.8563 45.9009 71.0063 45.8909 71.1463 45.9009C70.0963 47.8409 69.0963 49.8109 68.0963 51.7809C67.9163 52.1409 68.1363 52.5509 68.5463 52.5709C68.8863 52.5809 69.2363 52.6009 69.5763 52.6109C68.7463 54.3009 67.9163 55.9909 67.0763 57.6809C66.9063 58.0309 67.1163 58.4709 67.5363 58.4709C69.1763 58.4909 70.8163 58.4809 72.4563 58.4709C74.0963 58.4909 75.7363 58.5009 77.3763 58.4709C77.7963 58.4709 78.0063 58.0309 77.8263 57.6809H77.8363Z" fill="#6AA69E"/>
<path d="M36.8063 46.2209C36.4063 46.0109 35.9963 46.1409 35.7463 46.5009C35.5563 46.7809 35.3563 47.0509 35.1463 47.3309C35.1263 47.3609 35.0963 47.4009 35.0763 47.4309C35.0763 47.4309 35.0763 47.4309 35.0763 47.4409C35.0563 47.4609 35.0463 47.4809 35.0263 47.5109C34.7763 47.2909 34.5163 47.0609 34.2663 46.8409C33.9763 46.5909 33.5063 46.5309 33.2263 46.8409C32.9563 47.1409 32.9363 47.5909 33.2263 47.8809C33.5063 48.1709 33.7863 48.4509 34.0663 48.7409C34.0163 48.8109 33.9563 48.8809 33.9063 48.9509C33.8163 49.0809 33.7363 49.2309 33.6763 49.3709C33.5863 49.5809 33.5663 49.7809 33.6263 49.9909C33.5663 50.1209 33.7263 50.2909 33.8563 50.2009C34.0363 50.2409 34.2063 50.2409 34.3763 50.1709C34.5763 50.0909 34.7663 49.9609 34.9363 49.8209C34.9763 49.7909 35.0163 49.7509 35.0563 49.7109C35.0763 49.7309 35.0963 49.7509 35.1163 49.7609C35.2263 49.8709 35.3363 49.9709 35.4563 50.0809C35.6363 50.2509 35.8263 50.4609 36.0763 50.5009C36.3563 50.5409 36.6163 50.5109 36.8363 50.3009C37.0463 50.0909 37.0963 49.8209 37.0363 49.5409C36.9663 49.1709 36.5463 48.8809 36.2863 48.6309C36.2463 48.5909 36.1963 48.5509 36.1563 48.5109C36.4863 48.1009 36.8063 47.6909 37.1163 47.2709C37.3563 46.9409 37.1863 46.3909 36.8363 46.2109L36.8063 46.2209Z" fill="#F8C223"/>
<path d="M49.2863 25.7309C48.8863 25.5209 48.4763 25.6509 48.2263 26.0109C48.0363 26.2909 47.8363 26.5609 47.6263 26.8409C47.6063 26.8709 47.5763 26.9109 47.5563 26.9409C47.5563 26.9409 47.5563 26.9409 47.5563 26.9509C47.5363 26.9709 47.5263 26.9909 47.5063 27.0209C47.2563 26.8009 46.9963 26.5709 46.7463 26.3509C46.4563 26.1009 45.9863 26.0409 45.7063 26.3509C45.4363 26.6509 45.4163 27.1009 45.7063 27.3909C45.9863 27.6809 46.2663 27.9609 46.5463 28.2509C46.4963 28.3209 46.4363 28.3909 46.3863 28.4609C46.2963 28.5909 46.2163 28.7409 46.1563 28.8809C46.0663 29.0909 46.0463 29.2909 46.1063 29.5009C46.0463 29.6309 46.2063 29.8009 46.3363 29.7109C46.5063 29.7509 46.6763 29.7509 46.8563 29.6809C47.0563 29.6009 47.2463 29.4709 47.4163 29.3309C47.4563 29.3009 47.4963 29.2609 47.5363 29.2209C47.5563 29.2409 47.5763 29.2609 47.5963 29.2709C47.7063 29.3809 47.8163 29.4809 47.9363 29.5909C48.1163 29.7609 48.3063 29.9709 48.5563 30.0109C48.8363 30.0509 49.0963 30.0209 49.3163 29.8109C49.5263 29.6009 49.5763 29.3309 49.5163 29.0509C49.4463 28.6809 49.0263 28.3909 48.7663 28.1409C48.7263 28.1009 48.6763 28.0609 48.6363 28.0209C48.9663 27.6109 49.2863 27.2009 49.5963 26.7809C49.8363 26.4509 49.6663 25.9009 49.3163 25.7209L49.2863 25.7309Z" fill="#F8C223"/>
<path d="M49.2863 71.0109C48.8863 70.8009 48.4763 70.9309 48.2263 71.2909C48.0363 71.5709 47.8363 71.8409 47.6263 72.1209C47.6063 72.1509 47.5763 72.1909 47.5563 72.2209C47.5563 72.2209 47.5563 72.2209 47.5563 72.2309C47.5363 72.2509 47.5263 72.2709 47.5063 72.3009C47.2563 72.0809 46.9963 71.8509 46.7463 71.6309C46.4563 71.3809 45.9863 71.3209 45.7063 71.6309C45.4363 71.9309 45.4163 72.3809 45.7063 72.6709C45.9863 72.9609 46.2663 73.2409 46.5463 73.5309C46.4963 73.6009 46.4363 73.6709 46.3863 73.7409C46.2963 73.8709 46.2163 74.0209 46.1563 74.1609C46.0663 74.3709 46.0463 74.5709 46.1063 74.7809C46.0463 74.9109 46.2063 75.0809 46.3363 74.9909C46.5063 75.0309 46.6763 75.0309 46.8563 74.9609C47.0563 74.8809 47.2463 74.7509 47.4163 74.6109C47.4563 74.5809 47.4963 74.5409 47.5363 74.5009C47.5563 74.5209 47.5763 74.5409 47.5963 74.5509C47.7063 74.6609 47.8163 74.7609 47.9363 74.8709C48.1163 75.0409 48.3063 75.2509 48.5563 75.2909C48.8363 75.3309 49.0963 75.3009 49.3163 75.0909C49.5263 74.8809 49.5763 74.6109 49.5163 74.3309C49.4463 73.9609 49.0263 73.6709 48.7663 73.4209C48.7263 73.3809 48.6763 73.3409 48.6363 73.3009C48.9663 72.8909 49.2863 72.4809 49.5963 72.0609C49.8363 71.7309 49.6663 71.1809 49.3163 71.0009L49.2863 71.0109Z" fill="#F8C223"/>
<path d="M62.1363 43.8509C61.7363 43.6409 61.3263 43.7709 61.0763 44.1309C60.8863 44.4109 60.6863 44.6809 60.4763 44.9609C60.4563 44.9909 60.4262 45.0309 60.4062 45.0609C60.4062 45.0609 60.4062 45.0609 60.4062 45.0709C60.3862 45.0909 60.3763 45.1109 60.3563 45.1409C60.1063 44.9209 59.8463 44.6909 59.5963 44.4709C59.3063 44.2209 58.8363 44.1609 58.5563 44.4709C58.2863 44.7709 58.2663 45.2209 58.5563 45.5109C58.8363 45.8009 59.1163 46.0809 59.3963 46.3709C59.3463 46.4409 59.2863 46.5109 59.2363 46.5809C59.1463 46.7109 59.0663 46.8609 59.0063 47.0009C58.9163 47.2109 58.8963 47.4109 58.9563 47.6209C58.8963 47.7509 59.0562 47.9209 59.1862 47.8309C59.3662 47.8709 59.5263 47.8709 59.7063 47.8009C59.9063 47.7209 60.0962 47.5909 60.2662 47.4509C60.3062 47.4209 60.3463 47.3809 60.3863 47.3409C60.4063 47.3609 60.4263 47.3809 60.4463 47.3909C60.5563 47.5009 60.6663 47.6009 60.7863 47.7109C60.9663 47.8809 61.1562 48.0909 61.4062 48.1309C61.6862 48.1709 61.9463 48.1409 62.1663 47.9309C62.3763 47.7209 62.4263 47.4509 62.3663 47.1709C62.2963 46.8009 61.8763 46.5109 61.6163 46.2609C61.5763 46.2209 61.5263 46.1809 61.4863 46.1409C61.8163 45.7309 62.1363 45.3209 62.4463 44.9009C62.6863 44.5709 62.5163 44.0209 62.1663 43.8409L62.1363 43.8509Z" fill="#F8C223"/>
<path d="M72.2562 30.7709C71.9062 30.5909 71.5462 30.7009 71.3262 31.0109C71.1562 31.2609 70.9762 31.5009 70.7962 31.7409C70.7762 31.7709 70.7562 31.8009 70.7262 31.8309C70.7262 31.8309 70.7262 31.8309 70.7262 31.8409C70.7062 31.8609 70.6962 31.8809 70.6762 31.9009C70.4562 31.7009 70.2262 31.5109 70.0062 31.3109C69.7462 31.0909 69.3362 31.0409 69.0862 31.3109C68.8462 31.5709 68.8362 31.9709 69.0862 32.2309C69.3362 32.4809 69.5762 32.7409 69.8262 32.9909C69.7762 33.0509 69.7362 33.1109 69.6862 33.1709C69.6062 33.2809 69.5362 33.4209 69.4862 33.5409C69.4062 33.7309 69.3962 33.9009 69.4462 34.0909C69.3862 34.2109 69.5362 34.3509 69.6462 34.2809C69.7962 34.3209 69.9462 34.3209 70.1062 34.2509C70.2862 34.1809 70.4562 34.0609 70.5962 33.9409C70.6362 33.9109 70.6662 33.8809 70.6962 33.8509C70.7162 33.8709 70.7262 33.8809 70.7462 33.9009C70.8462 33.9909 70.9462 34.0909 71.0462 34.1809C71.2062 34.3309 71.3662 34.5209 71.5962 34.5509C71.8462 34.5909 72.0762 34.5609 72.2662 34.3709C72.4462 34.1909 72.4962 33.9509 72.4462 33.7009C72.3762 33.3709 72.0162 33.1209 71.7862 32.9009C71.7462 32.8609 71.7062 32.8309 71.6762 32.7909C71.9662 32.4309 72.2562 32.0709 72.5262 31.6909C72.7362 31.4009 72.5862 30.9209 72.2862 30.7609L72.2562 30.7709Z" fill="#F8C223"/>
<path d="M27.6663 65.3409C27.3163 65.1609 26.9563 65.2709 26.7363 65.5809C26.5663 65.8309 26.3863 66.0709 26.2063 66.3109C26.1863 66.3409 26.1663 66.3709 26.1363 66.4009C26.1363 66.4009 26.1363 66.4009 26.1363 66.4109C26.1163 66.4309 26.1063 66.4509 26.0863 66.4709C25.8663 66.2709 25.6363 66.0809 25.4163 65.8809C25.1563 65.6609 24.7463 65.6109 24.4963 65.8809C24.2563 66.1409 24.2463 66.5409 24.4963 66.8009C24.7463 67.0509 24.9863 67.3109 25.2363 67.5609C25.1863 67.6209 25.1463 67.6809 25.0963 67.7409C25.0163 67.8509 24.9463 67.9909 24.8963 68.1109C24.8163 68.3009 24.8063 68.4709 24.8563 68.6609C24.7963 68.7809 24.9463 68.9209 25.0563 68.8509C25.2063 68.8909 25.3563 68.8909 25.5163 68.8209C25.6963 68.7509 25.8663 68.6309 26.0063 68.5109C26.0463 68.4809 26.0763 68.4509 26.1063 68.4209C26.1263 68.4409 26.1363 68.4509 26.1563 68.4709C26.2563 68.5609 26.3563 68.6609 26.4563 68.7509C26.6163 68.9009 26.7763 69.0909 27.0063 69.1209C27.2563 69.1609 27.4863 69.1309 27.6763 68.9409C27.8563 68.7609 27.9063 68.5209 27.8563 68.2709C27.7863 67.9409 27.4263 67.6909 27.1963 67.4709C27.1563 67.4309 27.1163 67.4009 27.0863 67.3609C27.3763 67.0009 27.6663 66.6409 27.9363 66.2609C28.1463 65.9709 27.9963 65.4909 27.6963 65.3309L27.6663 65.3409Z" fill="#F8C223"/>
<path d="M27.6663 31.7709C27.3163 31.5909 26.9563 31.7009 26.7363 32.0109C26.5663 32.2609 26.3863 32.5009 26.2063 32.7409C26.1863 32.7709 26.1663 32.8009 26.1363 32.8309C26.1363 32.8309 26.1363 32.8309 26.1363 32.8409C26.1163 32.8609 26.1063 32.8809 26.0863 32.9009C25.8663 32.7009 25.6363 32.5109 25.4163 32.3109C25.1563 32.0909 24.7463 32.0409 24.4963 32.3109C24.2563 32.5709 24.2463 32.9709 24.4963 33.2309C24.7463 33.4809 24.9863 33.7409 25.2363 33.9909C25.1863 34.0509 25.1463 34.1109 25.0963 34.1709C25.0163 34.2809 24.9463 34.4209 24.8963 34.5409C24.8163 34.7309 24.8063 34.9009 24.8563 35.0909C24.7963 35.2109 24.9463 35.3509 25.0563 35.2809C25.2063 35.3209 25.3563 35.3209 25.5163 35.2509C25.6963 35.1809 25.8663 35.0609 26.0063 34.9409C26.0463 34.9109 26.0763 34.8809 26.1063 34.8509C26.1263 34.8709 26.1363 34.8809 26.1563 34.9009C26.2563 34.9909 26.3563 35.0909 26.4563 35.1809C26.6163 35.3309 26.7763 35.5209 27.0063 35.5509C27.2563 35.5909 27.4863 35.5609 27.6763 35.3709C27.8563 35.1909 27.9063 34.9509 27.8563 34.7009C27.7863 34.3709 27.4263 34.1209 27.1963 33.9009C27.1563 33.8609 27.1163 33.8309 27.0863 33.7909C27.3763 33.4309 27.6663 33.0709 27.9363 32.6909C28.1463 32.4009 27.9963 31.9209 27.6963 31.7609L27.6663 31.7709Z" fill="#F8C223"/>
<path d="M74.1863 66.9809C73.9163 65.9209 72.8663 65.1809 71.7963 65.1609C70.9763 65.1509 70.1563 65.5309 69.6163 66.1509C69.4463 66.3509 69.2863 66.5609 69.1163 66.7609C68.7663 67.1709 68.3963 67.5709 68.0163 67.9609C67.1263 68.8709 65.9063 69.7009 65.4863 70.9209C65.2363 71.4209 65.1963 71.9709 65.3363 72.4909C65.3663 72.7609 65.4663 73.0309 65.6463 73.2609C65.8063 73.4709 66.0063 73.6209 66.2263 73.7209C66.6563 74.0009 67.1663 74.1109 67.6763 74.0609C67.7063 74.0609 67.7363 74.0609 67.7663 74.0609C68.2063 74.0609 68.5863 73.9009 68.9863 73.7309C69.1263 73.6709 69.2563 73.6109 69.3863 73.5509C69.7863 73.3709 70.1263 73.0409 70.4663 72.7509C70.8963 72.3909 71.3163 72.0209 71.7163 71.6309C72.1063 71.2609 72.4863 70.8709 72.8463 70.4709C73.0263 70.2809 73.1963 70.0809 73.3663 69.8809C73.6863 69.4909 73.8863 69.2309 74.0663 68.7909C74.3163 68.2009 74.3463 67.5909 74.1863 66.9709V66.9809Z" fill="#FF6C82"/>
<path d="M77.9263 62.0609C77.8463 61.8109 77.7063 61.6009 77.5163 61.4209L77.1163 61.1109C76.8063 60.9309 76.4663 60.8409 76.1063 60.8409L75.5763 60.9109C75.2363 61.0009 74.9463 61.1809 74.6963 61.4209C74.5763 61.5109 74.4763 61.6209 74.3763 61.7309C74.3163 61.8009 74.2563 61.8709 74.1963 61.9409C74.0463 62.1309 73.8663 62.3309 73.7363 62.5409C73.7163 62.5809 73.6963 62.6209 73.6763 62.6709C73.5963 62.8609 73.5163 63.0509 73.4363 63.2409C73.4063 63.3209 73.3663 63.4009 73.3463 63.4909C73.2263 63.9409 73.2763 64.4309 73.3663 64.8809C73.4463 65.1709 73.5963 65.4209 73.8063 65.6409C74.0163 65.8509 74.2763 66.0009 74.5663 66.0809C74.8663 66.1609 75.1763 66.1609 75.4763 66.0809C75.7663 66.0009 76.0163 65.8509 76.2363 65.6409C76.3263 65.5409 76.4263 65.4509 76.5263 65.3709L76.4363 65.4409C76.5063 65.3809 76.5763 65.3209 76.6363 65.2509C76.6763 65.2009 76.7163 65.1509 76.7663 65.1009C76.8563 65.0009 76.9363 64.9009 77.0163 64.8009C77.1663 64.6009 77.3363 64.4109 77.5263 64.2609C77.7263 64.0809 77.8563 63.8609 77.9363 63.6209C78.0663 63.3809 78.1163 63.1209 78.1063 62.8509C78.1163 62.5709 78.0563 62.3209 77.9363 62.0809L77.9263 62.0609Z" fill="#FF6C82"/>
<path d="M72.2562 65.3409C71.9062 65.1609 71.5462 65.2709 71.3262 65.5809C71.1562 65.8309 70.9762 66.0709 70.7962 66.3109C70.7762 66.3409 70.7562 66.3709 70.7262 66.4009C70.7262 66.4009 70.7262 66.4009 70.7262 66.4109C70.7062 66.4309 70.6962 66.4509 70.6762 66.4709C70.4562 66.2709 70.2262 66.0809 70.0062 65.8809C69.7462 65.6609 69.3362 65.6109 69.0862 65.8809C68.8462 66.1409 68.8362 66.5409 69.0862 66.8009C69.3362 67.0509 69.5762 67.3109 69.8262 67.5609C69.7762 67.6209 69.7362 67.6809 69.6862 67.7409C69.6062 67.8509 69.5362 67.9909 69.4862 68.1109C69.4062 68.3009 69.3962 68.4709 69.4462 68.6609C69.3862 68.7809 69.5362 68.9209 69.6462 68.8509C69.7962 68.8909 69.9462 68.8909 70.1062 68.8209C70.2862 68.7509 70.4562 68.6309 70.5962 68.5109C70.6362 68.4809 70.6662 68.4509 70.6962 68.4209C70.7162 68.4409 70.7262 68.4509 70.7462 68.4709C70.8462 68.5609 70.9462 68.6609 71.0462 68.7509C71.2062 68.9009 71.3662 69.0909 71.5962 69.1209C71.8462 69.1609 72.0762 69.1309 72.2662 68.9409C72.4462 68.7609 72.4962 68.5209 72.4462 68.2709C72.3762 67.9409 72.0162 67.6909 71.7862 67.4709C71.7462 67.4309 71.7062 67.4009 71.6762 67.3609C71.9662 67.0009 72.2562 66.6409 72.5262 66.2609C72.7362 65.9709 72.5862 65.4909 72.2862 65.3309L72.2562 65.3409Z" fill="#F8C223"/>
</svg>
