<svg width="81" height="91" viewBox="0 0 81 91" fill="none" xmlns="http://www.w3.org/2000/svg">
<path d="M44.6463 2.31085C44.1163 1.38085 43.2863 0.580854 42.2063 0.360854C41.1263 0.140854 40.0363 0.540846 39.1763 1.18085C37.4463 2.48085 36.5463 4.71085 36.4863 6.84085C36.4463 8.06085 36.7063 9.25085 37.2063 10.3609C37.4863 10.9809 37.8463 11.5609 38.1563 12.1709C38.2863 12.4409 38.3963 12.7108 38.5263 12.9808C38.5763 13.0908 38.8763 13.9108 38.9663 13.8408C38.6263 14.0708 38.7263 14.6808 39.1863 14.6508C40.0963 14.6108 40.1163 13.4709 40.0563 12.7809C39.9563 11.7409 39.3463 10.8208 38.9063 9.90085C38.0663 8.15085 37.9763 6.11085 38.8363 4.34085C39.5963 2.78085 41.7263 0.910848 43.0463 3.01085C44.1063 4.69085 44.0463 6.98086 43.0163 8.66086C42.3963 9.69086 41.5563 10.5209 41.2463 11.7209C40.9463 12.8709 40.8763 14.2209 41.4063 15.3009C41.6663 15.8409 42.4563 15.6509 42.6163 15.1409C42.9863 13.9909 42.6163 12.7609 43.1263 11.6409C43.6163 10.5809 44.4963 9.77085 44.9663 8.68085C45.8263 6.66085 45.7563 4.23085 44.6563 2.31085H44.6463Z" fill="#9E6328"/>
<path d="M72.9762 58.284C77.1948 40.2415 65.9882 22.1953 47.9456 17.9767C29.9031 13.7582 11.8569 24.9648 7.63837 43.0073C3.41981 61.0498 14.6264 79.096 32.6689 83.3146C50.7114 87.5331 68.7576 76.3266 72.9762 58.284Z" fill="#F8C223"/>
<path d="M47.4364 72.4709C28.9064 72.4709 13.8864 57.4509 13.8864 38.9209C13.8864 35.0109 14.5664 31.2609 15.7964 27.7609C10.1964 33.7609 6.76636 41.8009 6.76636 50.6509C6.76636 69.1809 21.7864 84.2009 40.3164 84.2009C54.9364 84.2009 67.3664 74.8509 71.9664 61.8009C65.8464 68.3609 57.1264 72.4609 47.4464 72.4609L47.4364 72.4709Z" fill="#F19F26"/>
<path d="M45.7963 14.0409C45.7463 13.3409 45.6463 12.6109 45.1463 12.0809C44.5663 11.4609 43.6463 11.4309 42.8663 11.3409C41.1663 11.1509 39.4463 11.1909 37.7463 11.3709C36.8363 11.4709 35.8263 11.4609 35.2863 12.3309C34.4663 13.6509 34.2363 16.7209 35.1763 18.0609C35.6863 18.7909 36.6163 18.8209 37.3363 18.3909C37.7763 18.1209 38.0363 17.6309 38.3863 17.2809C38.9163 17.8409 39.2663 18.6309 40.1263 18.6209C40.5963 18.6209 41.0463 18.3509 41.3663 18.0309C41.4863 17.9009 41.6063 17.7109 41.7363 17.5509C42.6163 18.5509 44.0863 19.8409 45.1563 18.7509C45.6863 18.2109 45.7063 17.3409 45.7663 16.6409C45.8363 15.7809 45.8463 14.9109 45.7863 14.0509L45.7963 14.0409Z" fill="#D3A040"/>
<path d="M45.1763 14.1608C45.1663 14.0808 45.1463 14.0008 45.1263 13.9208C45.0663 13.6908 45.0063 13.4608 44.8963 13.2508C44.8263 13.1108 44.7363 12.9708 44.6463 12.8408C44.5163 12.6508 44.4063 12.5008 44.1863 12.4108C44.1063 12.3808 44.0263 12.3508 43.9463 12.3208C43.7063 12.2408 43.3463 12.3708 43.2263 12.6108C43.1763 12.7208 43.1063 12.8308 43.0763 12.9408C43.0363 13.0908 43.0563 13.2208 43.0563 13.3708C43.0563 13.4608 43.0563 13.5408 43.0563 13.6308C43.0563 13.7308 43.0663 13.8308 43.0763 13.9208C43.0863 14.0408 43.1063 14.1508 43.1063 14.2708C43.1063 14.3708 43.1163 14.4708 43.1263 14.5708C43.1563 14.7608 43.2363 14.9208 43.3163 15.0908C43.3663 15.1608 43.4163 15.2208 43.4663 15.2908C43.5363 15.3408 43.5963 15.3908 43.6663 15.4408C43.8563 15.5508 44.0763 15.5908 44.2963 15.5608C44.6763 15.5108 45.0163 15.2308 45.1163 14.8508C45.1263 14.8108 45.1363 14.7808 45.1463 14.7408C45.1963 14.5308 45.1963 14.3608 45.1463 14.1508L45.1763 14.1608Z" fill="#DFC17D"/>
<path d="M44.9363 16.6509C44.9363 16.6509 44.9063 16.5809 44.8963 16.5409C44.8763 16.4809 44.8463 16.4209 44.8263 16.3709C44.7763 16.2909 44.7163 16.2209 44.6363 16.1709C44.5863 16.1209 44.5363 16.0909 44.4763 16.0809C44.3863 16.0309 44.2963 16.0109 44.1963 16.0209C44.1363 16.0209 44.0663 16.0409 44.0063 16.0509C43.9463 16.0709 43.8863 16.1009 43.8363 16.1209C43.7563 16.1709 43.6863 16.2309 43.6363 16.3109C43.5763 16.3809 43.5263 16.4609 43.5063 16.5609C43.4963 16.6009 43.4763 16.6309 43.4663 16.6709C43.4663 16.6709 43.4663 16.6909 43.4663 16.7009C43.4663 16.7709 43.4463 16.8409 43.4363 16.9109C43.4363 16.9109 43.4363 16.9609 43.4363 16.9809V17.1509V17.1709C43.4363 17.2109 43.4363 17.2509 43.4463 17.2909C43.4463 17.3309 43.4463 17.3709 43.4663 17.4109C43.4963 17.4709 43.5163 17.5309 43.5463 17.6009C43.5963 17.6909 43.6663 17.7609 43.7463 17.8209C43.7963 17.8709 43.8563 17.9009 43.9163 17.9209C44.0063 17.9709 44.1063 17.9909 44.2163 17.9909L44.4263 17.9609C44.4863 17.9309 44.5463 17.9109 44.6163 17.8809C44.7063 17.8309 44.7763 17.7609 44.8363 17.6809C44.9063 17.6109 44.9463 17.5209 44.9763 17.4209C45.0063 17.2709 45.0063 17.1409 45.0063 16.9909C45.0063 16.8909 45.0063 16.7809 44.9663 16.6909L44.9363 16.6509Z" fill="#DFC17D"/>
<path d="M37.1563 13.0409V13.0209C37.1563 13.0009 37.1363 12.9709 37.1263 12.9509C37.1063 12.8609 37.0563 12.7909 36.9963 12.7209C36.9363 12.6609 36.8563 12.6109 36.7663 12.5909C36.6763 12.5709 36.5863 12.5709 36.4963 12.5909C36.4063 12.6109 36.3363 12.6609 36.2663 12.7209C36.2463 12.7409 36.2263 12.7509 36.2063 12.7709C36.1763 12.7909 36.1663 12.8109 36.1363 12.8509C36.0763 12.9209 36.0963 12.9009 36.0563 12.9909C36.0263 13.0409 36.0163 13.0809 36.0163 13.1409C36.0163 13.1709 36.0163 13.2009 36.0063 13.2309C36.0063 13.2809 36.0063 13.3409 35.9963 13.3909C35.9963 13.4409 36.0063 13.4909 36.0163 13.5409C36.0363 13.6109 36.0663 13.6809 36.1163 13.7309C36.1363 13.7709 36.1763 13.8009 36.2163 13.8309C36.2663 13.8809 36.3363 13.9109 36.4063 13.9309C36.4563 13.9309 36.5063 13.9409 36.5563 13.9509C36.6063 13.9509 36.6563 13.9409 36.7063 13.9309C36.7763 13.9109 36.8463 13.8809 36.8963 13.8309C36.9563 13.7909 37.0063 13.7409 37.0363 13.6709C37.0563 13.6209 37.0763 13.5709 37.1063 13.5209C37.1263 13.4709 37.1463 13.4309 37.1663 13.3809C37.1663 13.3309 37.1763 13.2809 37.1863 13.2209C37.1863 13.1709 37.1763 13.1209 37.1663 13.0609L37.1563 13.0409Z" fill="#DFC17D"/>
<path d="M46.7964 49.2509C46.6864 48.4909 46.2364 47.8409 45.8764 47.1809C45.5064 46.5209 45.1464 45.8509 44.7864 45.1709C44.0664 43.7709 43.3964 42.3509 42.7764 40.9109C42.4764 40.2009 41.7364 40.0609 41.1064 40.2809C40.9264 40.2509 40.7464 40.2509 40.5964 40.2909C39.8364 40.5209 39.5664 41.2009 39.2364 41.8609C38.8664 42.6109 38.4964 43.3609 38.1164 44.1009C37.3564 45.6209 36.5264 47.1209 35.8564 48.6809C35.1464 50.3309 36.2964 51.7109 37.1164 53.0809C38.0164 54.6009 38.9564 56.0909 39.7764 57.6609C40.2664 58.5809 41.5264 58.4409 42.0464 57.6609C42.9364 56.3209 43.7864 54.9509 44.6564 53.6009C45.0864 52.9209 45.5264 52.2409 45.9564 51.5709C46.4264 50.8409 46.9264 50.1709 46.7964 49.2509Z" fill="white"/>
<path d="M29.0963 49.2508C29.0063 48.6208 28.6363 48.0708 28.3263 47.5308C28.0163 46.9808 27.7163 46.4208 27.4263 45.8608C26.8263 44.7008 26.2663 43.5108 25.7563 42.3108C25.5063 41.7208 24.8863 41.6108 24.3663 41.7908C24.2163 41.7608 24.0663 41.7609 23.9363 41.8009C23.3063 41.9909 23.0763 42.5608 22.8063 43.1108C22.4963 43.7308 22.1863 44.3608 21.8763 44.9808C21.2463 46.2408 20.5563 47.5008 19.9963 48.7908C19.4063 50.1608 20.3663 51.3109 21.0463 52.4609C21.7963 53.7209 22.5763 54.9709 23.2663 56.2709C23.6663 57.0409 24.7263 56.9209 25.1563 56.2709C25.8963 55.1509 26.6063 54.0109 27.3263 52.8809C27.6863 52.3209 28.0463 51.7509 28.4163 51.1909C28.8063 50.5809 29.2263 50.0208 29.1163 49.2608L29.0963 49.2508Z" fill="white"/>
<path d="M60.3963 49.2508C60.3063 48.6208 59.9363 48.0708 59.6263 47.5308C59.3163 46.9808 59.0163 46.4208 58.7263 45.8608C58.1263 44.7008 57.5663 43.5108 57.0563 42.3108C56.8063 41.7208 56.1863 41.6108 55.6663 41.7908C55.5163 41.7608 55.3663 41.7609 55.2363 41.8009C54.6063 41.9909 54.3763 42.5608 54.1063 43.1108C53.7963 43.7308 53.4863 44.3608 53.1763 44.9808C52.5463 46.2408 51.8563 47.5008 51.2963 48.7908C50.7063 50.1608 51.6663 51.3109 52.3463 52.4609C53.0963 53.7209 53.8763 54.9709 54.5663 56.2709C54.9663 57.0409 56.0263 56.9209 56.4563 56.2709C57.1963 55.1509 57.9063 54.0109 58.6263 52.8809C58.9863 52.3209 59.3463 51.7509 59.7163 51.1909C60.1063 50.5809 60.5263 50.0208 60.4163 49.2608L60.3963 49.2508Z" fill="white"/>
<path d="M16.5563 49.2509C16.4863 48.7809 16.2063 48.3709 15.9863 47.9609C15.7563 47.5509 15.5263 47.1309 15.3163 46.7109C14.8663 45.8409 14.4563 44.9609 14.0663 44.0609C13.8763 43.6209 13.4163 43.5309 13.0263 43.6709C12.9163 43.6509 12.8063 43.6509 12.7063 43.6709C12.2363 43.8109 12.0663 44.2409 11.8563 44.6509C11.6263 45.1109 11.3963 45.5809 11.1663 46.0409C10.6963 46.9809 10.1763 47.9209 9.75633 48.8809C9.31633 49.9009 10.0263 50.7609 10.5363 51.6209C11.0963 52.5609 11.6763 53.4909 12.1863 54.4609C12.4863 55.0309 13.2763 54.9509 13.5963 54.4609C14.1463 53.6309 14.6763 52.7809 15.2163 51.9309C15.4863 51.5109 15.7563 51.0909 16.0263 50.6709C16.3163 50.2209 16.6363 49.8009 16.5463 49.2309L16.5563 49.2509Z" fill="white"/>
<path d="M71.7063 49.9909C71.6363 49.5209 71.3563 49.1108 71.1363 48.7008C70.9063 48.2908 70.6763 47.8708 70.4663 47.4508C70.0163 46.5808 69.6063 45.7009 69.2163 44.8009C69.0263 44.3609 68.5663 44.2709 68.1763 44.4109C68.0663 44.3909 67.9563 44.3909 67.8563 44.4109C67.3863 44.5509 67.2163 44.9809 67.0063 45.3909C66.7763 45.8509 66.5463 46.3208 66.3163 46.7808C65.8463 47.7208 65.3263 48.6609 64.9064 49.6309C64.4664 50.6509 65.1763 51.5108 65.6863 52.3708C66.2463 53.3108 66.8264 54.2409 67.3364 55.2109C67.6364 55.7809 68.4264 55.7009 68.7464 55.2109C69.2964 54.3809 69.8263 53.5308 70.3663 52.6808C70.6363 52.2608 70.9063 51.8408 71.1763 51.4208C71.4663 50.9708 71.7864 50.5508 71.6964 49.9808L71.7063 49.9909Z" fill="white"/>
<path d="M18.8463 37.3909C18.7964 37.2309 18.7163 37.0809 18.5963 36.9609C18.4563 36.7509 18.2764 36.5809 18.0563 36.4609C17.7564 36.2809 17.4263 36.2009 17.0763 36.1909C16.8063 36.1809 16.5563 36.2409 16.3263 36.3609C16.0863 36.4409 15.8763 36.5709 15.6963 36.7609C15.4563 37.0009 15.2863 37.2909 15.1963 37.6209C15.1963 37.6509 15.1763 37.6809 15.1663 37.7109C15.0863 37.9609 15.0763 38.2009 15.1363 38.4509C15.1463 38.7009 15.2164 38.9309 15.3564 39.1409C15.4564 39.2709 15.5464 39.3909 15.6464 39.5209C15.8764 39.7509 16.1563 39.9109 16.4663 40.0009C16.4963 40.0009 16.5263 40.0109 16.5563 40.0209C16.8163 40.1009 17.0763 40.1109 17.3363 40.0509C17.5963 40.0409 17.8363 39.9609 18.0563 39.8209C18.1863 39.7209 18.3163 39.6209 18.4463 39.5209C18.6863 39.2809 18.8563 38.9909 18.9463 38.6609C18.9463 38.6609 18.9463 38.6609 18.9463 38.6509C18.9663 38.4809 18.9964 38.3109 19.0164 38.1409C19.0264 37.8709 18.9663 37.6209 18.8463 37.3909Z" fill="#6AA69E"/>
<path d="M33.7563 37.2409C33.6463 36.8509 33.4463 36.5109 33.1663 36.2209C33.0063 36.1009 32.8563 35.9809 32.6963 35.8609C32.3363 35.6509 31.9463 35.5509 31.5363 35.5509C31.2163 35.5409 30.9263 35.6009 30.6463 35.7509C30.3563 35.8409 30.1163 36.0009 29.9063 36.2309C29.6863 36.4409 29.5263 36.6909 29.4263 36.9709C29.2863 37.2409 29.2163 37.5409 29.2263 37.8609C29.2563 38.0609 29.2763 38.2709 29.3063 38.4709C29.4163 38.8609 29.6163 39.2009 29.8963 39.4909C30.0563 39.6109 30.2063 39.7309 30.3663 39.8509C30.7263 40.0609 31.1163 40.1609 31.5263 40.1609C31.8463 40.1709 32.1363 40.1109 32.4163 39.9609C32.7063 39.8709 32.9463 39.7109 33.1563 39.4809C33.3763 39.2709 33.5363 39.0209 33.6363 38.7409C33.7763 38.4709 33.8463 38.1709 33.8363 37.8509C33.8063 37.6509 33.7863 37.4409 33.7563 37.2409Z" fill="#6AA69E"/>
<path d="M51.5163 37.7308C51.4063 37.3208 51.1963 36.9708 50.8963 36.6708C50.7363 36.5408 50.5763 36.4208 50.4063 36.3008C50.0363 36.0808 49.6263 35.9708 49.1963 35.9708C48.8663 35.9608 48.5563 36.0308 48.2763 36.1808C47.9763 36.2808 47.7263 36.4408 47.5063 36.6808C47.2763 36.9008 47.1063 37.1508 47.0063 37.4508C46.8563 37.7408 46.7863 38.0408 46.7963 38.3708C46.8263 38.5808 46.8563 38.7908 46.8863 39.0108C46.9963 39.4208 47.2063 39.7709 47.5063 40.0709C47.6663 40.1909 47.8263 40.3208 47.9963 40.4408C48.3663 40.6608 48.7763 40.7709 49.2063 40.7709C49.5363 40.7809 49.8463 40.7108 50.1263 40.5608C50.4263 40.4608 50.6763 40.3008 50.8963 40.0608C51.1263 39.8408 51.2963 39.5908 51.3963 39.2908C51.5463 39.0008 51.6163 38.7008 51.6063 38.3708L51.5163 37.7308Z" fill="#6AA69E"/>
<path d="M65.8263 38.0209C65.8263 38.0209 65.5763 37.4408 65.5763 37.4308C65.4663 37.2508 65.3363 37.0808 65.1963 36.9308C65.0563 36.7808 64.8963 36.6509 64.7063 36.5509C64.5163 36.4709 64.3163 36.3908 64.1263 36.3108C63.8763 36.2308 63.6763 36.2109 63.4763 36.2209C63.4763 36.2209 63.4763 36.2209 63.4663 36.2209C63.4463 36.2209 63.4163 36.2209 63.3963 36.2209C63.1963 36.2209 63.0063 36.2409 62.8063 36.3009C62.6063 36.3809 62.4163 36.4609 62.2163 36.5509C62.0463 36.6709 61.8863 36.8008 61.7163 36.9308C61.4163 37.2408 61.2063 37.6008 61.0863 38.0108C61.0563 38.2308 61.0263 38.4409 60.9963 38.6609C60.9963 39.1009 61.1063 39.5108 61.3263 39.9008C61.4763 40.1908 61.6863 40.4108 61.9563 40.5908C62.1963 40.8108 62.4663 40.9508 62.7863 41.0308C63.1163 41.1308 63.4363 41.1509 63.7663 41.0709C64.0963 41.0609 64.3963 40.9608 64.6763 40.7808C65.0463 40.5608 65.3363 40.2708 65.5563 39.9008C65.6463 39.7108 65.7263 39.5108 65.8063 39.3108C65.9263 38.8808 65.9263 38.4408 65.8063 38.0108L65.8263 38.0209Z" fill="#6AA69E"/>
<path d="M18.5363 60.0409C18.5363 59.9009 18.4963 59.7709 18.4263 59.6409C18.3863 59.5109 18.3263 59.3909 18.2263 59.2909C18.1163 59.1209 17.9663 58.9809 17.7863 58.8809C17.7563 58.8609 17.7263 58.8509 17.7063 58.8309C17.4563 58.6609 17.1163 58.5909 16.8163 58.6109C16.6763 58.6309 16.5363 58.6509 16.3963 58.6709C16.1863 58.7209 16.0063 58.8109 15.8563 58.9609C15.7363 59.0309 15.6363 59.1309 15.5663 59.2509C15.4263 59.4009 15.3263 59.5809 15.2763 59.7909C15.2563 59.9309 15.2363 60.0709 15.2163 60.2109C15.2363 60.3509 15.2563 60.4909 15.2763 60.6309C15.3263 60.8409 15.4163 61.0209 15.5663 61.1709C15.6763 61.3409 15.8263 61.4809 16.0163 61.5809C16.0263 61.5909 16.0463 61.6009 16.0563 61.6109C16.1763 61.6809 16.3163 61.7409 16.4563 61.7809C16.7463 61.8609 17.0263 61.8609 17.3163 61.7809C17.3463 61.7809 17.3863 61.7609 17.4163 61.7509C17.5463 61.7009 17.6663 61.6409 17.7963 61.5909C17.9063 61.5109 18.0063 61.4309 18.1163 61.3409C18.1963 61.2309 18.2763 61.1309 18.3663 61.0209C18.4863 60.8409 18.5463 60.6409 18.5563 60.4309C18.5963 60.2909 18.5963 60.1509 18.5563 60.0109L18.5363 60.0409Z" fill="#6AA69E"/>
<path d="M33.1463 61.1609C32.9563 60.8409 32.6963 60.5809 32.3763 60.3909C32.2263 60.2809 32.0563 60.2109 31.8563 60.1709C31.8263 60.1709 31.7863 60.1709 31.7563 60.1609C31.5863 60.1109 31.4263 60.0909 31.2563 60.1009C31.1463 60.1009 31.0363 60.1009 30.9363 60.1309C30.6463 60.1409 30.3863 60.2309 30.1363 60.3809C29.9963 60.4909 29.8463 60.6009 29.7063 60.7209C29.4963 60.9109 29.3463 61.1409 29.2663 61.4109C29.1663 61.5809 29.1163 61.7608 29.1163 61.9508C29.0563 62.2308 29.0663 62.5209 29.1563 62.8009C29.2263 62.9709 29.2963 63.1408 29.3763 63.3108C29.5663 63.6308 29.8263 63.8909 30.1463 64.0809C30.1463 64.0809 30.1563 64.0808 30.1663 64.0908C30.1663 64.0908 30.1663 64.0908 30.1763 64.0908C30.2663 64.1308 30.3463 64.1608 30.4363 64.2008C30.5263 64.2408 30.6063 64.2708 30.6963 64.3108C30.6963 64.3108 30.7063 64.3108 30.7163 64.3108C30.8063 64.3308 31.0063 64.3509 31.0063 64.3509C31.2963 64.4109 31.5763 64.4008 31.8663 64.3108C32.0563 64.2708 32.2263 64.2008 32.3863 64.0908C32.7063 63.9008 32.9663 63.6409 33.1563 63.3209C33.3463 62.9809 33.4463 62.6208 33.4463 62.2308C33.4463 61.8408 33.3463 61.4809 33.1563 61.1409L33.1463 61.1609Z" fill="#6AA69E"/>
<path d="M50.7163 62.4408C50.7163 62.2408 50.6663 62.0508 50.5663 61.8708C50.5163 61.6808 50.4163 61.5108 50.2763 61.3708C50.1763 61.2008 50.0463 61.0708 49.8763 60.9708C49.6563 60.7708 49.4063 60.6408 49.1063 60.5708C49.0663 60.5608 49.0163 60.5508 48.9763 60.5408C48.1763 60.3308 47.3063 60.5408 46.7163 61.1408C46.4263 61.4308 46.2263 61.7708 46.1163 62.1608C46.0163 62.4708 46.0063 62.7808 46.0763 63.0808C46.0863 63.3908 46.1863 63.6808 46.3563 63.9408C46.5663 64.2908 46.8363 64.5708 47.1863 64.7708C47.5463 64.9808 47.9363 65.0908 48.3563 65.0908C48.7763 65.0908 49.1663 64.9808 49.5263 64.7708C49.5663 64.7408 49.6063 64.7108 49.6363 64.6808C49.7863 64.5608 49.9363 64.4508 50.0963 64.3308C50.2163 64.1808 50.3263 64.0308 50.4463 63.8708C50.5263 63.6908 50.5963 63.5108 50.6763 63.3308C50.7663 63.0308 50.7863 62.7308 50.7163 62.4308V62.4408Z" fill="#6AA69E"/>
<path d="M64.2564 61.8108C64.1464 61.4208 63.9464 61.0708 63.6564 60.7808C63.4964 60.6608 63.3464 60.5408 63.1864 60.4208C62.8264 60.2108 62.4264 60.1009 62.0064 60.1009C61.6864 60.0909 61.3864 60.1509 61.1064 60.3009C60.8164 60.3909 60.5664 60.5508 60.3564 60.7808C60.1264 60.9908 59.9664 61.2408 59.8764 61.5308C59.7264 61.8108 59.6664 62.1108 59.6764 62.4308C59.7064 62.6408 59.7364 62.8409 59.7564 63.0509C59.8664 63.4509 60.0664 63.7909 60.3564 64.0809C60.5164 64.2009 60.6664 64.3209 60.8264 64.4409C61.1864 64.6509 61.5864 64.7608 62.0064 64.7608C62.3264 64.7708 62.6264 64.7108 62.9064 64.5608C63.1964 64.4708 63.4464 64.3109 63.6564 64.0809C63.8864 63.8709 64.0464 63.6209 64.1364 63.3309C64.2864 63.0509 64.3464 62.7508 64.3364 62.4308C64.3064 62.2208 64.2764 62.0208 64.2564 61.8108Z" fill="#6AA69E"/>
<path d="M51.7963 74.4509C43.5763 73.6309 35.1363 74.2508 27.1463 76.3608C25.1463 76.8908 23.1763 77.5209 21.2363 78.2609C21.7963 78.6509 22.3663 79.0309 22.9563 79.3809C24.0063 79.0409 25.0663 78.7109 26.1363 78.4209C29.9663 77.3509 33.8963 76.6309 37.8663 76.2709C45.1863 75.6109 52.5763 76.2509 59.7063 78.0309C60.4863 77.4709 61.2463 76.8909 61.9863 76.2709C58.6463 75.4009 55.2463 74.8009 51.8063 74.4609L51.7963 74.4509Z" fill="#FF2631"/>
<path d="M24.3863 25.0508C27.9863 26.5308 31.7963 27.3808 35.6563 27.7608C43.5563 28.5408 51.6863 27.3008 59.0563 24.3608C59.5163 24.1808 59.9763 23.9908 60.4263 23.7908C59.7763 23.3108 59.1163 22.8508 58.4363 22.4208C55.2463 23.7408 51.9063 24.7208 48.5263 25.3608C41.1763 26.7508 33.4463 26.5308 26.2963 24.2408C24.8363 23.7708 23.4063 23.2108 22.0163 22.5408C21.6163 22.8008 21.2163 23.0708 20.8263 23.3508C21.9763 23.9808 23.1663 24.5508 24.3863 25.0508Z" fill="#FF2631"/>
<path d="M65.5764 31.0909C65.5164 30.8309 65.4164 30.5809 65.2664 30.3509C65.0864 30.0809 64.8764 29.8309 64.6564 29.5909C64.4764 29.3909 64.2864 29.2009 64.0864 29.0109C63.5664 28.5109 63.0164 28.0109 62.4164 27.6209C61.8364 27.2409 61.2164 26.9209 60.5364 26.8109C60.1464 26.7509 59.7464 26.6709 59.3564 26.6909C59.1264 26.6909 58.8664 26.6909 58.6464 26.7609C58.5064 26.8009 58.3364 26.8809 58.2064 26.9509C58.1764 26.9609 58.1664 26.9709 58.1564 26.9809C58.1864 26.9709 58.2464 26.9409 58.3564 26.9109C57.7664 27.0809 57.3564 27.6809 57.4364 28.2809C57.4164 28.3509 57.4764 28.6109 57.4664 28.5809C57.5064 28.8709 57.6264 29.1109 57.7464 29.3709C57.8464 29.5809 57.9464 29.7709 58.0664 29.9709C58.4264 30.5609 58.8664 31.0509 59.3464 31.5409C59.7064 31.9009 60.0864 32.2409 60.4464 32.6009C60.9564 33.1309 61.3764 33.7009 62.0164 34.0309C62.4264 34.2909 62.8364 34.3209 63.3164 34.3809C63.8664 34.4509 64.6664 34.0609 65.0264 33.6709C65.4764 33.1809 65.6864 32.6309 65.7364 31.9609C65.7564 31.6409 65.6964 31.3609 65.5964 31.0909H65.5764Z" fill="#FBD74E"/>
<path d="M69.1463 37.1709C69.1363 37.1009 69.1163 37.0409 69.0963 36.9809C69.0363 36.7909 68.9563 36.6009 68.8663 36.4309C68.7063 36.1309 68.4363 35.9409 68.1763 35.7509C68.1263 35.7109 68.0763 35.6809 68.0163 35.6509C67.9863 35.6409 67.9563 35.6209 67.9363 35.6109C67.8163 35.5609 67.6763 35.4909 67.5563 35.4509C67.4263 35.4109 67.2763 35.4109 67.1363 35.3909C67.0763 35.3909 67.0263 35.3909 66.9663 35.3909C66.8263 35.3909 66.6663 35.4309 66.5363 35.4509C66.5263 35.4509 66.5163 35.4509 66.4963 35.4509H66.4763C66.3763 35.4909 66.2663 35.5409 66.1663 35.5809C66.1163 35.6109 66.0663 35.6509 66.0263 35.6909C65.9263 35.7509 65.8563 35.8409 65.7863 35.9309C65.6963 36.0209 65.6263 36.1209 65.5863 36.2409C65.5163 36.3709 65.4863 36.5109 65.4963 36.6509C65.4963 36.7109 65.5163 36.7709 65.5163 36.8409C65.5163 36.8609 65.5163 36.8809 65.5163 36.9009C65.5163 36.9109 65.5163 36.9309 65.5163 36.9409C65.5363 37.0309 65.5663 37.1009 65.6163 37.2009C65.6363 37.2609 65.6663 37.3209 65.6963 37.3809C65.7063 37.4009 65.7163 37.4209 65.7363 37.4409C65.7663 37.4909 65.7963 37.5409 65.8263 37.5909C65.8263 37.6109 65.8463 37.6309 65.8563 37.6509C65.8663 37.6709 65.8863 37.6909 65.8963 37.7209C65.9363 37.8409 65.9863 37.9709 66.0563 38.0809C66.0663 38.1009 66.0763 38.1209 66.0863 38.1409C66.1363 38.3009 66.2163 38.4409 66.3263 38.5709C66.4363 38.7409 66.5863 38.8809 66.7763 38.9809C66.9563 39.1009 67.1563 39.1609 67.3763 39.1709C67.5863 39.2209 67.8063 39.2109 68.0163 39.1409C68.1463 39.0909 68.2763 39.0309 68.3963 38.9809C68.6363 38.8409 68.8263 38.6509 68.9763 38.4009C69.0263 38.2709 69.0863 38.1409 69.1363 38.0209C69.2163 37.7409 69.2163 37.4509 69.1363 37.1709H69.1463Z" fill="#FBD74E"/>
</svg>
