<svg width="81" height="91" viewBox="0 0 81 91" fill="none" xmlns="http://www.w3.org/2000/svg">
<path d="M73.1884 57.8871C77.1925 39.7958 65.7725 21.8839 47.6812 17.8797C29.5899 13.8756 11.6779 25.2956 7.67382 43.3869C3.66969 61.4782 15.0896 79.3901 33.181 83.3943C51.2723 87.3984 69.1842 75.9785 73.1884 57.8871Z" fill="#FF2631"/>
<path d="M47.9763 71.2109C29.4463 71.2109 14.4263 56.1909 14.4263 37.6609C14.4263 34.2209 14.9463 30.8909 15.9063 27.7709C10.3063 33.7709 6.87634 41.8109 6.87634 50.6609C6.87634 69.1909 21.8963 84.2109 40.4263 84.2109C55.5163 84.2109 68.2763 74.2509 72.4963 60.5509C66.3763 67.1109 57.6563 71.2109 47.9763 71.2109Z" fill="#D50D29"/>
<path d="M40.6164 78.2408C40.8964 72.8408 41.1364 67.4408 41.3264 62.0308C41.7064 51.2708 41.9664 40.5108 42.1364 29.7508C42.1864 26.7708 42.2364 23.7908 42.2864 20.8108C42.3064 19.5908 42.3264 18.3708 42.3464 17.1608C41.7664 17.1308 41.1864 17.1108 40.5964 17.1108C40.5864 17.7408 40.5764 18.3708 40.5564 19.0008C40.4664 21.5808 40.3864 24.1608 40.2764 26.7308C40.0564 31.8808 39.8164 37.0408 39.5564 42.1908C39.0364 52.5408 38.4564 62.9008 37.9564 73.2508C37.8164 76.1308 37.6664 79.0108 37.5164 81.8808C37.4764 82.6108 37.4364 83.3408 37.3964 84.0708C38.3564 84.1608 39.3264 84.2108 40.3064 84.2108C40.4164 82.2208 40.5164 80.2308 40.6164 78.2508V78.2408Z" fill="#F8C223"/>
<path d="M12.2164 61.8708C11.7564 52.1108 12.3864 42.1808 14.9364 32.7208C15.4864 30.6808 16.1464 28.6908 16.9164 26.7208C15.8664 27.7608 14.8764 28.8608 13.9664 30.0308C13.9464 30.0908 13.9264 30.1608 13.9064 30.2208C12.3964 34.8908 11.4464 39.7308 10.7964 44.5908C9.87638 51.4408 9.67638 58.3308 10.1764 65.1808C10.9664 66.8108 11.8864 68.3708 12.9164 69.8408C12.5764 67.1908 12.3364 64.5308 12.2164 61.8608V61.8708Z" fill="#F8C223"/>
<path d="M25.6263 76.8408C25.2263 71.2108 25.0963 65.5708 25.2463 59.9308C25.5563 48.6508 27.0263 37.4108 29.6463 26.4408C30.3063 23.6908 31.0063 20.9508 31.8163 18.2308C31.1063 18.4208 30.4063 18.6308 29.7063 18.8708C29.2363 20.4308 28.7963 22.0108 28.3763 23.5808C26.9063 29.1208 25.7163 34.7408 24.8363 40.4008C23.0563 51.7308 22.3863 63.2608 23.0063 74.7108C23.0963 76.3208 23.2063 77.9208 23.3363 79.5308C24.1863 80.0408 25.0663 80.5108 25.9563 80.9408C25.8263 79.5808 25.7063 78.2108 25.6163 76.8408H25.6263Z" fill="#F8C223"/>
<path d="M54.0764 26.0108C54.9764 30.9608 55.3264 35.9708 55.3764 40.9908C55.4764 51.6508 53.8364 62.1908 51.6464 72.5908C51.0164 75.5908 50.3364 78.5908 49.7064 81.5908C49.6064 82.0508 49.5264 82.5209 49.4364 82.9809C50.5664 82.6708 51.6664 82.3008 52.7464 81.8708C53.1564 80.0108 53.5064 78.1408 53.8464 76.2708C54.8664 70.7508 55.7564 65.2108 56.4464 59.6408C57.7664 49.0308 58.0264 38.2808 56.0764 27.7308C55.5964 25.1508 54.9764 22.5908 54.2264 20.0708C53.6664 19.8208 53.1064 19.5808 52.5264 19.3608C53.1464 21.5508 53.6664 23.7708 54.0764 26.0108Z" fill="#F8C223"/>
<path d="M70.0664 34.9108C69.3464 33.5708 68.5464 32.2808 67.6564 31.0508C68.2064 34.6108 68.5364 38.2108 68.6464 41.8108C68.9264 51.4908 67.5264 61.1008 65.0164 70.4408C64.6264 71.9108 64.1664 73.3608 63.7064 74.8008C65.1664 73.3908 66.4964 71.8509 67.6864 70.2009C68.6964 66.2409 69.4564 62.2308 69.9764 58.1808C70.9664 50.5008 71.0864 42.6108 70.0664 34.9008V34.9108Z" fill="#F8C223"/>
<path d="M44.7763 2.31085C44.2463 1.38085 43.4163 0.580854 42.3363 0.360854C41.2563 0.140854 40.1663 0.540846 39.3063 1.18085C37.5763 2.48085 36.6763 4.71085 36.6163 6.84085C36.5763 8.06085 36.8363 9.25085 37.3363 10.3609C37.6163 10.9809 37.9763 11.5609 38.2863 12.1709C38.4163 12.4409 38.5263 12.7108 38.6563 12.9808C38.7063 13.0908 39.0063 13.9108 39.0963 13.8408C38.7563 14.0708 38.8563 14.6808 39.3163 14.6508C40.2263 14.6108 40.2463 13.4709 40.1863 12.7809C40.0863 11.7409 39.4763 10.8208 39.0363 9.90085C38.1963 8.15085 38.1063 6.11085 38.9663 4.34085C39.7263 2.78085 41.8563 0.910848 43.1763 3.01085C44.2363 4.69085 44.1763 6.98086 43.1463 8.66086C42.5263 9.69086 41.6863 10.5209 41.3763 11.7209C41.0763 12.8709 41.0063 14.2209 41.5363 15.3009C41.7963 15.8409 42.5863 15.6509 42.7463 15.1409C43.1163 13.9909 42.7463 12.7609 43.2563 11.6409C43.7463 10.5809 44.6263 9.77085 45.0963 8.68085C45.9563 6.66085 45.8863 4.23085 44.7863 2.31085H44.7763Z" fill="#9E6328"/>
<path d="M45.9163 14.0409C45.8663 13.3409 45.7663 12.6109 45.2663 12.0809C44.6863 11.4609 43.7663 11.4309 42.9863 11.3409C41.2863 11.1509 39.5663 11.1909 37.8663 11.3709C36.9563 11.4709 35.9463 11.4609 35.4063 12.3309C34.5863 13.6509 34.3563 16.7209 35.2963 18.0609C35.8063 18.7909 36.7363 18.8209 37.4563 18.3909C37.8963 18.1209 38.1563 17.6309 38.5063 17.2809C39.0363 17.8409 39.3863 18.6309 40.2463 18.6209C40.7163 18.6209 41.1663 18.3509 41.4863 18.0309C41.6063 17.9009 41.7263 17.7109 41.8563 17.5509C42.7363 18.5509 44.2063 19.8409 45.2763 18.7509C45.8063 18.2109 45.8263 17.3409 45.8863 16.6409C45.9563 15.7809 45.9663 14.9109 45.9063 14.0509L45.9163 14.0409Z" fill="#D3A040"/>
<path d="M45.2963 14.1608C45.2863 14.0808 45.2663 14.0008 45.2463 13.9208C45.1863 13.6908 45.1263 13.4608 45.0163 13.2508C44.9463 13.1108 44.8563 12.9708 44.7663 12.8408C44.6363 12.6508 44.5263 12.5008 44.3063 12.4108C44.2263 12.3808 44.1463 12.3508 44.0663 12.3208C43.8263 12.2408 43.4663 12.3708 43.3463 12.6108C43.2963 12.7208 43.2263 12.8308 43.1963 12.9408C43.1563 13.0908 43.1763 13.2208 43.1763 13.3708C43.1763 13.4608 43.1763 13.5408 43.1763 13.6308C43.1763 13.7308 43.1863 13.8308 43.1963 13.9208C43.2063 14.0408 43.2263 14.1508 43.2263 14.2708C43.2263 14.3708 43.2363 14.4708 43.2463 14.5708C43.2763 14.7608 43.3563 14.9208 43.4363 15.0908C43.4863 15.1608 43.5363 15.2208 43.5863 15.2908C43.6563 15.3408 43.7163 15.3908 43.7863 15.4408C43.9763 15.5508 44.1963 15.5908 44.4163 15.5608C44.7963 15.5108 45.1363 15.2308 45.2363 14.8508C45.2463 14.8108 45.2563 14.7808 45.2663 14.7408C45.3163 14.5308 45.3163 14.3608 45.2663 14.1508L45.2963 14.1608Z" fill="#DFC17D"/>
<path d="M45.0563 16.6509C45.0563 16.6509 45.0263 16.5809 45.0163 16.5409C44.9963 16.4809 44.9663 16.4209 44.9463 16.3709C44.8963 16.2909 44.8363 16.2209 44.7563 16.1709C44.7063 16.1209 44.6563 16.0909 44.5963 16.0809C44.5063 16.0309 44.4163 16.0109 44.3163 16.0209C44.2563 16.0209 44.1863 16.0409 44.1263 16.0509C44.0663 16.0709 44.0063 16.1009 43.9563 16.1209C43.8763 16.1709 43.8063 16.2309 43.7563 16.3109C43.6963 16.3809 43.6463 16.4609 43.6263 16.5609C43.6163 16.6009 43.5963 16.6309 43.5863 16.6709C43.5863 16.6709 43.5863 16.6909 43.5863 16.7009C43.5863 16.7709 43.5663 16.8409 43.5563 16.9109C43.5563 16.9109 43.5563 16.9609 43.5563 16.9809V17.1509V17.1709C43.5563 17.2109 43.5563 17.2509 43.5663 17.2909C43.5663 17.3309 43.5663 17.3709 43.5863 17.4109C43.6163 17.4709 43.6363 17.5309 43.6663 17.6009C43.7163 17.6909 43.7863 17.7609 43.8663 17.8209C43.9163 17.8709 43.9763 17.9009 44.0363 17.9209C44.1263 17.9709 44.2263 17.9909 44.3363 17.9909L44.5463 17.9609C44.6063 17.9309 44.6663 17.9109 44.7363 17.8809C44.8263 17.8309 44.8963 17.7609 44.9563 17.6809C45.0263 17.6109 45.0663 17.5209 45.0963 17.4209C45.1263 17.2709 45.1263 17.1409 45.1263 16.9909C45.1263 16.8909 45.1263 16.7809 45.0863 16.6909L45.0563 16.6509Z" fill="#DFC17D"/>
<path d="M37.2863 13.0409V13.0209C37.2863 13.0009 37.2663 12.9709 37.2563 12.9509C37.2363 12.8609 37.1863 12.7909 37.1263 12.7209C37.0663 12.6609 36.9863 12.6109 36.8963 12.5909C36.8063 12.5709 36.7163 12.5709 36.6263 12.5909C36.5363 12.6109 36.4663 12.6609 36.3963 12.7209C36.3763 12.7409 36.3563 12.7509 36.3363 12.7709C36.3063 12.7909 36.2963 12.8109 36.2663 12.8509C36.2063 12.9209 36.2263 12.9009 36.1863 12.9909C36.1563 13.0409 36.1463 13.0809 36.1463 13.1409C36.1463 13.1709 36.1463 13.2009 36.1363 13.2309C36.1363 13.2809 36.1363 13.3409 36.1263 13.3909C36.1263 13.4409 36.1363 13.4909 36.1463 13.5409C36.1663 13.6109 36.1963 13.6809 36.2463 13.7309C36.2663 13.7709 36.3063 13.8009 36.3463 13.8309C36.3963 13.8809 36.4663 13.9109 36.5363 13.9309C36.5863 13.9309 36.6363 13.9409 36.6863 13.9509C36.7363 13.9509 36.7863 13.9409 36.8363 13.9309C36.9063 13.9109 36.9763 13.8809 37.0263 13.8309C37.0863 13.7909 37.1363 13.7409 37.1663 13.6709C37.1863 13.6209 37.2063 13.5709 37.2363 13.5209C37.2563 13.4609 37.2763 13.4209 37.2963 13.3709C37.2963 13.3209 37.3063 13.2709 37.3163 13.2109C37.3163 13.1609 37.3063 13.1109 37.2963 13.0509L37.2863 13.0409Z" fill="#DFC17D"/>
<path d="M23.0763 30.9109C22.6263 30.2509 22.1363 29.6209 21.6063 29.0209C21.3663 28.7409 20.9663 28.7109 20.6463 28.8509C20.4363 28.8109 20.2063 28.8509 20.0663 29.0209C19.5663 29.6109 19.0663 30.2008 18.5663 30.7908C18.3163 31.0908 18.0663 31.3808 17.8163 31.6808C17.5463 32.0008 17.3163 32.3209 17.3363 32.7709C17.3563 33.1609 17.5863 33.5008 17.7763 33.8408C17.9663 34.1808 18.1563 34.5109 18.3363 34.8509C18.7263 35.5409 19.1163 36.2308 19.5063 36.9208C19.7363 37.3208 20.4163 37.4709 20.7363 37.0809C21.0263 36.7309 21.2963 36.3608 21.5763 36.0008C21.7563 35.8708 21.9063 35.6909 21.9863 35.4709C22.0663 35.3709 22.1463 35.2708 22.2163 35.1708C22.6763 34.5508 23.2263 33.9109 23.5763 33.2109C24.0063 32.3509 23.5563 31.6308 23.0663 30.9208L23.0763 30.9109Z" fill="white"/>
<path d="M19.9763 58.7209C19.4863 58.0909 18.9663 57.4909 18.4063 56.9209C18.1463 56.6509 17.7463 56.6509 17.4363 56.8009C17.2263 56.7709 16.9963 56.8309 16.8663 57.0009C16.3963 57.6209 15.9363 58.2409 15.4663 58.8609C15.2363 59.1709 14.9963 59.4809 14.7663 59.7909C14.5163 60.1309 14.3063 60.4609 14.3563 60.9009C14.3963 61.2909 14.6563 61.6209 14.8563 61.9409C15.0663 62.2609 15.2663 62.5909 15.4763 62.9109C15.9063 63.5809 16.3263 64.2409 16.7563 64.9109C17.0063 65.3009 17.6963 65.4109 17.9963 65.0009C18.2663 64.6309 18.5163 64.2509 18.7763 63.8709C18.9563 63.7309 19.0863 63.5409 19.1563 63.3109C19.2263 63.2009 19.3063 63.1009 19.3763 62.9909C19.7963 62.3409 20.3163 61.6709 20.6163 60.9609C20.9963 60.0709 20.5063 59.3909 19.9863 58.7109L19.9763 58.7209Z" fill="white"/>
<path d="M34.5063 46.8008C34.0163 46.1708 33.4963 45.5708 32.9363 45.0008C32.6763 44.7308 32.2763 44.7309 31.9663 44.8809C31.7563 44.8509 31.5263 44.9108 31.3963 45.0808C30.9263 45.7008 30.4663 46.3208 29.9963 46.9408C29.7663 47.2508 29.5263 47.5608 29.2963 47.8708C29.0463 48.2108 28.8363 48.5408 28.8863 48.9808C28.9263 49.3708 29.1863 49.7009 29.3863 50.0209C29.5963 50.3409 29.7963 50.6709 30.0063 50.9909C30.4363 51.6609 30.8563 52.3209 31.2863 52.9909C31.5363 53.3809 32.2263 53.4908 32.5263 53.0808C32.7963 52.7108 33.0463 52.3308 33.3063 51.9508C33.4863 51.8108 33.6163 51.6208 33.6863 51.3908C33.7563 51.2808 33.8363 51.1808 33.9063 51.0808C34.3263 50.4308 34.8463 49.7608 35.1463 49.0508C35.5263 48.1609 35.0363 47.4808 34.5163 46.8008H34.5063Z" fill="white"/>
<path d="M65.2463 48.6609C64.7563 48.0309 64.2363 47.4309 63.6763 46.8609C63.4163 46.5909 63.0163 46.5909 62.7063 46.7409C62.4963 46.7109 62.2663 46.7709 62.1363 46.9409C61.6663 47.5609 61.2063 48.1809 60.7363 48.8009C60.5063 49.1109 60.2663 49.4209 60.0363 49.7309C59.7863 50.0709 59.5763 50.4009 59.6263 50.8409C59.6663 51.2309 59.9263 51.5609 60.1263 51.8809C60.3363 52.2009 60.5363 52.5309 60.7463 52.8509C61.1763 53.5209 61.5963 54.1809 62.0263 54.8509C62.2763 55.2409 62.9663 55.3509 63.2663 54.9409C63.5363 54.5709 63.7863 54.1909 64.0463 53.8109C64.2263 53.6709 64.3563 53.4809 64.4263 53.2509C64.4963 53.1409 64.5763 53.0409 64.6463 52.9309C65.0663 52.2809 65.5863 51.6109 65.8863 50.9009C66.2663 50.0109 65.7763 49.3309 65.2563 48.6509L65.2463 48.6609Z" fill="white"/>
<path d="M50.3463 29.4808C49.8063 28.8908 49.2363 28.3308 48.6463 27.8008C48.3663 27.5508 47.9763 27.5808 47.6663 27.7608C47.4563 27.7608 47.2363 27.8208 47.1163 28.0108C46.6963 28.6608 46.2763 29.3108 45.8663 29.9708C45.6563 30.3008 45.4463 30.6208 45.2363 30.9508C45.0063 31.3108 44.8263 31.6608 44.9063 32.0908C44.9763 32.4708 45.2563 32.7808 45.4863 33.0908C45.7163 33.4008 45.9463 33.7008 46.1763 34.0108C46.6563 34.6408 47.1263 35.2708 47.6063 35.9108C47.8863 36.2808 48.5763 36.3408 48.8463 35.9108C49.0863 35.5208 49.3063 35.1208 49.5363 34.7308C49.7063 34.5808 49.8263 34.3808 49.8763 34.1508C49.9363 34.0408 50.0063 33.9308 50.0663 33.8208C50.4363 33.1408 50.8963 32.4308 51.1463 31.7008C51.4563 30.7908 50.9163 30.1408 50.3363 29.5008L50.3463 29.4808Z" fill="white"/>
<path d="M49.8763 63.8309C49.2763 63.1709 48.6364 62.5409 47.9664 61.9509C47.6564 61.6709 47.2063 61.7009 46.8663 61.9009C46.6263 61.8909 46.3764 61.9709 46.2464 62.1809C45.7764 62.9109 45.3063 63.6509 44.8363 64.3809C44.6063 64.7509 44.3664 65.1109 44.1364 65.4809C43.8864 65.8809 43.6763 66.2709 43.7663 66.7609C43.8463 67.1909 44.1564 67.5409 44.4164 67.8809C44.6764 68.2309 44.9364 68.5709 45.1964 68.9209C45.7364 69.6309 46.2664 70.3409 46.8064 71.0509C47.1164 71.4709 47.9064 71.5309 48.1964 71.0509C48.4664 70.6109 48.7164 70.1709 48.9664 69.7209C49.1564 69.5509 49.2863 69.3309 49.3463 69.0609C49.4163 68.9409 49.4963 68.8109 49.5663 68.6909C49.9863 67.9309 50.5063 67.1309 50.7863 66.3109C51.1363 65.2909 50.5263 64.5609 49.8763 63.8409V63.8309Z" fill="white"/>
<path d="M64.9663 30.7609C64.7763 30.2609 64.6463 29.9409 64.2563 29.5609C64.0563 29.3609 63.8263 29.2009 63.5963 29.0409C63.4563 28.9409 63.3063 28.8409 63.1663 28.7309C62.8963 28.5409 62.6363 28.3409 62.3763 28.1409C62.3663 28.1409 62.3563 28.1209 62.3463 28.1209C62.3463 28.1209 62.3363 28.1209 62.3263 28.1109C62.3263 28.1109 62.3263 28.1109 62.3163 28.1109C62.1463 27.9809 62.0363 27.9209 61.8563 27.8309C61.7763 27.7909 61.6963 27.7609 61.6163 27.7209C61.5963 27.7209 61.5763 27.7009 61.5563 27.6909C61.3063 27.5309 61.0263 27.4409 60.7363 27.4309C60.6763 27.4109 60.6163 27.4109 60.5463 27.4109C60.3063 27.3609 60.0663 27.3509 59.8263 27.3909C59.7963 27.3909 59.7663 27.3909 59.7463 27.3909C59.5963 27.3909 59.4563 27.4009 59.3063 27.4409C59.0463 27.5109 58.8263 27.6409 58.6363 27.8309C58.3663 28.1009 58.2563 28.4109 58.2263 28.7409C58.2063 28.8509 58.2063 28.9609 58.1963 29.0809C58.1763 29.3009 58.1963 29.5209 58.2263 29.7409C58.2463 30.2709 58.5363 30.7709 58.8163 31.2109C59.0563 31.6009 59.4063 31.9209 59.7363 32.2309C59.9263 32.4109 60.1263 32.6009 60.3163 32.7809C60.4863 32.9409 60.6563 33.0809 60.8463 33.2209C60.9763 33.3209 61.0963 33.4209 61.2363 33.5109C61.7163 33.8009 62.0363 33.8109 62.5763 33.8709C63.0163 33.8709 63.4363 33.7609 63.8163 33.5309C64.1063 33.3809 64.3363 33.1609 64.5063 32.9009C64.7263 32.6609 64.8663 32.3809 64.9463 32.0609C65.0663 31.6209 65.0663 31.1909 64.9463 30.7509L64.9663 30.7609Z" fill="#FF6C82"/>
<path d="M66.9564 35.9109C66.9564 35.9109 66.9464 35.8609 66.9364 35.8409C66.9264 35.7909 66.9064 35.7409 66.8964 35.6909C66.8764 35.6109 66.8464 35.5509 66.8064 35.4709C66.7764 35.3609 66.7164 35.2609 66.6364 35.1709C66.5964 35.1209 66.5664 35.0709 66.5264 35.0309C66.5264 35.0309 66.5164 35.0108 66.5064 35.0108C66.4764 34.9808 66.4464 34.9409 66.4164 34.9109C66.3264 34.8409 66.2464 34.7809 66.1564 34.7109C66.0564 34.6709 65.9564 34.6209 65.8564 34.5809C65.7464 34.5609 65.6264 34.5509 65.5164 34.5309C65.3364 34.5309 65.1764 34.5609 65.0264 34.6409C64.9164 34.6709 64.8264 34.7209 64.7464 34.8009C64.6464 34.8609 64.5764 34.9309 64.5164 35.0309C64.4364 35.1109 64.3864 35.2009 64.3564 35.3109C64.2764 35.4609 64.2364 35.6309 64.2464 35.8009C64.2464 35.8509 64.2364 35.8909 64.2264 35.9409C64.2064 36.1009 64.2364 36.2709 64.2964 36.4209C64.3164 36.4609 64.3264 36.5109 64.3464 36.5509C64.3464 36.5709 64.3664 36.5908 64.3764 36.6208C64.4364 36.8508 64.5564 37.0509 64.7264 37.2109C64.8064 37.3109 64.8964 37.3808 65.0064 37.4308C65.1564 37.5308 65.3264 37.5809 65.5064 37.5909C65.6864 37.6309 65.8564 37.6209 66.0364 37.5709C66.1464 37.5309 66.2464 37.4809 66.3564 37.4409C66.5564 37.3209 66.7164 37.1609 66.8364 36.9609C66.8364 36.9609 66.8364 36.9609 66.8364 36.9509C66.8864 36.8409 66.9264 36.7409 66.9764 36.6309C66.9964 36.5109 67.0064 36.3909 67.0264 36.2709C67.0064 36.1509 66.9964 36.0309 66.9764 35.9109H66.9564Z" fill="#FF6C82"/>
<path d="M19.3863 46.8209C19.3463 46.6609 19.2663 46.5309 19.1463 46.4109C19.0863 46.3609 19.0263 46.3109 18.9563 46.2709C18.8163 46.1909 18.6563 46.1409 18.4863 46.1409C18.3563 46.1409 18.2363 46.1609 18.1263 46.2209C18.0163 46.2609 17.9163 46.3209 17.8263 46.4109C17.7363 46.4909 17.6763 46.5909 17.6363 46.7109C17.5763 46.8209 17.5563 46.9409 17.5563 47.0709C17.5663 47.1509 17.5763 47.2309 17.5863 47.3209C17.6263 47.4809 17.7063 47.6109 17.8263 47.7309C17.8863 47.7809 17.9463 47.8309 18.0163 47.8709C18.1563 47.9509 18.3163 48.0009 18.4863 48.0009C18.6163 48.0009 18.7363 47.9809 18.8463 47.9209C18.9563 47.8809 19.0563 47.8209 19.1463 47.7309C19.2363 47.6509 19.2963 47.5509 19.3363 47.4309C19.3963 47.3209 19.4163 47.2009 19.4163 47.0709C19.4063 46.9909 19.3963 46.9109 19.3863 46.8209Z" fill="white"/>
<path d="M34.8463 30.8309C34.7963 30.6609 34.7163 30.5109 34.5863 30.3809C34.5163 30.3309 34.4463 30.2709 34.3863 30.2209C34.2263 30.1309 34.0563 30.0809 33.8763 30.0809C33.7363 30.0809 33.6063 30.1009 33.4863 30.1709C33.3563 30.2109 33.2563 30.2809 33.1563 30.3809C33.0563 30.4709 32.9863 30.5809 32.9463 30.7109C32.8863 30.8309 32.8563 30.9609 32.8563 31.1009C32.8663 31.1909 32.8763 31.2809 32.8963 31.3709C32.9463 31.5409 33.0263 31.6909 33.1563 31.8209C33.2263 31.8709 33.2963 31.9309 33.3563 31.9809C33.5163 32.0709 33.6863 32.1209 33.8663 32.1209C34.0063 32.1209 34.1363 32.1009 34.2563 32.0309C34.3863 31.9909 34.4863 31.9209 34.5863 31.8209C34.6863 31.7309 34.7563 31.6209 34.7963 31.4909C34.8563 31.3709 34.8863 31.2409 34.8863 31.1009C34.8763 31.0109 34.8663 30.9209 34.8463 30.8309Z" fill="white"/>
<path d="M32.7363 69.9409C32.7063 69.8009 32.6363 69.6709 32.5363 69.5609C32.4863 69.4809 32.4163 69.4108 32.3363 69.3608C32.2263 69.2608 32.1063 69.2009 31.9563 69.1609C31.8563 69.1509 31.7563 69.1308 31.6663 69.1208C31.5663 69.1308 31.4663 69.1509 31.3763 69.1609C31.2363 69.1909 31.1063 69.2608 30.9963 69.3608C30.9163 69.4108 30.8563 69.4709 30.7963 69.5409C30.6663 69.6809 30.5763 69.8309 30.5263 70.0109C30.5163 70.1109 30.4963 70.2109 30.4863 70.3109C30.4863 70.5109 30.5363 70.7009 30.6363 70.8809C30.7063 71.0109 30.8063 71.1209 30.9263 71.2009C31.0363 71.3009 31.1663 71.3708 31.3063 71.4008C31.4563 71.4508 31.6063 71.4509 31.7563 71.4209C31.9063 71.4209 32.0463 71.3709 32.1763 71.2909C32.3463 71.1909 32.4763 71.0509 32.5863 70.8809C32.5863 70.8809 32.5863 70.8808 32.5863 70.8708C32.6163 70.8108 32.6763 70.6609 32.7063 70.6009C32.7063 70.6009 32.7063 70.5809 32.7063 70.5709C32.7363 70.4609 32.7463 70.3409 32.7563 70.2309C32.7463 70.1309 32.7263 70.0309 32.7163 69.9409H32.7363Z" fill="white"/>
<path d="M49.8664 49.0709C49.7664 48.9009 49.6364 48.7708 49.4664 48.6708C49.3764 48.6308 49.2864 48.5908 49.1964 48.5608C48.9964 48.5108 48.7964 48.5108 48.6064 48.5608C48.4564 48.5908 48.3364 48.6608 48.2264 48.7608C48.1064 48.8408 48.0064 48.9409 47.9364 49.0709C47.8364 49.2409 47.7864 49.4309 47.7864 49.6309C47.7864 49.7109 47.7964 49.7908 47.8164 49.8708C47.8164 49.8908 47.8164 49.9008 47.8164 49.9208C47.8164 49.9308 47.8164 49.9509 47.8264 49.9609C47.8264 49.9609 47.8264 49.9708 47.8264 49.9808C47.8264 50.0008 47.8464 50.0208 47.8464 50.0408C47.8464 50.0208 47.8264 50.0009 47.8264 49.9909C47.8364 50.0409 47.8564 50.0909 47.8764 50.1309C47.9164 50.2709 47.9964 50.3909 48.1064 50.4909L48.3264 50.6609C48.4564 50.7409 48.5864 50.7808 48.7364 50.7908C48.8364 50.8208 48.9364 50.8208 49.0264 50.7908C49.1764 50.7908 49.3064 50.7409 49.4364 50.6609L49.6564 50.4909C49.7964 50.3509 49.8864 50.1908 49.9364 50.0008C49.9364 50.0008 49.9364 49.9808 49.9364 49.9708C49.9564 49.8708 49.9764 49.7609 49.9764 49.6609C49.9764 49.6609 49.9764 49.6608 49.9764 49.6508C49.9764 49.4508 49.9264 49.2608 49.8264 49.0908L49.8664 49.0709Z" fill="white"/>
<path d="M63.9063 37.3309C63.8663 37.2009 63.7963 37.1009 63.6963 37.0009C63.6063 36.9009 63.4963 36.8309 63.3663 36.7909C63.2463 36.7309 63.1163 36.7009 62.9763 36.7009C62.8863 36.7109 62.7963 36.7209 62.7063 36.7409C62.5363 36.7909 62.3863 36.8709 62.2563 37.0009C62.2063 37.0709 62.1463 37.1409 62.0963 37.2009C62.0063 37.3609 61.9563 37.5309 61.9563 37.7109V37.7509C61.9563 37.8909 61.9763 38.0209 62.0463 38.1409C62.0863 38.2709 62.1563 38.3709 62.2563 38.4709C62.3463 38.5709 62.4563 38.6409 62.5863 38.6809C62.7063 38.7409 62.8363 38.7709 62.9763 38.7709C63.0663 38.7609 63.1563 38.7509 63.2463 38.7309C63.4163 38.6809 63.5663 38.6009 63.6963 38.4709L63.8563 38.2709C63.9463 38.1109 63.9963 37.9409 63.9963 37.7609V37.7209C63.9963 37.5809 63.9763 37.4509 63.9063 37.3309Z" fill="white"/>
<path d="M61.7963 65.9308C61.7463 65.8708 61.6963 65.8009 61.6463 65.7409C61.5263 65.6209 61.3863 65.5409 61.2263 65.5009C61.0963 65.4609 60.9763 65.4509 60.8463 65.4809C60.7163 65.4809 60.6063 65.5209 60.4963 65.5909C60.3863 65.6509 60.2963 65.7309 60.2263 65.8409C60.1463 65.9309 60.0863 66.0409 60.0563 66.1609C60.0063 66.3309 60.0063 66.5009 60.0563 66.6709L60.0763 66.7809C60.1063 66.9009 60.1663 67.0109 60.2463 67.1009C60.3163 67.2009 60.3963 67.2809 60.5063 67.3409C60.5763 67.3709 60.6563 67.4008 60.7263 67.4308C60.8463 67.4708 60.9763 67.4709 61.0963 67.4509C61.1763 67.4509 61.2563 67.4309 61.3363 67.3909C61.4563 67.3509 61.5563 67.2909 61.6363 67.2009C61.6863 67.1409 61.7363 67.0709 61.7863 67.0109C61.8763 66.8609 61.9163 66.7108 61.9163 66.5408C61.9163 66.5008 61.9163 66.4609 61.9163 66.4209C61.9163 66.2509 61.8763 66.0909 61.7863 65.9409L61.7963 65.9308Z" fill="white"/>
</svg>
