<svg width="96" height="99" viewBox="0 0 96 99" fill="none" xmlns="http://www.w3.org/2000/svg">
<path d="M71.5975 74.3786C84.6996 61.2765 84.6996 40.0338 71.5975 26.9317C58.4954 13.8296 37.2528 13.8296 24.1507 26.9317C11.0486 40.0338 11.0486 61.2765 24.1507 74.3785C37.2528 87.4806 58.4954 87.4807 71.5975 74.3786Z" fill="#6AA69E"/>
<path d="M54.7763 77.8708C36.2463 77.8708 21.2263 62.8509 21.2263 44.3209C21.2263 36.2409 24.0863 28.8209 28.8463 23.0309C20.0763 29.0809 14.3363 39.2008 14.3363 50.6508C14.3363 69.1808 29.3563 84.2009 47.8863 84.2009C58.3363 84.2009 67.6663 79.4209 73.8163 71.9409C68.4063 75.6809 61.8463 77.8708 54.7763 77.8708Z" fill="#478884"/>
<path d="M77.8463 47.5209C77.6063 45.6009 77.2263 43.7209 76.7163 41.8509C76.1763 39.8609 75.7563 37.5209 73.9963 36.2609C72.8263 35.4309 71.3763 36.3509 70.9663 37.4909C70.3463 39.2009 71.3263 41.2409 71.7463 42.9209C71.9463 43.7209 72.1363 44.5309 72.2963 45.3409C72.3763 45.7709 72.4563 46.2009 72.5263 46.6309C72.5563 46.7909 72.5763 46.9609 72.5963 47.1209C72.5963 47.1709 72.6263 47.4509 72.6363 47.5209C72.7963 49.0409 72.8263 50.5709 72.6763 52.0909C72.6763 52.1209 72.6563 52.3009 72.6463 52.4009C72.6263 52.5009 72.6063 52.6809 72.5963 52.7109C72.5263 53.1109 72.4463 53.5009 72.3563 53.8909C72.1463 54.7909 71.7063 55.7209 71.7663 56.6509C71.8863 58.8009 74.5063 60.1109 76.1363 58.4609C77.5163 57.0609 77.7663 54.4909 77.9563 52.6309C78.1263 50.9309 78.0663 49.2109 77.8563 47.5209H77.8463Z" fill="#86B7B4"/>
<path d="M73.1763 61.6909C72.8063 61.4809 72.4163 61.3708 71.9863 61.3708C71.5563 61.3708 71.1663 61.4809 70.7963 61.6909C70.4463 61.9509 70.0863 62.1908 69.7963 62.5108C69.5663 62.7608 69.3563 63.0309 69.2063 63.3209C69.1463 63.4309 69.0963 63.5309 69.0363 63.6409C68.9163 63.8609 68.7963 64.0909 68.6863 64.3109C68.5263 64.6109 68.3463 64.9209 68.2563 65.2509C68.2463 65.3009 68.2263 65.3609 68.2163 65.4109C68.0763 66.0609 68.1063 66.2609 68.2163 66.9109C68.3363 67.3509 68.5663 67.7409 68.8863 68.0609C69.1263 68.3109 69.4063 68.4909 69.7263 68.6009C70.0363 68.7609 70.3763 68.8409 70.7363 68.8209C71.2063 68.8209 71.6463 68.7008 72.0563 68.4608C72.4363 68.2708 72.9963 67.7109 73.1963 67.3209C73.2563 67.2009 73.3063 67.0809 73.3663 66.9709C73.4663 66.7509 73.5763 66.5309 73.6763 66.3109C73.8663 65.9109 74.1263 65.4909 74.2063 65.0609C74.2763 64.7309 74.3463 64.4009 74.3563 64.0609C74.3563 63.9409 74.3563 63.8309 74.3563 63.7109C74.3563 62.8809 73.9063 62.0909 73.1863 61.6709L73.1763 61.6909Z" fill="#86B7B4"/>
<path d="M52.2163 2.31085C51.6863 1.38085 50.8563 0.580854 49.7763 0.360854C48.6963 0.140854 47.6063 0.540846 46.7463 1.18085C45.0163 2.48085 44.1163 4.71085 44.0563 6.84085C44.0163 8.06085 44.2763 9.25085 44.7763 10.3609C45.0563 10.9809 45.4163 11.5609 45.7263 12.1709C45.8563 12.4409 45.9663 12.7108 46.0963 12.9808C46.1463 13.0908 46.4463 13.9108 46.5363 13.8408C46.1963 14.0708 46.2963 14.6808 46.7563 14.6508C47.6663 14.6108 47.6863 13.4709 47.6263 12.7809C47.5263 11.7409 46.9163 10.8208 46.4763 9.90085C45.6363 8.15085 45.5463 6.11085 46.4063 4.34085C47.1663 2.78085 49.2963 0.910848 50.6163 3.01085C51.6763 4.69085 51.6163 6.98086 50.5863 8.66086C49.9663 9.69086 49.1263 10.5209 48.8163 11.7209C48.5163 12.8709 48.4463 14.2209 48.9763 15.3009C49.2363 15.8409 50.0263 15.6509 50.1863 15.1409C50.5563 13.9909 50.1863 12.7609 50.6963 11.6409C51.1863 10.5809 52.0663 9.77085 52.5363 8.68085C53.3963 6.66085 53.3263 4.23085 52.2263 2.31085H52.2163Z" fill="#9E6328"/>
<path d="M53.3663 14.0409C53.3163 13.3409 53.2163 12.6109 52.7163 12.0809C52.1363 11.4609 51.2163 11.4309 50.4363 11.3409C48.7363 11.1509 47.0163 11.1909 45.3163 11.3709C44.4063 11.4709 43.3963 11.4609 42.8563 12.3309C42.0363 13.6509 41.8063 16.7209 42.7463 18.0609C43.2563 18.7909 44.1863 18.8209 44.9063 18.3909C45.3463 18.1209 45.6063 17.6309 45.9563 17.2809C46.4863 17.8409 46.8363 18.6309 47.6963 18.6209C48.1663 18.6209 48.6163 18.3509 48.9363 18.0309C49.0563 17.9009 49.1763 17.7109 49.3063 17.5509C50.1863 18.5509 51.6563 19.8409 52.7263 18.7509C53.2563 18.2109 53.2763 17.3409 53.3363 16.6409C53.4063 15.7809 53.4163 14.9109 53.3563 14.0509L53.3663 14.0409Z" fill="#D3A040"/>
<path d="M52.7463 14.1608C52.7363 14.0808 52.7163 14.0008 52.6963 13.9208C52.6363 13.6908 52.5763 13.4608 52.4663 13.2508C52.3963 13.1108 52.3063 12.9708 52.2163 12.8408C52.0863 12.6508 51.9763 12.5008 51.7563 12.4108C51.6763 12.3808 51.5963 12.3508 51.5163 12.3208C51.2763 12.2408 50.9163 12.3708 50.7963 12.6108C50.7463 12.7208 50.6763 12.8308 50.6463 12.9408C50.6063 13.0908 50.6263 13.2208 50.6263 13.3708C50.6263 13.4608 50.6263 13.5408 50.6263 13.6308C50.6263 13.7308 50.6363 13.8308 50.6463 13.9208C50.6563 14.0408 50.6763 14.1508 50.6763 14.2708C50.6763 14.3708 50.6863 14.4708 50.6963 14.5708C50.7263 14.7608 50.8063 14.9208 50.8863 15.0908C50.9363 15.1608 50.9863 15.2208 51.0363 15.2908C51.1063 15.3408 51.1663 15.3908 51.2363 15.4408C51.4263 15.5508 51.6463 15.5908 51.8663 15.5608C52.2463 15.5108 52.5863 15.2308 52.6863 14.8508C52.6963 14.8108 52.7063 14.7808 52.7163 14.7408C52.7663 14.5308 52.7663 14.3608 52.7163 14.1508L52.7463 14.1608Z" fill="#DFC17D"/>
<path d="M52.5063 16.6509C52.5063 16.6509 52.4764 16.5809 52.4664 16.5409C52.4464 16.4809 52.4163 16.4209 52.3963 16.3709C52.3463 16.2909 52.2863 16.2209 52.2063 16.1709C52.1563 16.1209 52.1063 16.0909 52.0463 16.0809C51.9563 16.0309 51.8663 16.0109 51.7663 16.0209C51.7063 16.0209 51.6364 16.0409 51.5764 16.0509C51.5164 16.0709 51.4563 16.1009 51.4063 16.1209C51.3263 16.1709 51.2563 16.2309 51.2063 16.3109C51.1463 16.3809 51.0964 16.4609 51.0764 16.5609C51.0664 16.6009 51.0463 16.6309 51.0363 16.6709C51.0363 16.6709 51.0363 16.6909 51.0363 16.7009C51.0363 16.7709 51.0163 16.8409 51.0063 16.9109C51.0063 16.9109 51.0063 16.9609 51.0063 16.9809V17.1509V17.1709C51.0063 17.2109 51.0063 17.2509 51.0163 17.2909C51.0163 17.3309 51.0163 17.3709 51.0363 17.4109C51.0663 17.4709 51.0863 17.5309 51.1163 17.6009C51.1663 17.6909 51.2363 17.7609 51.3163 17.8209C51.3663 17.8709 51.4263 17.9009 51.4863 17.9209C51.5763 17.9709 51.6763 17.9909 51.7863 17.9909L51.9964 17.9609C52.0564 17.9309 52.1163 17.9109 52.1863 17.8809C52.2763 17.8309 52.3463 17.7609 52.4063 17.6809C52.4763 17.6109 52.5163 17.5209 52.5463 17.4209C52.5763 17.2709 52.5764 17.1409 52.5764 16.9909C52.5764 16.8909 52.5763 16.7809 52.5363 16.6909L52.5063 16.6509Z" fill="#DFC17D"/>
<path d="M44.7263 13.0409V13.0209C44.7263 13.0009 44.7063 12.9709 44.6963 12.9509C44.6763 12.8609 44.6263 12.7909 44.5663 12.7209C44.5063 12.6609 44.4263 12.6109 44.3363 12.5909C44.2463 12.5709 44.1563 12.5709 44.0663 12.5909C43.9763 12.6109 43.9063 12.6609 43.8363 12.7209C43.8163 12.7409 43.7963 12.7509 43.7763 12.7709C43.7463 12.7909 43.7363 12.8109 43.7063 12.8509C43.6463 12.9209 43.6663 12.9009 43.6263 12.9909C43.5963 13.0409 43.5863 13.0809 43.5863 13.1409C43.5863 13.1709 43.5863 13.2009 43.5763 13.2309C43.5763 13.2809 43.5763 13.3409 43.5663 13.3909C43.5663 13.4409 43.5763 13.4909 43.5863 13.5409C43.6063 13.6109 43.6363 13.6809 43.6863 13.7309C43.7063 13.7709 43.7463 13.8009 43.7863 13.8309C43.8363 13.8809 43.9063 13.9109 43.9763 13.9309C44.0263 13.9309 44.0763 13.9409 44.1263 13.9509C44.1763 13.9509 44.2263 13.9409 44.2763 13.9309C44.3463 13.9109 44.4163 13.8809 44.4663 13.8309C44.5263 13.7909 44.5763 13.7409 44.6063 13.6709C44.6263 13.6209 44.6463 13.5709 44.6763 13.5209C44.6963 13.4709 44.7163 13.4309 44.7363 13.3809C44.7363 13.3309 44.7463 13.2809 44.7563 13.2209C44.7563 13.1709 44.7463 13.1209 44.7363 13.0609L44.7263 13.0409Z" fill="#DFC17D"/>
<path d="M44.8562 26.5209C52.0762 27.0009 59.3562 25.4409 65.8762 22.3509C64.9962 21.7909 64.0762 21.2609 63.1362 20.7809C54.4762 24.4509 44.6362 25.2109 35.3862 22.7209C34.0462 22.3609 32.7162 21.9209 31.3962 21.4209C30.7162 21.8009 30.0462 22.2109 29.3962 22.6409C34.2262 24.9009 39.5362 26.1709 44.8362 26.5209H44.8562Z" fill="white"/>
<path d="M58.0863 76.6808C44.7263 77.0708 31.4263 73.7908 19.7063 67.3608C19.2463 67.1108 18.7963 66.8508 18.3463 66.5908C19.2663 68.2808 20.3263 69.8808 21.5063 71.3808C25.9763 73.6108 30.6463 75.4208 35.4663 76.7608C45.3663 79.5108 55.7763 80.2008 65.9463 78.9208C67.6363 77.8408 69.2263 76.6108 70.6863 75.2508C66.5363 76.0808 62.3163 76.5608 58.0763 76.6808H58.0863Z" fill="white"/>
<path d="M57.5964 50.7309C45.7164 51.1209 33.6664 47.6808 23.4164 41.7608C21.1964 40.4708 19.0464 39.0609 16.9964 37.5309C16.6364 38.3809 16.3164 39.2609 16.0164 40.1409C22.2464 44.6709 29.2264 48.1809 36.5864 50.4809C42.5164 52.3309 48.7464 53.4008 54.9664 53.5408C58.5664 53.6208 62.1664 53.3109 65.6864 52.5209C69.0964 51.7509 72.4064 50.5809 75.6664 49.3109C77.5364 48.5809 79.3864 47.8309 81.2464 47.0609C81.1464 46.0909 80.9964 45.1308 80.8064 44.1808C79.6464 44.6608 78.4864 45.1409 77.3264 45.6109C70.9564 48.1809 64.5264 50.5009 57.5964 50.7309Z" fill="white"/>
<path d="M39.7863 38.5509C45.1163 38.5509 50.4863 37.9109 55.6063 36.4109C60.5363 34.9709 65.5263 32.7809 69.4463 29.4109C70.2963 28.6809 71.0463 27.8809 71.7163 27.0409C71.1063 26.4209 70.4663 25.8309 69.8063 25.2709C69.4663 25.7009 69.1063 26.1309 68.7063 26.5309C65.2863 29.9709 60.4863 32.1209 55.9163 33.5609C45.9663 36.7109 35.2963 36.3909 25.1663 34.3109C23.2263 33.9109 21.3063 33.4509 19.3863 32.9409C18.9063 33.7209 18.4563 34.5109 18.0363 35.3309C25.1363 37.2609 32.4063 38.5509 39.7763 38.5709L39.7863 38.5509Z" fill="white"/>
<path d="M44.6363 64.4208C57.2763 64.7208 70.0963 62.3508 81.0263 55.8908C81.2163 54.7108 81.3363 53.5108 81.3963 52.2908C76.9063 55.2008 71.9963 57.4508 66.8263 58.9508C53.4263 62.8308 39.1963 62.0308 25.6263 59.4708C22.0463 58.8008 18.4963 58.0008 14.9663 57.1508C15.1663 58.1708 15.4163 59.1708 15.7063 60.1508C25.2163 62.4308 34.8463 64.1908 44.6463 64.4208H44.6363Z" fill="white"/>
<path d="M53.5863 56.8909C51.8463 56.2809 49.9363 56.3809 48.1063 56.3909C46.2563 56.3909 44.4063 56.3409 42.5663 56.2209C38.8563 55.9809 35.1463 55.5409 31.4963 54.8309C27.8163 54.1209 24.1963 53.1209 20.6063 52.0409C18.8163 51.5109 17.0163 50.9909 15.2563 50.3909C14.9463 50.2909 14.6463 50.1609 14.3563 50.0409C14.3563 50.2409 14.3363 50.4509 14.3363 50.6509C14.3363 51.5109 14.3763 52.3609 14.4463 53.2009C15.9663 53.6909 17.5163 54.1009 18.9963 54.5409C26.2863 56.6809 33.6463 58.4109 41.2563 58.7309C43.3963 58.8209 45.5363 58.8109 47.6763 58.7109C49.6963 58.6209 51.8763 58.5309 53.6663 57.4909C53.9263 57.3409 53.8463 56.9709 53.5863 56.8809V56.8909Z" fill="#F8C223"/>
<path d="M58.2062 28.1809C56.7062 28.1609 55.1462 28.7709 53.7162 29.1609C52.2262 29.5709 50.7062 29.8909 49.1762 30.1209C46.0662 30.5909 42.9862 30.5709 39.8562 30.3009C34.6562 29.8609 29.5462 28.5509 24.8562 26.2609C24.0862 26.9909 23.3462 27.7609 22.6462 28.5609C24.5862 29.5909 26.6162 30.4709 28.6962 31.1409C31.8462 32.1609 35.1062 32.7809 38.4062 33.0609C41.6462 33.3309 45.0062 33.0309 48.2062 32.5109C50.0462 32.2109 51.8762 31.7809 53.6562 31.2209C55.2862 30.7109 57.2862 30.0909 58.4662 28.8009C58.6762 28.5709 58.5362 28.2009 58.2162 28.1909L58.2062 28.1809Z" fill="#F8C223"/>
<path d="M38.8763 42.4008C38.4163 42.3708 38.3363 42.9809 38.6563 43.2009C40.3963 44.3909 42.6463 44.9009 44.6863 45.3309C46.8163 45.7809 49.0063 46.0909 51.1863 46.1709C55.5963 46.3309 60.0363 45.8208 64.2963 44.6808C69.5163 43.2808 74.4463 41.0209 79.0163 38.1609C78.6163 37.1709 78.1763 36.2109 77.6963 35.2809C76.0463 36.3509 74.3563 37.3608 72.6063 38.2608C66.1063 41.6308 58.7963 43.6509 51.4563 43.7409C49.3663 43.7709 47.2763 43.7009 45.2063 43.4509C43.0863 43.1909 40.9963 42.5309 38.8663 42.3909L38.8763 42.4008Z" fill="#F8C223"/>
<path d="M78.9664 63.2809C78.9664 63.2809 78.9463 63.2909 78.9363 63.3009C75.4263 65.2409 71.7463 66.6909 67.8763 67.7709C60.1763 69.9109 52.1763 70.4709 44.2363 69.7509C42.0163 69.5509 39.8164 69.2109 37.6364 68.7509C36.5064 68.5109 35.3764 68.3009 34.2564 68.0309C33.1764 67.7709 32.0964 67.3809 30.9764 67.3609C30.5664 67.3609 30.2664 67.9509 30.6164 68.2309C31.3864 68.8609 32.2964 69.2009 33.2264 69.5609C34.1864 69.9409 35.1664 70.2808 36.1464 70.6108C38.1264 71.2708 40.2064 71.7009 42.2564 72.0609C46.3464 72.7909 50.5263 73.0508 54.6863 72.9008C62.2563 72.6308 69.6364 70.7409 76.6464 67.9409C77.5364 66.4609 78.3164 64.9009 78.9764 63.2809H78.9664Z" fill="#F8C223"/>
</svg>
